G04 #@! TF.GenerationSoftware,KiCad,Pcbnew,(5.1.2)-1*
G04 #@! TF.CreationDate,2019-05-08T22:22:59+02:00*
G04 #@! TF.ProjectId,LED MATRIX Anzeige,4c454420-4d41-4545-9249-5820416e7a65,rev?*
G04 #@! TF.SameCoordinates,Original*
G04 #@! TF.FileFunction,Soldermask,Bot*
G04 #@! TF.FilePolarity,Negative*
%FSLAX46Y46*%
G04 Gerber Fmt 4.6, Leading zero omitted, Abs format (unit mm)*
G04 Created by KiCad (PCBNEW (5.1.2)-1) date 2019-05-08 22:22:59*
%MOMM*%
%LPD*%
G04 APERTURE LIST*
%ADD10C,0.100000*%
G04 APERTURE END LIST*
D10*
G36*
X76944098Y-113752033D02*
G01*
X77408350Y-113944332D01*
X77408352Y-113944333D01*
X77826168Y-114223509D01*
X78181491Y-114578832D01*
X78316962Y-114781579D01*
X78460668Y-114996650D01*
X78652967Y-115460902D01*
X78751000Y-115953747D01*
X78751000Y-116456253D01*
X78652967Y-116949098D01*
X78460668Y-117413350D01*
X78460667Y-117413352D01*
X78181491Y-117831168D01*
X77826168Y-118186491D01*
X77408352Y-118465667D01*
X77408351Y-118465668D01*
X77408350Y-118465668D01*
X76944098Y-118657967D01*
X76451253Y-118756000D01*
X75948747Y-118756000D01*
X75455902Y-118657967D01*
X74991650Y-118465668D01*
X74991649Y-118465668D01*
X74991648Y-118465667D01*
X74573832Y-118186491D01*
X74218509Y-117831168D01*
X73939333Y-117413352D01*
X73939332Y-117413350D01*
X73747033Y-116949098D01*
X73649000Y-116456253D01*
X73649000Y-115953747D01*
X73747033Y-115460902D01*
X73939332Y-114996650D01*
X74083038Y-114781579D01*
X74218509Y-114578832D01*
X74573832Y-114223509D01*
X74991648Y-113944333D01*
X74991650Y-113944332D01*
X75455902Y-113752033D01*
X75948747Y-113654000D01*
X76451253Y-113654000D01*
X76944098Y-113752033D01*
X76944098Y-113752033D01*
G37*
G36*
X87370256Y-115231298D02*
G01*
X87476579Y-115252447D01*
X87777042Y-115376903D01*
X88047451Y-115557585D01*
X88277415Y-115787549D01*
X88458097Y-116057958D01*
X88550688Y-116281491D01*
X88582553Y-116358422D01*
X88622783Y-116560668D01*
X88646000Y-116677391D01*
X88646000Y-117002609D01*
X88582553Y-117321579D01*
X88458097Y-117622042D01*
X88277415Y-117892451D01*
X88047451Y-118122415D01*
X87777042Y-118303097D01*
X87476579Y-118427553D01*
X87370256Y-118448702D01*
X87157611Y-118491000D01*
X86832389Y-118491000D01*
X86619744Y-118448702D01*
X86513421Y-118427553D01*
X86212958Y-118303097D01*
X85942549Y-118122415D01*
X85712585Y-117892451D01*
X85531903Y-117622042D01*
X85407447Y-117321579D01*
X85344000Y-117002609D01*
X85344000Y-116677391D01*
X85367218Y-116560668D01*
X85407447Y-116358422D01*
X85439313Y-116281491D01*
X85531903Y-116057958D01*
X85712585Y-115787549D01*
X85942549Y-115557585D01*
X86212958Y-115376903D01*
X86513421Y-115252447D01*
X86619744Y-115231298D01*
X86832389Y-115189000D01*
X87157611Y-115189000D01*
X87370256Y-115231298D01*
X87370256Y-115231298D01*
G37*
G36*
X188069098Y-111847033D02*
G01*
X188533350Y-112039332D01*
X188533352Y-112039333D01*
X188951168Y-112318509D01*
X189306491Y-112673832D01*
X189585667Y-113091648D01*
X189585668Y-113091650D01*
X189777967Y-113555902D01*
X189876000Y-114048747D01*
X189876000Y-114551253D01*
X189777967Y-115044098D01*
X189585668Y-115508350D01*
X189585667Y-115508352D01*
X189306491Y-115926168D01*
X188951168Y-116281491D01*
X188533352Y-116560667D01*
X188533351Y-116560668D01*
X188533350Y-116560668D01*
X188069098Y-116752967D01*
X187576253Y-116851000D01*
X187073747Y-116851000D01*
X186580902Y-116752967D01*
X186116650Y-116560668D01*
X186116649Y-116560668D01*
X186116648Y-116560667D01*
X185698832Y-116281491D01*
X185343509Y-115926168D01*
X185064333Y-115508352D01*
X185064332Y-115508350D01*
X184872033Y-115044098D01*
X184774000Y-114551253D01*
X184774000Y-114048747D01*
X184872033Y-113555902D01*
X185064332Y-113091650D01*
X185064333Y-113091648D01*
X185343509Y-112673832D01*
X185698832Y-112318509D01*
X186116648Y-112039333D01*
X186116650Y-112039332D01*
X186580902Y-111847033D01*
X187073747Y-111749000D01*
X187576253Y-111749000D01*
X188069098Y-111847033D01*
X188069098Y-111847033D01*
G37*
G36*
X176905256Y-112691298D02*
G01*
X177011579Y-112712447D01*
X177312042Y-112836903D01*
X177582451Y-113017585D01*
X177812415Y-113247549D01*
X177993097Y-113517958D01*
X178117553Y-113818421D01*
X178181000Y-114137391D01*
X178181000Y-114462609D01*
X178117553Y-114781579D01*
X177993097Y-115082042D01*
X177812415Y-115352451D01*
X177582451Y-115582415D01*
X177312042Y-115763097D01*
X177011579Y-115887553D01*
X176905256Y-115908702D01*
X176692611Y-115951000D01*
X176367389Y-115951000D01*
X176154744Y-115908702D01*
X176048421Y-115887553D01*
X175747958Y-115763097D01*
X175477549Y-115582415D01*
X175247585Y-115352451D01*
X175066903Y-115082042D01*
X174942447Y-114781579D01*
X174879000Y-114462609D01*
X174879000Y-114137391D01*
X174942447Y-113818421D01*
X175066903Y-113517958D01*
X175247585Y-113247549D01*
X175477549Y-113017585D01*
X175747958Y-112836903D01*
X176048421Y-112712447D01*
X176154744Y-112691298D01*
X176367389Y-112649000D01*
X176692611Y-112649000D01*
X176905256Y-112691298D01*
X176905256Y-112691298D01*
G37*
G36*
X103118228Y-106496703D02*
G01*
X103273100Y-106560853D01*
X103412481Y-106653985D01*
X103531015Y-106772519D01*
X103624147Y-106911900D01*
X103688297Y-107066772D01*
X103721000Y-107231184D01*
X103721000Y-107398816D01*
X103688297Y-107563228D01*
X103624147Y-107718100D01*
X103531015Y-107857481D01*
X103412481Y-107976015D01*
X103273100Y-108069147D01*
X103118228Y-108133297D01*
X102953816Y-108166000D01*
X102786184Y-108166000D01*
X102621772Y-108133297D01*
X102466900Y-108069147D01*
X102327519Y-107976015D01*
X102208985Y-107857481D01*
X102115853Y-107718100D01*
X102051703Y-107563228D01*
X102019000Y-107398816D01*
X102019000Y-107231184D01*
X102051703Y-107066772D01*
X102115853Y-106911900D01*
X102208985Y-106772519D01*
X102327519Y-106653985D01*
X102466900Y-106560853D01*
X102621772Y-106496703D01*
X102786184Y-106464000D01*
X102953816Y-106464000D01*
X103118228Y-106496703D01*
X103118228Y-106496703D01*
G37*
G36*
X92876823Y-106476313D02*
G01*
X93037242Y-106524976D01*
X93104361Y-106560852D01*
X93185078Y-106603996D01*
X93314659Y-106710341D01*
X93421004Y-106839922D01*
X93421005Y-106839924D01*
X93500024Y-106987758D01*
X93548687Y-107148177D01*
X93565117Y-107315000D01*
X93548687Y-107481823D01*
X93500024Y-107642242D01*
X93459477Y-107718100D01*
X93421004Y-107790078D01*
X93314659Y-107919659D01*
X93185078Y-108026004D01*
X93185076Y-108026005D01*
X93037242Y-108105024D01*
X92876823Y-108153687D01*
X92751804Y-108166000D01*
X92668196Y-108166000D01*
X92543177Y-108153687D01*
X92382758Y-108105024D01*
X92234924Y-108026005D01*
X92234922Y-108026004D01*
X92105341Y-107919659D01*
X91998996Y-107790078D01*
X91960523Y-107718100D01*
X91919976Y-107642242D01*
X91871313Y-107481823D01*
X91854883Y-107315000D01*
X91871313Y-107148177D01*
X91919976Y-106987758D01*
X91998995Y-106839924D01*
X91998996Y-106839922D01*
X92105341Y-106710341D01*
X92234922Y-106603996D01*
X92315639Y-106560852D01*
X92382758Y-106524976D01*
X92543177Y-106476313D01*
X92668196Y-106464000D01*
X92751804Y-106464000D01*
X92876823Y-106476313D01*
X92876823Y-106476313D01*
G37*
G36*
X88431823Y-102031313D02*
G01*
X88592242Y-102079976D01*
X88724906Y-102150886D01*
X88740078Y-102158996D01*
X88869659Y-102265341D01*
X88976004Y-102394922D01*
X88976005Y-102394924D01*
X89055024Y-102542758D01*
X89103687Y-102703177D01*
X89120117Y-102870000D01*
X89103687Y-103036823D01*
X89055024Y-103197242D01*
X88984114Y-103329906D01*
X88976004Y-103345078D01*
X88869659Y-103474659D01*
X88740078Y-103581004D01*
X88740076Y-103581005D01*
X88592242Y-103660024D01*
X88431823Y-103708687D01*
X88306804Y-103721000D01*
X88223196Y-103721000D01*
X88098177Y-103708687D01*
X87937758Y-103660024D01*
X87789924Y-103581005D01*
X87789922Y-103581004D01*
X87660341Y-103474659D01*
X87553996Y-103345078D01*
X87545886Y-103329906D01*
X87474976Y-103197242D01*
X87426313Y-103036823D01*
X87409883Y-102870000D01*
X87426313Y-102703177D01*
X87474976Y-102542758D01*
X87553995Y-102394924D01*
X87553996Y-102394922D01*
X87660341Y-102265341D01*
X87789922Y-102158996D01*
X87805094Y-102150886D01*
X87937758Y-102079976D01*
X88098177Y-102031313D01*
X88223196Y-102019000D01*
X88306804Y-102019000D01*
X88431823Y-102031313D01*
X88431823Y-102031313D01*
G37*
G36*
X73191823Y-102031313D02*
G01*
X73352242Y-102079976D01*
X73484906Y-102150886D01*
X73500078Y-102158996D01*
X73629659Y-102265341D01*
X73736004Y-102394922D01*
X73736005Y-102394924D01*
X73815024Y-102542758D01*
X73863687Y-102703177D01*
X73880117Y-102870000D01*
X73863687Y-103036823D01*
X73815024Y-103197242D01*
X73744114Y-103329906D01*
X73736004Y-103345078D01*
X73629659Y-103474659D01*
X73500078Y-103581004D01*
X73500076Y-103581005D01*
X73352242Y-103660024D01*
X73191823Y-103708687D01*
X73066804Y-103721000D01*
X72983196Y-103721000D01*
X72858177Y-103708687D01*
X72697758Y-103660024D01*
X72549924Y-103581005D01*
X72549922Y-103581004D01*
X72420341Y-103474659D01*
X72313996Y-103345078D01*
X72305886Y-103329906D01*
X72234976Y-103197242D01*
X72186313Y-103036823D01*
X72169883Y-102870000D01*
X72186313Y-102703177D01*
X72234976Y-102542758D01*
X72313995Y-102394924D01*
X72313996Y-102394922D01*
X72420341Y-102265341D01*
X72549922Y-102158996D01*
X72565094Y-102150886D01*
X72697758Y-102079976D01*
X72858177Y-102031313D01*
X72983196Y-102019000D01*
X73066804Y-102019000D01*
X73191823Y-102031313D01*
X73191823Y-102031313D01*
G37*
G36*
X108227395Y-100685546D02*
G01*
X108400466Y-100757234D01*
X108472069Y-100805078D01*
X108556227Y-100861310D01*
X108688690Y-100993773D01*
X108720249Y-101041005D01*
X108792766Y-101149534D01*
X108864454Y-101322605D01*
X108901000Y-101506333D01*
X108901000Y-101693667D01*
X108864454Y-101877395D01*
X108792766Y-102050466D01*
X108773048Y-102079976D01*
X108688690Y-102206227D01*
X108556227Y-102338690D01*
X108477818Y-102391081D01*
X108400466Y-102442766D01*
X108227395Y-102514454D01*
X108043667Y-102551000D01*
X107856333Y-102551000D01*
X107672605Y-102514454D01*
X107499534Y-102442766D01*
X107422182Y-102391081D01*
X107343773Y-102338690D01*
X107211310Y-102206227D01*
X107126952Y-102079976D01*
X107107234Y-102050466D01*
X107035546Y-101877395D01*
X106999000Y-101693667D01*
X106999000Y-101506333D01*
X107035546Y-101322605D01*
X107107234Y-101149534D01*
X107179751Y-101041005D01*
X107211310Y-100993773D01*
X107343773Y-100861310D01*
X107427931Y-100805078D01*
X107499534Y-100757234D01*
X107672605Y-100685546D01*
X107856333Y-100649000D01*
X108043667Y-100649000D01*
X108227395Y-100685546D01*
X108227395Y-100685546D01*
G37*
G36*
X106361000Y-102551000D02*
G01*
X104459000Y-102551000D01*
X104459000Y-100649000D01*
X106361000Y-100649000D01*
X106361000Y-102551000D01*
X106361000Y-102551000D01*
G37*
G36*
X73191823Y-99491313D02*
G01*
X73352242Y-99539976D01*
X73484906Y-99610886D01*
X73500078Y-99618996D01*
X73629659Y-99725341D01*
X73736004Y-99854922D01*
X73736005Y-99854924D01*
X73815024Y-100002758D01*
X73863687Y-100163177D01*
X73880117Y-100330000D01*
X73863687Y-100496823D01*
X73815024Y-100657242D01*
X73744114Y-100789906D01*
X73736004Y-100805078D01*
X73629659Y-100934659D01*
X73500078Y-101041004D01*
X73500076Y-101041005D01*
X73352242Y-101120024D01*
X73191823Y-101168687D01*
X73066804Y-101181000D01*
X72983196Y-101181000D01*
X72858177Y-101168687D01*
X72697758Y-101120024D01*
X72549924Y-101041005D01*
X72549922Y-101041004D01*
X72420341Y-100934659D01*
X72313996Y-100805078D01*
X72305886Y-100789906D01*
X72234976Y-100657242D01*
X72186313Y-100496823D01*
X72169883Y-100330000D01*
X72186313Y-100163177D01*
X72234976Y-100002758D01*
X72313995Y-99854924D01*
X72313996Y-99854922D01*
X72420341Y-99725341D01*
X72549922Y-99618996D01*
X72565094Y-99610886D01*
X72697758Y-99539976D01*
X72858177Y-99491313D01*
X72983196Y-99479000D01*
X73066804Y-99479000D01*
X73191823Y-99491313D01*
X73191823Y-99491313D01*
G37*
G36*
X88431823Y-99491313D02*
G01*
X88592242Y-99539976D01*
X88724906Y-99610886D01*
X88740078Y-99618996D01*
X88869659Y-99725341D01*
X88976004Y-99854922D01*
X88976005Y-99854924D01*
X89055024Y-100002758D01*
X89103687Y-100163177D01*
X89120117Y-100330000D01*
X89103687Y-100496823D01*
X89055024Y-100657242D01*
X88984114Y-100789906D01*
X88976004Y-100805078D01*
X88869659Y-100934659D01*
X88740078Y-101041004D01*
X88740076Y-101041005D01*
X88592242Y-101120024D01*
X88431823Y-101168687D01*
X88306804Y-101181000D01*
X88223196Y-101181000D01*
X88098177Y-101168687D01*
X87937758Y-101120024D01*
X87789924Y-101041005D01*
X87789922Y-101041004D01*
X87660341Y-100934659D01*
X87553996Y-100805078D01*
X87545886Y-100789906D01*
X87474976Y-100657242D01*
X87426313Y-100496823D01*
X87409883Y-100330000D01*
X87426313Y-100163177D01*
X87474976Y-100002758D01*
X87553995Y-99854924D01*
X87553996Y-99854922D01*
X87660341Y-99725341D01*
X87789922Y-99618996D01*
X87805094Y-99610886D01*
X87937758Y-99539976D01*
X88098177Y-99491313D01*
X88223196Y-99479000D01*
X88306804Y-99479000D01*
X88431823Y-99491313D01*
X88431823Y-99491313D01*
G37*
G36*
X73191823Y-96951313D02*
G01*
X73352242Y-96999976D01*
X73484906Y-97070886D01*
X73500078Y-97078996D01*
X73629659Y-97185341D01*
X73736004Y-97314922D01*
X73736005Y-97314924D01*
X73815024Y-97462758D01*
X73863687Y-97623177D01*
X73880117Y-97790000D01*
X73863687Y-97956823D01*
X73815024Y-98117242D01*
X73744114Y-98249906D01*
X73736004Y-98265078D01*
X73629659Y-98394659D01*
X73500078Y-98501004D01*
X73500076Y-98501005D01*
X73352242Y-98580024D01*
X73191823Y-98628687D01*
X73066804Y-98641000D01*
X72983196Y-98641000D01*
X72858177Y-98628687D01*
X72697758Y-98580024D01*
X72549924Y-98501005D01*
X72549922Y-98501004D01*
X72420341Y-98394659D01*
X72313996Y-98265078D01*
X72305886Y-98249906D01*
X72234976Y-98117242D01*
X72186313Y-97956823D01*
X72169883Y-97790000D01*
X72186313Y-97623177D01*
X72234976Y-97462758D01*
X72313995Y-97314924D01*
X72313996Y-97314922D01*
X72420341Y-97185341D01*
X72549922Y-97078996D01*
X72565094Y-97070886D01*
X72697758Y-96999976D01*
X72858177Y-96951313D01*
X72983196Y-96939000D01*
X73066804Y-96939000D01*
X73191823Y-96951313D01*
X73191823Y-96951313D01*
G37*
G36*
X88431823Y-96951313D02*
G01*
X88592242Y-96999976D01*
X88724906Y-97070886D01*
X88740078Y-97078996D01*
X88869659Y-97185341D01*
X88976004Y-97314922D01*
X88976005Y-97314924D01*
X89055024Y-97462758D01*
X89103687Y-97623177D01*
X89120117Y-97790000D01*
X89103687Y-97956823D01*
X89055024Y-98117242D01*
X88984114Y-98249906D01*
X88976004Y-98265078D01*
X88869659Y-98394659D01*
X88740078Y-98501004D01*
X88740076Y-98501005D01*
X88592242Y-98580024D01*
X88431823Y-98628687D01*
X88306804Y-98641000D01*
X88223196Y-98641000D01*
X88098177Y-98628687D01*
X87937758Y-98580024D01*
X87789924Y-98501005D01*
X87789922Y-98501004D01*
X87660341Y-98394659D01*
X87553996Y-98265078D01*
X87545886Y-98249906D01*
X87474976Y-98117242D01*
X87426313Y-97956823D01*
X87409883Y-97790000D01*
X87426313Y-97623177D01*
X87474976Y-97462758D01*
X87553995Y-97314924D01*
X87553996Y-97314922D01*
X87660341Y-97185341D01*
X87789922Y-97078996D01*
X87805094Y-97070886D01*
X87937758Y-96999976D01*
X88098177Y-96951313D01*
X88223196Y-96939000D01*
X88306804Y-96939000D01*
X88431823Y-96951313D01*
X88431823Y-96951313D01*
G37*
G36*
X103118228Y-96336703D02*
G01*
X103273100Y-96400853D01*
X103412481Y-96493985D01*
X103531015Y-96612519D01*
X103624147Y-96751900D01*
X103688297Y-96906772D01*
X103721000Y-97071184D01*
X103721000Y-97238816D01*
X103688297Y-97403228D01*
X103624147Y-97558100D01*
X103531015Y-97697481D01*
X103412481Y-97816015D01*
X103273100Y-97909147D01*
X103118228Y-97973297D01*
X102953816Y-98006000D01*
X102786184Y-98006000D01*
X102621772Y-97973297D01*
X102466900Y-97909147D01*
X102327519Y-97816015D01*
X102208985Y-97697481D01*
X102115853Y-97558100D01*
X102051703Y-97403228D01*
X102019000Y-97238816D01*
X102019000Y-97071184D01*
X102051703Y-96906772D01*
X102115853Y-96751900D01*
X102208985Y-96612519D01*
X102327519Y-96493985D01*
X102466900Y-96400853D01*
X102621772Y-96336703D01*
X102786184Y-96304000D01*
X102953816Y-96304000D01*
X103118228Y-96336703D01*
X103118228Y-96336703D01*
G37*
G36*
X92876823Y-96316313D02*
G01*
X93037242Y-96364976D01*
X93104361Y-96400852D01*
X93185078Y-96443996D01*
X93314659Y-96550341D01*
X93421004Y-96679922D01*
X93421005Y-96679924D01*
X93500024Y-96827758D01*
X93548687Y-96988177D01*
X93565117Y-97155000D01*
X93548687Y-97321823D01*
X93500024Y-97482242D01*
X93459477Y-97558100D01*
X93421004Y-97630078D01*
X93314659Y-97759659D01*
X93185078Y-97866004D01*
X93185076Y-97866005D01*
X93037242Y-97945024D01*
X92876823Y-97993687D01*
X92751804Y-98006000D01*
X92668196Y-98006000D01*
X92543177Y-97993687D01*
X92382758Y-97945024D01*
X92234924Y-97866005D01*
X92234922Y-97866004D01*
X92105341Y-97759659D01*
X91998996Y-97630078D01*
X91960523Y-97558100D01*
X91919976Y-97482242D01*
X91871313Y-97321823D01*
X91854883Y-97155000D01*
X91871313Y-96988177D01*
X91919976Y-96827758D01*
X91998995Y-96679924D01*
X91998996Y-96679922D01*
X92105341Y-96550341D01*
X92234922Y-96443996D01*
X92315639Y-96400852D01*
X92382758Y-96364976D01*
X92543177Y-96316313D01*
X92668196Y-96304000D01*
X92751804Y-96304000D01*
X92876823Y-96316313D01*
X92876823Y-96316313D01*
G37*
G36*
X88431823Y-94411313D02*
G01*
X88592242Y-94459976D01*
X88724906Y-94530886D01*
X88740078Y-94538996D01*
X88869659Y-94645341D01*
X88976004Y-94774922D01*
X88976005Y-94774924D01*
X89055024Y-94922758D01*
X89103687Y-95083177D01*
X89120117Y-95250000D01*
X89103687Y-95416823D01*
X89055024Y-95577242D01*
X88984114Y-95709906D01*
X88976004Y-95725078D01*
X88869659Y-95854659D01*
X88740078Y-95961004D01*
X88740076Y-95961005D01*
X88592242Y-96040024D01*
X88431823Y-96088687D01*
X88306804Y-96101000D01*
X88223196Y-96101000D01*
X88098177Y-96088687D01*
X87937758Y-96040024D01*
X87789924Y-95961005D01*
X87789922Y-95961004D01*
X87660341Y-95854659D01*
X87553996Y-95725078D01*
X87545886Y-95709906D01*
X87474976Y-95577242D01*
X87426313Y-95416823D01*
X87409883Y-95250000D01*
X87426313Y-95083177D01*
X87474976Y-94922758D01*
X87553995Y-94774924D01*
X87553996Y-94774922D01*
X87660341Y-94645341D01*
X87789922Y-94538996D01*
X87805094Y-94530886D01*
X87937758Y-94459976D01*
X88098177Y-94411313D01*
X88223196Y-94399000D01*
X88306804Y-94399000D01*
X88431823Y-94411313D01*
X88431823Y-94411313D01*
G37*
G36*
X73191823Y-94411313D02*
G01*
X73352242Y-94459976D01*
X73484906Y-94530886D01*
X73500078Y-94538996D01*
X73629659Y-94645341D01*
X73736004Y-94774922D01*
X73736005Y-94774924D01*
X73815024Y-94922758D01*
X73863687Y-95083177D01*
X73880117Y-95250000D01*
X73863687Y-95416823D01*
X73815024Y-95577242D01*
X73744114Y-95709906D01*
X73736004Y-95725078D01*
X73629659Y-95854659D01*
X73500078Y-95961004D01*
X73500076Y-95961005D01*
X73352242Y-96040024D01*
X73191823Y-96088687D01*
X73066804Y-96101000D01*
X72983196Y-96101000D01*
X72858177Y-96088687D01*
X72697758Y-96040024D01*
X72549924Y-95961005D01*
X72549922Y-95961004D01*
X72420341Y-95854659D01*
X72313996Y-95725078D01*
X72305886Y-95709906D01*
X72234976Y-95577242D01*
X72186313Y-95416823D01*
X72169883Y-95250000D01*
X72186313Y-95083177D01*
X72234976Y-94922758D01*
X72313995Y-94774924D01*
X72313996Y-94774922D01*
X72420341Y-94645341D01*
X72549922Y-94538996D01*
X72565094Y-94530886D01*
X72697758Y-94459976D01*
X72858177Y-94411313D01*
X72983196Y-94399000D01*
X73066804Y-94399000D01*
X73191823Y-94411313D01*
X73191823Y-94411313D01*
G37*
G36*
X88431823Y-91871313D02*
G01*
X88592242Y-91919976D01*
X88707033Y-91981333D01*
X88740078Y-91998996D01*
X88869659Y-92105341D01*
X88976004Y-92234922D01*
X88976005Y-92234924D01*
X89055024Y-92382758D01*
X89103687Y-92543177D01*
X89120117Y-92710000D01*
X89103687Y-92876823D01*
X89055024Y-93037242D01*
X88984114Y-93169906D01*
X88976004Y-93185078D01*
X88869659Y-93314659D01*
X88740078Y-93421004D01*
X88740076Y-93421005D01*
X88592242Y-93500024D01*
X88431823Y-93548687D01*
X88306804Y-93561000D01*
X88223196Y-93561000D01*
X88098177Y-93548687D01*
X87937758Y-93500024D01*
X87789924Y-93421005D01*
X87789922Y-93421004D01*
X87660341Y-93314659D01*
X87553996Y-93185078D01*
X87545886Y-93169906D01*
X87474976Y-93037242D01*
X87426313Y-92876823D01*
X87409883Y-92710000D01*
X87426313Y-92543177D01*
X87474976Y-92382758D01*
X87553995Y-92234924D01*
X87553996Y-92234922D01*
X87660341Y-92105341D01*
X87789922Y-91998996D01*
X87822967Y-91981333D01*
X87937758Y-91919976D01*
X88098177Y-91871313D01*
X88223196Y-91859000D01*
X88306804Y-91859000D01*
X88431823Y-91871313D01*
X88431823Y-91871313D01*
G37*
G36*
X73191823Y-91871313D02*
G01*
X73352242Y-91919976D01*
X73467033Y-91981333D01*
X73500078Y-91998996D01*
X73629659Y-92105341D01*
X73736004Y-92234922D01*
X73736005Y-92234924D01*
X73815024Y-92382758D01*
X73863687Y-92543177D01*
X73880117Y-92710000D01*
X73863687Y-92876823D01*
X73815024Y-93037242D01*
X73744114Y-93169906D01*
X73736004Y-93185078D01*
X73629659Y-93314659D01*
X73500078Y-93421004D01*
X73500076Y-93421005D01*
X73352242Y-93500024D01*
X73191823Y-93548687D01*
X73066804Y-93561000D01*
X72983196Y-93561000D01*
X72858177Y-93548687D01*
X72697758Y-93500024D01*
X72549924Y-93421005D01*
X72549922Y-93421004D01*
X72420341Y-93314659D01*
X72313996Y-93185078D01*
X72305886Y-93169906D01*
X72234976Y-93037242D01*
X72186313Y-92876823D01*
X72169883Y-92710000D01*
X72186313Y-92543177D01*
X72234976Y-92382758D01*
X72313995Y-92234924D01*
X72313996Y-92234922D01*
X72420341Y-92105341D01*
X72549922Y-91998996D01*
X72582967Y-91981333D01*
X72697758Y-91919976D01*
X72858177Y-91871313D01*
X72983196Y-91859000D01*
X73066804Y-91859000D01*
X73191823Y-91871313D01*
X73191823Y-91871313D01*
G37*
G36*
X108227395Y-91160546D02*
G01*
X108400466Y-91232234D01*
X108400467Y-91232235D01*
X108556227Y-91336310D01*
X108688690Y-91468773D01*
X108688691Y-91468775D01*
X108792766Y-91624534D01*
X108864454Y-91797605D01*
X108901000Y-91981333D01*
X108901000Y-92168667D01*
X108864454Y-92352395D01*
X108792766Y-92525466D01*
X108792765Y-92525467D01*
X108688690Y-92681227D01*
X108556227Y-92813690D01*
X108477818Y-92866081D01*
X108400466Y-92917766D01*
X108227395Y-92989454D01*
X108043667Y-93026000D01*
X107856333Y-93026000D01*
X107672605Y-92989454D01*
X107499534Y-92917766D01*
X107422182Y-92866081D01*
X107343773Y-92813690D01*
X107211310Y-92681227D01*
X107107235Y-92525467D01*
X107107234Y-92525466D01*
X107035546Y-92352395D01*
X106999000Y-92168667D01*
X106999000Y-91981333D01*
X107035546Y-91797605D01*
X107107234Y-91624534D01*
X107211309Y-91468775D01*
X107211310Y-91468773D01*
X107343773Y-91336310D01*
X107499533Y-91232235D01*
X107499534Y-91232234D01*
X107672605Y-91160546D01*
X107856333Y-91124000D01*
X108043667Y-91124000D01*
X108227395Y-91160546D01*
X108227395Y-91160546D01*
G37*
G36*
X106361000Y-93026000D02*
G01*
X104459000Y-93026000D01*
X104459000Y-91124000D01*
X106361000Y-91124000D01*
X106361000Y-93026000D01*
X106361000Y-93026000D01*
G37*
G36*
X73191823Y-89331313D02*
G01*
X73352242Y-89379976D01*
X73484906Y-89450886D01*
X73500078Y-89458996D01*
X73629659Y-89565341D01*
X73736004Y-89694922D01*
X73736005Y-89694924D01*
X73815024Y-89842758D01*
X73863687Y-90003177D01*
X73880117Y-90170000D01*
X73863687Y-90336823D01*
X73815024Y-90497242D01*
X73744114Y-90629906D01*
X73736004Y-90645078D01*
X73629659Y-90774659D01*
X73500078Y-90881004D01*
X73500076Y-90881005D01*
X73352242Y-90960024D01*
X73191823Y-91008687D01*
X73066804Y-91021000D01*
X72983196Y-91021000D01*
X72858177Y-91008687D01*
X72697758Y-90960024D01*
X72549924Y-90881005D01*
X72549922Y-90881004D01*
X72420341Y-90774659D01*
X72313996Y-90645078D01*
X72305886Y-90629906D01*
X72234976Y-90497242D01*
X72186313Y-90336823D01*
X72169883Y-90170000D01*
X72186313Y-90003177D01*
X72234976Y-89842758D01*
X72313995Y-89694924D01*
X72313996Y-89694922D01*
X72420341Y-89565341D01*
X72549922Y-89458996D01*
X72565094Y-89450886D01*
X72697758Y-89379976D01*
X72858177Y-89331313D01*
X72983196Y-89319000D01*
X73066804Y-89319000D01*
X73191823Y-89331313D01*
X73191823Y-89331313D01*
G37*
G36*
X88431823Y-89331313D02*
G01*
X88592242Y-89379976D01*
X88724906Y-89450886D01*
X88740078Y-89458996D01*
X88869659Y-89565341D01*
X88976004Y-89694922D01*
X88976005Y-89694924D01*
X89055024Y-89842758D01*
X89103687Y-90003177D01*
X89120117Y-90170000D01*
X89103687Y-90336823D01*
X89055024Y-90497242D01*
X88984114Y-90629906D01*
X88976004Y-90645078D01*
X88869659Y-90774659D01*
X88740078Y-90881004D01*
X88740076Y-90881005D01*
X88592242Y-90960024D01*
X88431823Y-91008687D01*
X88306804Y-91021000D01*
X88223196Y-91021000D01*
X88098177Y-91008687D01*
X87937758Y-90960024D01*
X87789924Y-90881005D01*
X87789922Y-90881004D01*
X87660341Y-90774659D01*
X87553996Y-90645078D01*
X87545886Y-90629906D01*
X87474976Y-90497242D01*
X87426313Y-90336823D01*
X87409883Y-90170000D01*
X87426313Y-90003177D01*
X87474976Y-89842758D01*
X87553995Y-89694924D01*
X87553996Y-89694922D01*
X87660341Y-89565341D01*
X87789922Y-89458996D01*
X87805094Y-89450886D01*
X87937758Y-89379976D01*
X88098177Y-89331313D01*
X88223196Y-89319000D01*
X88306804Y-89319000D01*
X88431823Y-89331313D01*
X88431823Y-89331313D01*
G37*
G36*
X73191823Y-86791313D02*
G01*
X73352242Y-86839976D01*
X73484906Y-86910886D01*
X73500078Y-86918996D01*
X73629659Y-87025341D01*
X73736004Y-87154922D01*
X73736005Y-87154924D01*
X73815024Y-87302758D01*
X73863687Y-87463177D01*
X73880117Y-87630000D01*
X73863687Y-87796823D01*
X73815024Y-87957242D01*
X73744114Y-88089906D01*
X73736004Y-88105078D01*
X73629659Y-88234659D01*
X73500078Y-88341004D01*
X73500076Y-88341005D01*
X73352242Y-88420024D01*
X73191823Y-88468687D01*
X73066804Y-88481000D01*
X72983196Y-88481000D01*
X72858177Y-88468687D01*
X72697758Y-88420024D01*
X72549924Y-88341005D01*
X72549922Y-88341004D01*
X72420341Y-88234659D01*
X72313996Y-88105078D01*
X72305886Y-88089906D01*
X72234976Y-87957242D01*
X72186313Y-87796823D01*
X72169883Y-87630000D01*
X72186313Y-87463177D01*
X72234976Y-87302758D01*
X72313995Y-87154924D01*
X72313996Y-87154922D01*
X72420341Y-87025341D01*
X72549922Y-86918996D01*
X72565094Y-86910886D01*
X72697758Y-86839976D01*
X72858177Y-86791313D01*
X72983196Y-86779000D01*
X73066804Y-86779000D01*
X73191823Y-86791313D01*
X73191823Y-86791313D01*
G37*
G36*
X88431823Y-86791313D02*
G01*
X88592242Y-86839976D01*
X88724906Y-86910886D01*
X88740078Y-86918996D01*
X88869659Y-87025341D01*
X88976004Y-87154922D01*
X88976005Y-87154924D01*
X89055024Y-87302758D01*
X89103687Y-87463177D01*
X89120117Y-87630000D01*
X89103687Y-87796823D01*
X89055024Y-87957242D01*
X88984114Y-88089906D01*
X88976004Y-88105078D01*
X88869659Y-88234659D01*
X88740078Y-88341004D01*
X88740076Y-88341005D01*
X88592242Y-88420024D01*
X88431823Y-88468687D01*
X88306804Y-88481000D01*
X88223196Y-88481000D01*
X88098177Y-88468687D01*
X87937758Y-88420024D01*
X87789924Y-88341005D01*
X87789922Y-88341004D01*
X87660341Y-88234659D01*
X87553996Y-88105078D01*
X87545886Y-88089906D01*
X87474976Y-87957242D01*
X87426313Y-87796823D01*
X87409883Y-87630000D01*
X87426313Y-87463177D01*
X87474976Y-87302758D01*
X87553995Y-87154924D01*
X87553996Y-87154922D01*
X87660341Y-87025341D01*
X87789922Y-86918996D01*
X87805094Y-86910886D01*
X87937758Y-86839976D01*
X88098177Y-86791313D01*
X88223196Y-86779000D01*
X88306804Y-86779000D01*
X88431823Y-86791313D01*
X88431823Y-86791313D01*
G37*
G36*
X103118228Y-86176703D02*
G01*
X103273100Y-86240853D01*
X103412481Y-86333985D01*
X103531015Y-86452519D01*
X103624147Y-86591900D01*
X103688297Y-86746772D01*
X103721000Y-86911184D01*
X103721000Y-87078816D01*
X103688297Y-87243228D01*
X103624147Y-87398100D01*
X103531015Y-87537481D01*
X103412481Y-87656015D01*
X103273100Y-87749147D01*
X103118228Y-87813297D01*
X102953816Y-87846000D01*
X102786184Y-87846000D01*
X102621772Y-87813297D01*
X102466900Y-87749147D01*
X102327519Y-87656015D01*
X102208985Y-87537481D01*
X102115853Y-87398100D01*
X102051703Y-87243228D01*
X102019000Y-87078816D01*
X102019000Y-86911184D01*
X102051703Y-86746772D01*
X102115853Y-86591900D01*
X102208985Y-86452519D01*
X102327519Y-86333985D01*
X102466900Y-86240853D01*
X102621772Y-86176703D01*
X102786184Y-86144000D01*
X102953816Y-86144000D01*
X103118228Y-86176703D01*
X103118228Y-86176703D01*
G37*
G36*
X92876823Y-86156313D02*
G01*
X93037242Y-86204976D01*
X93104361Y-86240852D01*
X93185078Y-86283996D01*
X93314659Y-86390341D01*
X93421004Y-86519922D01*
X93421005Y-86519924D01*
X93500024Y-86667758D01*
X93548687Y-86828177D01*
X93565117Y-86995000D01*
X93548687Y-87161823D01*
X93500024Y-87322242D01*
X93459477Y-87398100D01*
X93421004Y-87470078D01*
X93314659Y-87599659D01*
X93185078Y-87706004D01*
X93185076Y-87706005D01*
X93037242Y-87785024D01*
X92876823Y-87833687D01*
X92751804Y-87846000D01*
X92668196Y-87846000D01*
X92543177Y-87833687D01*
X92382758Y-87785024D01*
X92234924Y-87706005D01*
X92234922Y-87706004D01*
X92105341Y-87599659D01*
X91998996Y-87470078D01*
X91960523Y-87398100D01*
X91919976Y-87322242D01*
X91871313Y-87161823D01*
X91854883Y-86995000D01*
X91871313Y-86828177D01*
X91919976Y-86667758D01*
X91998995Y-86519924D01*
X91998996Y-86519922D01*
X92105341Y-86390341D01*
X92234922Y-86283996D01*
X92315639Y-86240852D01*
X92382758Y-86204976D01*
X92543177Y-86156313D01*
X92668196Y-86144000D01*
X92751804Y-86144000D01*
X92876823Y-86156313D01*
X92876823Y-86156313D01*
G37*
G36*
X73191823Y-84251313D02*
G01*
X73352242Y-84299976D01*
X73484906Y-84370886D01*
X73500078Y-84378996D01*
X73629659Y-84485341D01*
X73736004Y-84614922D01*
X73736005Y-84614924D01*
X73815024Y-84762758D01*
X73863687Y-84923177D01*
X73880117Y-85090000D01*
X73863687Y-85256823D01*
X73815024Y-85417242D01*
X73744114Y-85549906D01*
X73736004Y-85565078D01*
X73629659Y-85694659D01*
X73500078Y-85801004D01*
X73500076Y-85801005D01*
X73352242Y-85880024D01*
X73191823Y-85928687D01*
X73066804Y-85941000D01*
X72983196Y-85941000D01*
X72858177Y-85928687D01*
X72697758Y-85880024D01*
X72549924Y-85801005D01*
X72549922Y-85801004D01*
X72420341Y-85694659D01*
X72313996Y-85565078D01*
X72305886Y-85549906D01*
X72234976Y-85417242D01*
X72186313Y-85256823D01*
X72169883Y-85090000D01*
X72186313Y-84923177D01*
X72234976Y-84762758D01*
X72313995Y-84614924D01*
X72313996Y-84614922D01*
X72420341Y-84485341D01*
X72549922Y-84378996D01*
X72565094Y-84370886D01*
X72697758Y-84299976D01*
X72858177Y-84251313D01*
X72983196Y-84239000D01*
X73066804Y-84239000D01*
X73191823Y-84251313D01*
X73191823Y-84251313D01*
G37*
G36*
X88431823Y-84251313D02*
G01*
X88592242Y-84299976D01*
X88724906Y-84370886D01*
X88740078Y-84378996D01*
X88869659Y-84485341D01*
X88976004Y-84614922D01*
X88976005Y-84614924D01*
X89055024Y-84762758D01*
X89103687Y-84923177D01*
X89120117Y-85090000D01*
X89103687Y-85256823D01*
X89055024Y-85417242D01*
X88984114Y-85549906D01*
X88976004Y-85565078D01*
X88869659Y-85694659D01*
X88740078Y-85801004D01*
X88740076Y-85801005D01*
X88592242Y-85880024D01*
X88431823Y-85928687D01*
X88306804Y-85941000D01*
X88223196Y-85941000D01*
X88098177Y-85928687D01*
X87937758Y-85880024D01*
X87789924Y-85801005D01*
X87789922Y-85801004D01*
X87660341Y-85694659D01*
X87553996Y-85565078D01*
X87545886Y-85549906D01*
X87474976Y-85417242D01*
X87426313Y-85256823D01*
X87409883Y-85090000D01*
X87426313Y-84923177D01*
X87474976Y-84762758D01*
X87553995Y-84614924D01*
X87553996Y-84614922D01*
X87660341Y-84485341D01*
X87789922Y-84378996D01*
X87805094Y-84370886D01*
X87937758Y-84299976D01*
X88098177Y-84251313D01*
X88223196Y-84239000D01*
X88306804Y-84239000D01*
X88431823Y-84251313D01*
X88431823Y-84251313D01*
G37*
G36*
X88431823Y-81711313D02*
G01*
X88592242Y-81759976D01*
X88724906Y-81830886D01*
X88740078Y-81838996D01*
X88869659Y-81945341D01*
X88976004Y-82074922D01*
X88976005Y-82074924D01*
X89055024Y-82222758D01*
X89103687Y-82383177D01*
X89120117Y-82550000D01*
X89103687Y-82716823D01*
X89055024Y-82877242D01*
X88984114Y-83009906D01*
X88976004Y-83025078D01*
X88869659Y-83154659D01*
X88740078Y-83261004D01*
X88740076Y-83261005D01*
X88592242Y-83340024D01*
X88431823Y-83388687D01*
X88306804Y-83401000D01*
X88223196Y-83401000D01*
X88098177Y-83388687D01*
X87937758Y-83340024D01*
X87789924Y-83261005D01*
X87789922Y-83261004D01*
X87660341Y-83154659D01*
X87553996Y-83025078D01*
X87545886Y-83009906D01*
X87474976Y-82877242D01*
X87426313Y-82716823D01*
X87409883Y-82550000D01*
X87426313Y-82383177D01*
X87474976Y-82222758D01*
X87553995Y-82074924D01*
X87553996Y-82074922D01*
X87660341Y-81945341D01*
X87789922Y-81838996D01*
X87805094Y-81830886D01*
X87937758Y-81759976D01*
X88098177Y-81711313D01*
X88223196Y-81699000D01*
X88306804Y-81699000D01*
X88431823Y-81711313D01*
X88431823Y-81711313D01*
G37*
G36*
X73191823Y-81711313D02*
G01*
X73352242Y-81759976D01*
X73484906Y-81830886D01*
X73500078Y-81838996D01*
X73629659Y-81945341D01*
X73736004Y-82074922D01*
X73736005Y-82074924D01*
X73815024Y-82222758D01*
X73863687Y-82383177D01*
X73880117Y-82550000D01*
X73863687Y-82716823D01*
X73815024Y-82877242D01*
X73744114Y-83009906D01*
X73736004Y-83025078D01*
X73629659Y-83154659D01*
X73500078Y-83261004D01*
X73500076Y-83261005D01*
X73352242Y-83340024D01*
X73191823Y-83388687D01*
X73066804Y-83401000D01*
X72983196Y-83401000D01*
X72858177Y-83388687D01*
X72697758Y-83340024D01*
X72549924Y-83261005D01*
X72549922Y-83261004D01*
X72420341Y-83154659D01*
X72313996Y-83025078D01*
X72305886Y-83009906D01*
X72234976Y-82877242D01*
X72186313Y-82716823D01*
X72169883Y-82550000D01*
X72186313Y-82383177D01*
X72234976Y-82222758D01*
X72313995Y-82074924D01*
X72313996Y-82074922D01*
X72420341Y-81945341D01*
X72549922Y-81838996D01*
X72565094Y-81830886D01*
X72697758Y-81759976D01*
X72858177Y-81711313D01*
X72983196Y-81699000D01*
X73066804Y-81699000D01*
X73191823Y-81711313D01*
X73191823Y-81711313D01*
G37*
G36*
X108227395Y-80365546D02*
G01*
X108400466Y-80437234D01*
X108472069Y-80485078D01*
X108556227Y-80541310D01*
X108688690Y-80673773D01*
X108720249Y-80721005D01*
X108792766Y-80829534D01*
X108864454Y-81002605D01*
X108901000Y-81186333D01*
X108901000Y-81373667D01*
X108864454Y-81557395D01*
X108792766Y-81730466D01*
X108773048Y-81759976D01*
X108688690Y-81886227D01*
X108556227Y-82018690D01*
X108477818Y-82071081D01*
X108400466Y-82122766D01*
X108227395Y-82194454D01*
X108043667Y-82231000D01*
X107856333Y-82231000D01*
X107672605Y-82194454D01*
X107499534Y-82122766D01*
X107422182Y-82071081D01*
X107343773Y-82018690D01*
X107211310Y-81886227D01*
X107126952Y-81759976D01*
X107107234Y-81730466D01*
X107035546Y-81557395D01*
X106999000Y-81373667D01*
X106999000Y-81186333D01*
X107035546Y-81002605D01*
X107107234Y-80829534D01*
X107179751Y-80721005D01*
X107211310Y-80673773D01*
X107343773Y-80541310D01*
X107427931Y-80485078D01*
X107499534Y-80437234D01*
X107672605Y-80365546D01*
X107856333Y-80329000D01*
X108043667Y-80329000D01*
X108227395Y-80365546D01*
X108227395Y-80365546D01*
G37*
G36*
X106361000Y-82231000D02*
G01*
X104459000Y-82231000D01*
X104459000Y-80329000D01*
X106361000Y-80329000D01*
X106361000Y-82231000D01*
X106361000Y-82231000D01*
G37*
G36*
X88431823Y-79171313D02*
G01*
X88592242Y-79219976D01*
X88724906Y-79290886D01*
X88740078Y-79298996D01*
X88869659Y-79405341D01*
X88976004Y-79534922D01*
X88976005Y-79534924D01*
X89055024Y-79682758D01*
X89103687Y-79843177D01*
X89120117Y-80010000D01*
X89103687Y-80176823D01*
X89055024Y-80337242D01*
X88984114Y-80469906D01*
X88976004Y-80485078D01*
X88869659Y-80614659D01*
X88740078Y-80721004D01*
X88740076Y-80721005D01*
X88592242Y-80800024D01*
X88431823Y-80848687D01*
X88306804Y-80861000D01*
X88223196Y-80861000D01*
X88098177Y-80848687D01*
X87937758Y-80800024D01*
X87789924Y-80721005D01*
X87789922Y-80721004D01*
X87660341Y-80614659D01*
X87553996Y-80485078D01*
X87545886Y-80469906D01*
X87474976Y-80337242D01*
X87426313Y-80176823D01*
X87409883Y-80010000D01*
X87426313Y-79843177D01*
X87474976Y-79682758D01*
X87553995Y-79534924D01*
X87553996Y-79534922D01*
X87660341Y-79405341D01*
X87789922Y-79298996D01*
X87805094Y-79290886D01*
X87937758Y-79219976D01*
X88098177Y-79171313D01*
X88223196Y-79159000D01*
X88306804Y-79159000D01*
X88431823Y-79171313D01*
X88431823Y-79171313D01*
G37*
G36*
X73191823Y-79171313D02*
G01*
X73352242Y-79219976D01*
X73484906Y-79290886D01*
X73500078Y-79298996D01*
X73629659Y-79405341D01*
X73736004Y-79534922D01*
X73736005Y-79534924D01*
X73815024Y-79682758D01*
X73863687Y-79843177D01*
X73880117Y-80010000D01*
X73863687Y-80176823D01*
X73815024Y-80337242D01*
X73744114Y-80469906D01*
X73736004Y-80485078D01*
X73629659Y-80614659D01*
X73500078Y-80721004D01*
X73500076Y-80721005D01*
X73352242Y-80800024D01*
X73191823Y-80848687D01*
X73066804Y-80861000D01*
X72983196Y-80861000D01*
X72858177Y-80848687D01*
X72697758Y-80800024D01*
X72549924Y-80721005D01*
X72549922Y-80721004D01*
X72420341Y-80614659D01*
X72313996Y-80485078D01*
X72305886Y-80469906D01*
X72234976Y-80337242D01*
X72186313Y-80176823D01*
X72169883Y-80010000D01*
X72186313Y-79843177D01*
X72234976Y-79682758D01*
X72313995Y-79534924D01*
X72313996Y-79534922D01*
X72420341Y-79405341D01*
X72549922Y-79298996D01*
X72565094Y-79290886D01*
X72697758Y-79219976D01*
X72858177Y-79171313D01*
X72983196Y-79159000D01*
X73066804Y-79159000D01*
X73191823Y-79171313D01*
X73191823Y-79171313D01*
G37*
G36*
X73191823Y-76631313D02*
G01*
X73352242Y-76679976D01*
X73484906Y-76750886D01*
X73500078Y-76758996D01*
X73629659Y-76865341D01*
X73736004Y-76994922D01*
X73736005Y-76994924D01*
X73815024Y-77142758D01*
X73863687Y-77303177D01*
X73880117Y-77470000D01*
X73863687Y-77636823D01*
X73815024Y-77797242D01*
X73744114Y-77929906D01*
X73736004Y-77945078D01*
X73629659Y-78074659D01*
X73500078Y-78181004D01*
X73500076Y-78181005D01*
X73352242Y-78260024D01*
X73191823Y-78308687D01*
X73066804Y-78321000D01*
X72983196Y-78321000D01*
X72858177Y-78308687D01*
X72697758Y-78260024D01*
X72549924Y-78181005D01*
X72549922Y-78181004D01*
X72420341Y-78074659D01*
X72313996Y-77945078D01*
X72305886Y-77929906D01*
X72234976Y-77797242D01*
X72186313Y-77636823D01*
X72169883Y-77470000D01*
X72186313Y-77303177D01*
X72234976Y-77142758D01*
X72313995Y-76994924D01*
X72313996Y-76994922D01*
X72420341Y-76865341D01*
X72549922Y-76758996D01*
X72565094Y-76750886D01*
X72697758Y-76679976D01*
X72858177Y-76631313D01*
X72983196Y-76619000D01*
X73066804Y-76619000D01*
X73191823Y-76631313D01*
X73191823Y-76631313D01*
G37*
G36*
X88431823Y-76631313D02*
G01*
X88592242Y-76679976D01*
X88724906Y-76750886D01*
X88740078Y-76758996D01*
X88869659Y-76865341D01*
X88976004Y-76994922D01*
X88976005Y-76994924D01*
X89055024Y-77142758D01*
X89103687Y-77303177D01*
X89120117Y-77470000D01*
X89103687Y-77636823D01*
X89055024Y-77797242D01*
X88984114Y-77929906D01*
X88976004Y-77945078D01*
X88869659Y-78074659D01*
X88740078Y-78181004D01*
X88740076Y-78181005D01*
X88592242Y-78260024D01*
X88431823Y-78308687D01*
X88306804Y-78321000D01*
X88223196Y-78321000D01*
X88098177Y-78308687D01*
X87937758Y-78260024D01*
X87789924Y-78181005D01*
X87789922Y-78181004D01*
X87660341Y-78074659D01*
X87553996Y-77945078D01*
X87545886Y-77929906D01*
X87474976Y-77797242D01*
X87426313Y-77636823D01*
X87409883Y-77470000D01*
X87426313Y-77303177D01*
X87474976Y-77142758D01*
X87553995Y-76994924D01*
X87553996Y-76994922D01*
X87660341Y-76865341D01*
X87789922Y-76758996D01*
X87805094Y-76750886D01*
X87937758Y-76679976D01*
X88098177Y-76631313D01*
X88223196Y-76619000D01*
X88306804Y-76619000D01*
X88431823Y-76631313D01*
X88431823Y-76631313D01*
G37*
G36*
X92876823Y-75361313D02*
G01*
X93037242Y-75409976D01*
X93104361Y-75445852D01*
X93185078Y-75488996D01*
X93314659Y-75595341D01*
X93421004Y-75724922D01*
X93421005Y-75724924D01*
X93500024Y-75872758D01*
X93548687Y-76033177D01*
X93565117Y-76200000D01*
X93548687Y-76366823D01*
X93500024Y-76527242D01*
X93459477Y-76603100D01*
X93421004Y-76675078D01*
X93314659Y-76804659D01*
X93185078Y-76911004D01*
X93185076Y-76911005D01*
X93037242Y-76990024D01*
X92876823Y-77038687D01*
X92751804Y-77051000D01*
X92668196Y-77051000D01*
X92543177Y-77038687D01*
X92382758Y-76990024D01*
X92234924Y-76911005D01*
X92234922Y-76911004D01*
X92105341Y-76804659D01*
X91998996Y-76675078D01*
X91960523Y-76603100D01*
X91919976Y-76527242D01*
X91871313Y-76366823D01*
X91854883Y-76200000D01*
X91871313Y-76033177D01*
X91919976Y-75872758D01*
X91998995Y-75724924D01*
X91998996Y-75724922D01*
X92105341Y-75595341D01*
X92234922Y-75488996D01*
X92315639Y-75445852D01*
X92382758Y-75409976D01*
X92543177Y-75361313D01*
X92668196Y-75349000D01*
X92751804Y-75349000D01*
X92876823Y-75361313D01*
X92876823Y-75361313D01*
G37*
G36*
X103118228Y-75381703D02*
G01*
X103273100Y-75445853D01*
X103412481Y-75538985D01*
X103531015Y-75657519D01*
X103624147Y-75796900D01*
X103688297Y-75951772D01*
X103721000Y-76116184D01*
X103721000Y-76283816D01*
X103688297Y-76448228D01*
X103624147Y-76603100D01*
X103531015Y-76742481D01*
X103412481Y-76861015D01*
X103273100Y-76954147D01*
X103118228Y-77018297D01*
X102953816Y-77051000D01*
X102786184Y-77051000D01*
X102621772Y-77018297D01*
X102466900Y-76954147D01*
X102327519Y-76861015D01*
X102208985Y-76742481D01*
X102115853Y-76603100D01*
X102051703Y-76448228D01*
X102019000Y-76283816D01*
X102019000Y-76116184D01*
X102051703Y-75951772D01*
X102115853Y-75796900D01*
X102208985Y-75657519D01*
X102327519Y-75538985D01*
X102466900Y-75445853D01*
X102621772Y-75381703D01*
X102786184Y-75349000D01*
X102953816Y-75349000D01*
X103118228Y-75381703D01*
X103118228Y-75381703D01*
G37*
G36*
X73191823Y-74091313D02*
G01*
X73352242Y-74139976D01*
X73484906Y-74210886D01*
X73500078Y-74218996D01*
X73629659Y-74325341D01*
X73736004Y-74454922D01*
X73736005Y-74454924D01*
X73815024Y-74602758D01*
X73863687Y-74763177D01*
X73880117Y-74930000D01*
X73863687Y-75096823D01*
X73815024Y-75257242D01*
X73765978Y-75349000D01*
X73736004Y-75405078D01*
X73629659Y-75534659D01*
X73500078Y-75641004D01*
X73500076Y-75641005D01*
X73352242Y-75720024D01*
X73191823Y-75768687D01*
X73066804Y-75781000D01*
X72983196Y-75781000D01*
X72858177Y-75768687D01*
X72697758Y-75720024D01*
X72549924Y-75641005D01*
X72549922Y-75641004D01*
X72420341Y-75534659D01*
X72313996Y-75405078D01*
X72284022Y-75349000D01*
X72234976Y-75257242D01*
X72186313Y-75096823D01*
X72169883Y-74930000D01*
X72186313Y-74763177D01*
X72234976Y-74602758D01*
X72313995Y-74454924D01*
X72313996Y-74454922D01*
X72420341Y-74325341D01*
X72549922Y-74218996D01*
X72565094Y-74210886D01*
X72697758Y-74139976D01*
X72858177Y-74091313D01*
X72983196Y-74079000D01*
X73066804Y-74079000D01*
X73191823Y-74091313D01*
X73191823Y-74091313D01*
G37*
G36*
X88431823Y-74091313D02*
G01*
X88592242Y-74139976D01*
X88724906Y-74210886D01*
X88740078Y-74218996D01*
X88869659Y-74325341D01*
X88976004Y-74454922D01*
X88976005Y-74454924D01*
X89055024Y-74602758D01*
X89103687Y-74763177D01*
X89120117Y-74930000D01*
X89103687Y-75096823D01*
X89055024Y-75257242D01*
X89005978Y-75349000D01*
X88976004Y-75405078D01*
X88869659Y-75534659D01*
X88740078Y-75641004D01*
X88740076Y-75641005D01*
X88592242Y-75720024D01*
X88431823Y-75768687D01*
X88306804Y-75781000D01*
X88223196Y-75781000D01*
X88098177Y-75768687D01*
X87937758Y-75720024D01*
X87789924Y-75641005D01*
X87789922Y-75641004D01*
X87660341Y-75534659D01*
X87553996Y-75405078D01*
X87524022Y-75349000D01*
X87474976Y-75257242D01*
X87426313Y-75096823D01*
X87409883Y-74930000D01*
X87426313Y-74763177D01*
X87474976Y-74602758D01*
X87553995Y-74454924D01*
X87553996Y-74454922D01*
X87660341Y-74325341D01*
X87789922Y-74218996D01*
X87805094Y-74210886D01*
X87937758Y-74139976D01*
X88098177Y-74091313D01*
X88223196Y-74079000D01*
X88306804Y-74079000D01*
X88431823Y-74091313D01*
X88431823Y-74091313D01*
G37*
G36*
X73191823Y-71551313D02*
G01*
X73352242Y-71599976D01*
X73484906Y-71670886D01*
X73500078Y-71678996D01*
X73629659Y-71785341D01*
X73736004Y-71914922D01*
X73736005Y-71914924D01*
X73815024Y-72062758D01*
X73863687Y-72223177D01*
X73880117Y-72390000D01*
X73863687Y-72556823D01*
X73815024Y-72717242D01*
X73744114Y-72849906D01*
X73736004Y-72865078D01*
X73629659Y-72994659D01*
X73500078Y-73101004D01*
X73500076Y-73101005D01*
X73352242Y-73180024D01*
X73191823Y-73228687D01*
X73066804Y-73241000D01*
X72983196Y-73241000D01*
X72858177Y-73228687D01*
X72697758Y-73180024D01*
X72549924Y-73101005D01*
X72549922Y-73101004D01*
X72420341Y-72994659D01*
X72313996Y-72865078D01*
X72305886Y-72849906D01*
X72234976Y-72717242D01*
X72186313Y-72556823D01*
X72169883Y-72390000D01*
X72186313Y-72223177D01*
X72234976Y-72062758D01*
X72313995Y-71914924D01*
X72313996Y-71914922D01*
X72420341Y-71785341D01*
X72549922Y-71678996D01*
X72565094Y-71670886D01*
X72697758Y-71599976D01*
X72858177Y-71551313D01*
X72983196Y-71539000D01*
X73066804Y-71539000D01*
X73191823Y-71551313D01*
X73191823Y-71551313D01*
G37*
G36*
X88431823Y-71551313D02*
G01*
X88592242Y-71599976D01*
X88724906Y-71670886D01*
X88740078Y-71678996D01*
X88869659Y-71785341D01*
X88976004Y-71914922D01*
X88976005Y-71914924D01*
X89055024Y-72062758D01*
X89103687Y-72223177D01*
X89120117Y-72390000D01*
X89103687Y-72556823D01*
X89055024Y-72717242D01*
X88984114Y-72849906D01*
X88976004Y-72865078D01*
X88869659Y-72994659D01*
X88740078Y-73101004D01*
X88740076Y-73101005D01*
X88592242Y-73180024D01*
X88431823Y-73228687D01*
X88306804Y-73241000D01*
X88223196Y-73241000D01*
X88098177Y-73228687D01*
X87937758Y-73180024D01*
X87789924Y-73101005D01*
X87789922Y-73101004D01*
X87660341Y-72994659D01*
X87553996Y-72865078D01*
X87545886Y-72849906D01*
X87474976Y-72717242D01*
X87426313Y-72556823D01*
X87409883Y-72390000D01*
X87426313Y-72223177D01*
X87474976Y-72062758D01*
X87553995Y-71914924D01*
X87553996Y-71914922D01*
X87660341Y-71785341D01*
X87789922Y-71678996D01*
X87805094Y-71670886D01*
X87937758Y-71599976D01*
X88098177Y-71551313D01*
X88223196Y-71539000D01*
X88306804Y-71539000D01*
X88431823Y-71551313D01*
X88431823Y-71551313D01*
G37*
G36*
X108227395Y-69570546D02*
G01*
X108400466Y-69642234D01*
X108400467Y-69642235D01*
X108556227Y-69746310D01*
X108688690Y-69878773D01*
X108688691Y-69878775D01*
X108792766Y-70034534D01*
X108864454Y-70207605D01*
X108901000Y-70391333D01*
X108901000Y-70578667D01*
X108864454Y-70762395D01*
X108792766Y-70935466D01*
X108792765Y-70935467D01*
X108688690Y-71091227D01*
X108556227Y-71223690D01*
X108477818Y-71276081D01*
X108400466Y-71327766D01*
X108227395Y-71399454D01*
X108043667Y-71436000D01*
X107856333Y-71436000D01*
X107672605Y-71399454D01*
X107499534Y-71327766D01*
X107422182Y-71276081D01*
X107343773Y-71223690D01*
X107211310Y-71091227D01*
X107107235Y-70935467D01*
X107107234Y-70935466D01*
X107035546Y-70762395D01*
X106999000Y-70578667D01*
X106999000Y-70391333D01*
X107035546Y-70207605D01*
X107107234Y-70034534D01*
X107211309Y-69878775D01*
X107211310Y-69878773D01*
X107343773Y-69746310D01*
X107499533Y-69642235D01*
X107499534Y-69642234D01*
X107672605Y-69570546D01*
X107856333Y-69534000D01*
X108043667Y-69534000D01*
X108227395Y-69570546D01*
X108227395Y-69570546D01*
G37*
G36*
X106361000Y-71436000D02*
G01*
X104459000Y-71436000D01*
X104459000Y-69534000D01*
X106361000Y-69534000D01*
X106361000Y-71436000D01*
X106361000Y-71436000D01*
G37*
G36*
X73191823Y-69011313D02*
G01*
X73352242Y-69059976D01*
X73484906Y-69130886D01*
X73500078Y-69138996D01*
X73629659Y-69245341D01*
X73736004Y-69374922D01*
X73736005Y-69374924D01*
X73815024Y-69522758D01*
X73863687Y-69683177D01*
X73880117Y-69850000D01*
X73863687Y-70016823D01*
X73815024Y-70177242D01*
X73744114Y-70309906D01*
X73736004Y-70325078D01*
X73629659Y-70454659D01*
X73500078Y-70561004D01*
X73500076Y-70561005D01*
X73352242Y-70640024D01*
X73191823Y-70688687D01*
X73066804Y-70701000D01*
X72983196Y-70701000D01*
X72858177Y-70688687D01*
X72697758Y-70640024D01*
X72549924Y-70561005D01*
X72549922Y-70561004D01*
X72420341Y-70454659D01*
X72313996Y-70325078D01*
X72305886Y-70309906D01*
X72234976Y-70177242D01*
X72186313Y-70016823D01*
X72169883Y-69850000D01*
X72186313Y-69683177D01*
X72234976Y-69522758D01*
X72313995Y-69374924D01*
X72313996Y-69374922D01*
X72420341Y-69245341D01*
X72549922Y-69138996D01*
X72565094Y-69130886D01*
X72697758Y-69059976D01*
X72858177Y-69011313D01*
X72983196Y-68999000D01*
X73066804Y-68999000D01*
X73191823Y-69011313D01*
X73191823Y-69011313D01*
G37*
G36*
X88431823Y-69011313D02*
G01*
X88592242Y-69059976D01*
X88724906Y-69130886D01*
X88740078Y-69138996D01*
X88869659Y-69245341D01*
X88976004Y-69374922D01*
X88976005Y-69374924D01*
X89055024Y-69522758D01*
X89103687Y-69683177D01*
X89120117Y-69850000D01*
X89103687Y-70016823D01*
X89055024Y-70177242D01*
X88984114Y-70309906D01*
X88976004Y-70325078D01*
X88869659Y-70454659D01*
X88740078Y-70561004D01*
X88740076Y-70561005D01*
X88592242Y-70640024D01*
X88431823Y-70688687D01*
X88306804Y-70701000D01*
X88223196Y-70701000D01*
X88098177Y-70688687D01*
X87937758Y-70640024D01*
X87789924Y-70561005D01*
X87789922Y-70561004D01*
X87660341Y-70454659D01*
X87553996Y-70325078D01*
X87545886Y-70309906D01*
X87474976Y-70177242D01*
X87426313Y-70016823D01*
X87409883Y-69850000D01*
X87426313Y-69683177D01*
X87474976Y-69522758D01*
X87553995Y-69374924D01*
X87553996Y-69374922D01*
X87660341Y-69245341D01*
X87789922Y-69138996D01*
X87805094Y-69130886D01*
X87937758Y-69059976D01*
X88098177Y-69011313D01*
X88223196Y-68999000D01*
X88306804Y-68999000D01*
X88431823Y-69011313D01*
X88431823Y-69011313D01*
G37*
G36*
X73876000Y-68161000D02*
G01*
X72174000Y-68161000D01*
X72174000Y-66459000D01*
X73876000Y-66459000D01*
X73876000Y-68161000D01*
X73876000Y-68161000D01*
G37*
G36*
X88431823Y-66471313D02*
G01*
X88592242Y-66519976D01*
X88724906Y-66590886D01*
X88740078Y-66598996D01*
X88869659Y-66705341D01*
X88976004Y-66834922D01*
X88976005Y-66834924D01*
X89055024Y-66982758D01*
X89103687Y-67143177D01*
X89120117Y-67310000D01*
X89103687Y-67476823D01*
X89055024Y-67637242D01*
X88984114Y-67769906D01*
X88976004Y-67785078D01*
X88869659Y-67914659D01*
X88740078Y-68021004D01*
X88740076Y-68021005D01*
X88592242Y-68100024D01*
X88431823Y-68148687D01*
X88306804Y-68161000D01*
X88223196Y-68161000D01*
X88098177Y-68148687D01*
X87937758Y-68100024D01*
X87789924Y-68021005D01*
X87789922Y-68021004D01*
X87660341Y-67914659D01*
X87553996Y-67785078D01*
X87545886Y-67769906D01*
X87474976Y-67637242D01*
X87426313Y-67476823D01*
X87409883Y-67310000D01*
X87426313Y-67143177D01*
X87474976Y-66982758D01*
X87553995Y-66834924D01*
X87553996Y-66834922D01*
X87660341Y-66705341D01*
X87789922Y-66598996D01*
X87805094Y-66590886D01*
X87937758Y-66519976D01*
X88098177Y-66471313D01*
X88223196Y-66459000D01*
X88306804Y-66459000D01*
X88431823Y-66471313D01*
X88431823Y-66471313D01*
G37*
G36*
X175508228Y-61411703D02*
G01*
X175663100Y-61475853D01*
X175802481Y-61568985D01*
X175921015Y-61687519D01*
X176014147Y-61826900D01*
X176078297Y-61981772D01*
X176111000Y-62146184D01*
X176111000Y-62313816D01*
X176078297Y-62478228D01*
X176014147Y-62633100D01*
X175921015Y-62772481D01*
X175802481Y-62891015D01*
X175663100Y-62984147D01*
X175508228Y-63048297D01*
X175343816Y-63081000D01*
X175176184Y-63081000D01*
X175011772Y-63048297D01*
X174856900Y-62984147D01*
X174717519Y-62891015D01*
X174598985Y-62772481D01*
X174505853Y-62633100D01*
X174441703Y-62478228D01*
X174409000Y-62313816D01*
X174409000Y-62146184D01*
X174441703Y-61981772D01*
X174505853Y-61826900D01*
X174598985Y-61687519D01*
X174717519Y-61568985D01*
X174856900Y-61475853D01*
X175011772Y-61411703D01*
X175176184Y-61379000D01*
X175343816Y-61379000D01*
X175508228Y-61411703D01*
X175508228Y-61411703D01*
G37*
G36*
X125978228Y-61411703D02*
G01*
X126133100Y-61475853D01*
X126272481Y-61568985D01*
X126391015Y-61687519D01*
X126484147Y-61826900D01*
X126548297Y-61981772D01*
X126581000Y-62146184D01*
X126581000Y-62313816D01*
X126548297Y-62478228D01*
X126484147Y-62633100D01*
X126391015Y-62772481D01*
X126272481Y-62891015D01*
X126133100Y-62984147D01*
X125978228Y-63048297D01*
X125813816Y-63081000D01*
X125646184Y-63081000D01*
X125481772Y-63048297D01*
X125326900Y-62984147D01*
X125187519Y-62891015D01*
X125068985Y-62772481D01*
X124975853Y-62633100D01*
X124911703Y-62478228D01*
X124879000Y-62313816D01*
X124879000Y-62146184D01*
X124911703Y-61981772D01*
X124975853Y-61826900D01*
X125068985Y-61687519D01*
X125187519Y-61568985D01*
X125326900Y-61475853D01*
X125481772Y-61411703D01*
X125646184Y-61379000D01*
X125813816Y-61379000D01*
X125978228Y-61411703D01*
X125978228Y-61411703D01*
G37*
G36*
X142488228Y-61411703D02*
G01*
X142643100Y-61475853D01*
X142782481Y-61568985D01*
X142901015Y-61687519D01*
X142994147Y-61826900D01*
X143058297Y-61981772D01*
X143091000Y-62146184D01*
X143091000Y-62313816D01*
X143058297Y-62478228D01*
X142994147Y-62633100D01*
X142901015Y-62772481D01*
X142782481Y-62891015D01*
X142643100Y-62984147D01*
X142488228Y-63048297D01*
X142323816Y-63081000D01*
X142156184Y-63081000D01*
X141991772Y-63048297D01*
X141836900Y-62984147D01*
X141697519Y-62891015D01*
X141578985Y-62772481D01*
X141485853Y-62633100D01*
X141421703Y-62478228D01*
X141389000Y-62313816D01*
X141389000Y-62146184D01*
X141421703Y-61981772D01*
X141485853Y-61826900D01*
X141578985Y-61687519D01*
X141697519Y-61568985D01*
X141836900Y-61475853D01*
X141991772Y-61411703D01*
X142156184Y-61379000D01*
X142323816Y-61379000D01*
X142488228Y-61411703D01*
X142488228Y-61411703D01*
G37*
G36*
X158998228Y-61411703D02*
G01*
X159153100Y-61475853D01*
X159292481Y-61568985D01*
X159411015Y-61687519D01*
X159504147Y-61826900D01*
X159568297Y-61981772D01*
X159601000Y-62146184D01*
X159601000Y-62313816D01*
X159568297Y-62478228D01*
X159504147Y-62633100D01*
X159411015Y-62772481D01*
X159292481Y-62891015D01*
X159153100Y-62984147D01*
X158998228Y-63048297D01*
X158833816Y-63081000D01*
X158666184Y-63081000D01*
X158501772Y-63048297D01*
X158346900Y-62984147D01*
X158207519Y-62891015D01*
X158088985Y-62772481D01*
X157995853Y-62633100D01*
X157931703Y-62478228D01*
X157899000Y-62313816D01*
X157899000Y-62146184D01*
X157931703Y-61981772D01*
X157995853Y-61826900D01*
X158088985Y-61687519D01*
X158207519Y-61568985D01*
X158346900Y-61475853D01*
X158501772Y-61411703D01*
X158666184Y-61379000D01*
X158833816Y-61379000D01*
X158998228Y-61411703D01*
X158998228Y-61411703D01*
G37*
G36*
X192018228Y-61411703D02*
G01*
X192173100Y-61475853D01*
X192312481Y-61568985D01*
X192431015Y-61687519D01*
X192524147Y-61826900D01*
X192588297Y-61981772D01*
X192621000Y-62146184D01*
X192621000Y-62313816D01*
X192588297Y-62478228D01*
X192524147Y-62633100D01*
X192431015Y-62772481D01*
X192312481Y-62891015D01*
X192173100Y-62984147D01*
X192018228Y-63048297D01*
X191853816Y-63081000D01*
X191686184Y-63081000D01*
X191521772Y-63048297D01*
X191366900Y-62984147D01*
X191227519Y-62891015D01*
X191108985Y-62772481D01*
X191015853Y-62633100D01*
X190951703Y-62478228D01*
X190919000Y-62313816D01*
X190919000Y-62146184D01*
X190951703Y-61981772D01*
X191015853Y-61826900D01*
X191108985Y-61687519D01*
X191227519Y-61568985D01*
X191366900Y-61475853D01*
X191521772Y-61411703D01*
X191686184Y-61379000D01*
X191853816Y-61379000D01*
X192018228Y-61411703D01*
X192018228Y-61411703D01*
G37*
G36*
X109468228Y-61411703D02*
G01*
X109623100Y-61475853D01*
X109762481Y-61568985D01*
X109881015Y-61687519D01*
X109974147Y-61826900D01*
X110038297Y-61981772D01*
X110071000Y-62146184D01*
X110071000Y-62313816D01*
X110038297Y-62478228D01*
X109974147Y-62633100D01*
X109881015Y-62772481D01*
X109762481Y-62891015D01*
X109623100Y-62984147D01*
X109468228Y-63048297D01*
X109303816Y-63081000D01*
X109136184Y-63081000D01*
X108971772Y-63048297D01*
X108816900Y-62984147D01*
X108677519Y-62891015D01*
X108558985Y-62772481D01*
X108465853Y-62633100D01*
X108401703Y-62478228D01*
X108369000Y-62313816D01*
X108369000Y-62146184D01*
X108401703Y-61981772D01*
X108465853Y-61826900D01*
X108558985Y-61687519D01*
X108677519Y-61568985D01*
X108816900Y-61475853D01*
X108971772Y-61411703D01*
X109136184Y-61379000D01*
X109303816Y-61379000D01*
X109468228Y-61411703D01*
X109468228Y-61411703D01*
G37*
G36*
X85176367Y-59210696D02*
G01*
X85333461Y-59258350D01*
X85478232Y-59335732D01*
X85605129Y-59439873D01*
X85709270Y-59566770D01*
X85786652Y-59711541D01*
X85834306Y-59868635D01*
X85851001Y-60038141D01*
X85851001Y-61951861D01*
X85834306Y-62121367D01*
X85786652Y-62278461D01*
X85709270Y-62423232D01*
X85605129Y-62550129D01*
X85478232Y-62654270D01*
X85333461Y-62731652D01*
X85176367Y-62779306D01*
X85006861Y-62796001D01*
X83093141Y-62796001D01*
X82923635Y-62779306D01*
X82766541Y-62731652D01*
X82621770Y-62654270D01*
X82494873Y-62550129D01*
X82390732Y-62423232D01*
X82313350Y-62278461D01*
X82265696Y-62121367D01*
X82249001Y-61951861D01*
X82249001Y-60038141D01*
X82265696Y-59868635D01*
X82313350Y-59711541D01*
X82390732Y-59566770D01*
X82494873Y-59439873D01*
X82621770Y-59335732D01*
X82766541Y-59258350D01*
X82923635Y-59210696D01*
X83093141Y-59194001D01*
X85006861Y-59194001D01*
X85176367Y-59210696D01*
X85176367Y-59210696D01*
G37*
G36*
X170636564Y-60639389D02*
G01*
X170827833Y-60718615D01*
X170827835Y-60718616D01*
X170999973Y-60833635D01*
X171146365Y-60980027D01*
X171261385Y-61152167D01*
X171340611Y-61343436D01*
X171381000Y-61546484D01*
X171381000Y-61753516D01*
X171340611Y-61956564D01*
X171261385Y-62147833D01*
X171261384Y-62147835D01*
X171146365Y-62319973D01*
X170999973Y-62466365D01*
X170827835Y-62581384D01*
X170827834Y-62581385D01*
X170827833Y-62581385D01*
X170636564Y-62660611D01*
X170433516Y-62701000D01*
X170226484Y-62701000D01*
X170023436Y-62660611D01*
X169832167Y-62581385D01*
X169832166Y-62581385D01*
X169832165Y-62581384D01*
X169660027Y-62466365D01*
X169513635Y-62319973D01*
X169398616Y-62147835D01*
X169398615Y-62147833D01*
X169319389Y-61956564D01*
X169279000Y-61753516D01*
X169279000Y-61546484D01*
X169319389Y-61343436D01*
X169398615Y-61152167D01*
X169513635Y-60980027D01*
X169660027Y-60833635D01*
X169832165Y-60718616D01*
X169832167Y-60718615D01*
X170023436Y-60639389D01*
X170226484Y-60599000D01*
X170433516Y-60599000D01*
X170636564Y-60639389D01*
X170636564Y-60639389D01*
G37*
G36*
X121106564Y-60639389D02*
G01*
X121297833Y-60718615D01*
X121297835Y-60718616D01*
X121469973Y-60833635D01*
X121616365Y-60980027D01*
X121731385Y-61152167D01*
X121810611Y-61343436D01*
X121851000Y-61546484D01*
X121851000Y-61753516D01*
X121810611Y-61956564D01*
X121731385Y-62147833D01*
X121731384Y-62147835D01*
X121616365Y-62319973D01*
X121469973Y-62466365D01*
X121297835Y-62581384D01*
X121297834Y-62581385D01*
X121297833Y-62581385D01*
X121106564Y-62660611D01*
X120903516Y-62701000D01*
X120696484Y-62701000D01*
X120493436Y-62660611D01*
X120302167Y-62581385D01*
X120302166Y-62581385D01*
X120302165Y-62581384D01*
X120130027Y-62466365D01*
X119983635Y-62319973D01*
X119868616Y-62147835D01*
X119868615Y-62147833D01*
X119789389Y-61956564D01*
X119749000Y-61753516D01*
X119749000Y-61546484D01*
X119789389Y-61343436D01*
X119868615Y-61152167D01*
X119983635Y-60980027D01*
X120130027Y-60833635D01*
X120302165Y-60718616D01*
X120302167Y-60718615D01*
X120493436Y-60639389D01*
X120696484Y-60599000D01*
X120903516Y-60599000D01*
X121106564Y-60639389D01*
X121106564Y-60639389D01*
G37*
G36*
X114606564Y-60639389D02*
G01*
X114797833Y-60718615D01*
X114797835Y-60718616D01*
X114969973Y-60833635D01*
X115116365Y-60980027D01*
X115231385Y-61152167D01*
X115310611Y-61343436D01*
X115351000Y-61546484D01*
X115351000Y-61753516D01*
X115310611Y-61956564D01*
X115231385Y-62147833D01*
X115231384Y-62147835D01*
X115116365Y-62319973D01*
X114969973Y-62466365D01*
X114797835Y-62581384D01*
X114797834Y-62581385D01*
X114797833Y-62581385D01*
X114606564Y-62660611D01*
X114403516Y-62701000D01*
X114196484Y-62701000D01*
X113993436Y-62660611D01*
X113802167Y-62581385D01*
X113802166Y-62581385D01*
X113802165Y-62581384D01*
X113630027Y-62466365D01*
X113483635Y-62319973D01*
X113368616Y-62147835D01*
X113368615Y-62147833D01*
X113289389Y-61956564D01*
X113249000Y-61753516D01*
X113249000Y-61546484D01*
X113289389Y-61343436D01*
X113368615Y-61152167D01*
X113483635Y-60980027D01*
X113630027Y-60833635D01*
X113802165Y-60718616D01*
X113802167Y-60718615D01*
X113993436Y-60639389D01*
X114196484Y-60599000D01*
X114403516Y-60599000D01*
X114606564Y-60639389D01*
X114606564Y-60639389D01*
G37*
G36*
X131116564Y-60639389D02*
G01*
X131307833Y-60718615D01*
X131307835Y-60718616D01*
X131479973Y-60833635D01*
X131626365Y-60980027D01*
X131741385Y-61152167D01*
X131820611Y-61343436D01*
X131861000Y-61546484D01*
X131861000Y-61753516D01*
X131820611Y-61956564D01*
X131741385Y-62147833D01*
X131741384Y-62147835D01*
X131626365Y-62319973D01*
X131479973Y-62466365D01*
X131307835Y-62581384D01*
X131307834Y-62581385D01*
X131307833Y-62581385D01*
X131116564Y-62660611D01*
X130913516Y-62701000D01*
X130706484Y-62701000D01*
X130503436Y-62660611D01*
X130312167Y-62581385D01*
X130312166Y-62581385D01*
X130312165Y-62581384D01*
X130140027Y-62466365D01*
X129993635Y-62319973D01*
X129878616Y-62147835D01*
X129878615Y-62147833D01*
X129799389Y-61956564D01*
X129759000Y-61753516D01*
X129759000Y-61546484D01*
X129799389Y-61343436D01*
X129878615Y-61152167D01*
X129993635Y-60980027D01*
X130140027Y-60833635D01*
X130312165Y-60718616D01*
X130312167Y-60718615D01*
X130503436Y-60639389D01*
X130706484Y-60599000D01*
X130913516Y-60599000D01*
X131116564Y-60639389D01*
X131116564Y-60639389D01*
G37*
G36*
X137616564Y-60639389D02*
G01*
X137807833Y-60718615D01*
X137807835Y-60718616D01*
X137979973Y-60833635D01*
X138126365Y-60980027D01*
X138241385Y-61152167D01*
X138320611Y-61343436D01*
X138361000Y-61546484D01*
X138361000Y-61753516D01*
X138320611Y-61956564D01*
X138241385Y-62147833D01*
X138241384Y-62147835D01*
X138126365Y-62319973D01*
X137979973Y-62466365D01*
X137807835Y-62581384D01*
X137807834Y-62581385D01*
X137807833Y-62581385D01*
X137616564Y-62660611D01*
X137413516Y-62701000D01*
X137206484Y-62701000D01*
X137003436Y-62660611D01*
X136812167Y-62581385D01*
X136812166Y-62581385D01*
X136812165Y-62581384D01*
X136640027Y-62466365D01*
X136493635Y-62319973D01*
X136378616Y-62147835D01*
X136378615Y-62147833D01*
X136299389Y-61956564D01*
X136259000Y-61753516D01*
X136259000Y-61546484D01*
X136299389Y-61343436D01*
X136378615Y-61152167D01*
X136493635Y-60980027D01*
X136640027Y-60833635D01*
X136812165Y-60718616D01*
X136812167Y-60718615D01*
X137003436Y-60639389D01*
X137206484Y-60599000D01*
X137413516Y-60599000D01*
X137616564Y-60639389D01*
X137616564Y-60639389D01*
G37*
G36*
X154126564Y-60639389D02*
G01*
X154317833Y-60718615D01*
X154317835Y-60718616D01*
X154489973Y-60833635D01*
X154636365Y-60980027D01*
X154751385Y-61152167D01*
X154830611Y-61343436D01*
X154871000Y-61546484D01*
X154871000Y-61753516D01*
X154830611Y-61956564D01*
X154751385Y-62147833D01*
X154751384Y-62147835D01*
X154636365Y-62319973D01*
X154489973Y-62466365D01*
X154317835Y-62581384D01*
X154317834Y-62581385D01*
X154317833Y-62581385D01*
X154126564Y-62660611D01*
X153923516Y-62701000D01*
X153716484Y-62701000D01*
X153513436Y-62660611D01*
X153322167Y-62581385D01*
X153322166Y-62581385D01*
X153322165Y-62581384D01*
X153150027Y-62466365D01*
X153003635Y-62319973D01*
X152888616Y-62147835D01*
X152888615Y-62147833D01*
X152809389Y-61956564D01*
X152769000Y-61753516D01*
X152769000Y-61546484D01*
X152809389Y-61343436D01*
X152888615Y-61152167D01*
X153003635Y-60980027D01*
X153150027Y-60833635D01*
X153322165Y-60718616D01*
X153322167Y-60718615D01*
X153513436Y-60639389D01*
X153716484Y-60599000D01*
X153923516Y-60599000D01*
X154126564Y-60639389D01*
X154126564Y-60639389D01*
G37*
G36*
X147626564Y-60639389D02*
G01*
X147817833Y-60718615D01*
X147817835Y-60718616D01*
X147989973Y-60833635D01*
X148136365Y-60980027D01*
X148251385Y-61152167D01*
X148330611Y-61343436D01*
X148371000Y-61546484D01*
X148371000Y-61753516D01*
X148330611Y-61956564D01*
X148251385Y-62147833D01*
X148251384Y-62147835D01*
X148136365Y-62319973D01*
X147989973Y-62466365D01*
X147817835Y-62581384D01*
X147817834Y-62581385D01*
X147817833Y-62581385D01*
X147626564Y-62660611D01*
X147423516Y-62701000D01*
X147216484Y-62701000D01*
X147013436Y-62660611D01*
X146822167Y-62581385D01*
X146822166Y-62581385D01*
X146822165Y-62581384D01*
X146650027Y-62466365D01*
X146503635Y-62319973D01*
X146388616Y-62147835D01*
X146388615Y-62147833D01*
X146309389Y-61956564D01*
X146269000Y-61753516D01*
X146269000Y-61546484D01*
X146309389Y-61343436D01*
X146388615Y-61152167D01*
X146503635Y-60980027D01*
X146650027Y-60833635D01*
X146822165Y-60718616D01*
X146822167Y-60718615D01*
X147013436Y-60639389D01*
X147216484Y-60599000D01*
X147423516Y-60599000D01*
X147626564Y-60639389D01*
X147626564Y-60639389D01*
G37*
G36*
X164136564Y-60639389D02*
G01*
X164327833Y-60718615D01*
X164327835Y-60718616D01*
X164499973Y-60833635D01*
X164646365Y-60980027D01*
X164761385Y-61152167D01*
X164840611Y-61343436D01*
X164881000Y-61546484D01*
X164881000Y-61753516D01*
X164840611Y-61956564D01*
X164761385Y-62147833D01*
X164761384Y-62147835D01*
X164646365Y-62319973D01*
X164499973Y-62466365D01*
X164327835Y-62581384D01*
X164327834Y-62581385D01*
X164327833Y-62581385D01*
X164136564Y-62660611D01*
X163933516Y-62701000D01*
X163726484Y-62701000D01*
X163523436Y-62660611D01*
X163332167Y-62581385D01*
X163332166Y-62581385D01*
X163332165Y-62581384D01*
X163160027Y-62466365D01*
X163013635Y-62319973D01*
X162898616Y-62147835D01*
X162898615Y-62147833D01*
X162819389Y-61956564D01*
X162779000Y-61753516D01*
X162779000Y-61546484D01*
X162819389Y-61343436D01*
X162898615Y-61152167D01*
X163013635Y-60980027D01*
X163160027Y-60833635D01*
X163332165Y-60718616D01*
X163332167Y-60718615D01*
X163523436Y-60639389D01*
X163726484Y-60599000D01*
X163933516Y-60599000D01*
X164136564Y-60639389D01*
X164136564Y-60639389D01*
G37*
G36*
X104596564Y-60639389D02*
G01*
X104787833Y-60718615D01*
X104787835Y-60718616D01*
X104959973Y-60833635D01*
X105106365Y-60980027D01*
X105221385Y-61152167D01*
X105300611Y-61343436D01*
X105341000Y-61546484D01*
X105341000Y-61753516D01*
X105300611Y-61956564D01*
X105221385Y-62147833D01*
X105221384Y-62147835D01*
X105106365Y-62319973D01*
X104959973Y-62466365D01*
X104787835Y-62581384D01*
X104787834Y-62581385D01*
X104787833Y-62581385D01*
X104596564Y-62660611D01*
X104393516Y-62701000D01*
X104186484Y-62701000D01*
X103983436Y-62660611D01*
X103792167Y-62581385D01*
X103792166Y-62581385D01*
X103792165Y-62581384D01*
X103620027Y-62466365D01*
X103473635Y-62319973D01*
X103358616Y-62147835D01*
X103358615Y-62147833D01*
X103279389Y-61956564D01*
X103239000Y-61753516D01*
X103239000Y-61546484D01*
X103279389Y-61343436D01*
X103358615Y-61152167D01*
X103473635Y-60980027D01*
X103620027Y-60833635D01*
X103792165Y-60718616D01*
X103792167Y-60718615D01*
X103983436Y-60639389D01*
X104186484Y-60599000D01*
X104393516Y-60599000D01*
X104596564Y-60639389D01*
X104596564Y-60639389D01*
G37*
G36*
X187146564Y-60639389D02*
G01*
X187337833Y-60718615D01*
X187337835Y-60718616D01*
X187509973Y-60833635D01*
X187656365Y-60980027D01*
X187771385Y-61152167D01*
X187850611Y-61343436D01*
X187891000Y-61546484D01*
X187891000Y-61753516D01*
X187850611Y-61956564D01*
X187771385Y-62147833D01*
X187771384Y-62147835D01*
X187656365Y-62319973D01*
X187509973Y-62466365D01*
X187337835Y-62581384D01*
X187337834Y-62581385D01*
X187337833Y-62581385D01*
X187146564Y-62660611D01*
X186943516Y-62701000D01*
X186736484Y-62701000D01*
X186533436Y-62660611D01*
X186342167Y-62581385D01*
X186342166Y-62581385D01*
X186342165Y-62581384D01*
X186170027Y-62466365D01*
X186023635Y-62319973D01*
X185908616Y-62147835D01*
X185908615Y-62147833D01*
X185829389Y-61956564D01*
X185789000Y-61753516D01*
X185789000Y-61546484D01*
X185829389Y-61343436D01*
X185908615Y-61152167D01*
X186023635Y-60980027D01*
X186170027Y-60833635D01*
X186342165Y-60718616D01*
X186342167Y-60718615D01*
X186533436Y-60639389D01*
X186736484Y-60599000D01*
X186943516Y-60599000D01*
X187146564Y-60639389D01*
X187146564Y-60639389D01*
G37*
G36*
X98096564Y-60639389D02*
G01*
X98287833Y-60718615D01*
X98287835Y-60718616D01*
X98459973Y-60833635D01*
X98606365Y-60980027D01*
X98721385Y-61152167D01*
X98800611Y-61343436D01*
X98841000Y-61546484D01*
X98841000Y-61753516D01*
X98800611Y-61956564D01*
X98721385Y-62147833D01*
X98721384Y-62147835D01*
X98606365Y-62319973D01*
X98459973Y-62466365D01*
X98287835Y-62581384D01*
X98287834Y-62581385D01*
X98287833Y-62581385D01*
X98096564Y-62660611D01*
X97893516Y-62701000D01*
X97686484Y-62701000D01*
X97483436Y-62660611D01*
X97292167Y-62581385D01*
X97292166Y-62581385D01*
X97292165Y-62581384D01*
X97120027Y-62466365D01*
X96973635Y-62319973D01*
X96858616Y-62147835D01*
X96858615Y-62147833D01*
X96779389Y-61956564D01*
X96739000Y-61753516D01*
X96739000Y-61546484D01*
X96779389Y-61343436D01*
X96858615Y-61152167D01*
X96973635Y-60980027D01*
X97120027Y-60833635D01*
X97292165Y-60718616D01*
X97292167Y-60718615D01*
X97483436Y-60639389D01*
X97686484Y-60599000D01*
X97893516Y-60599000D01*
X98096564Y-60639389D01*
X98096564Y-60639389D01*
G37*
G36*
X180646564Y-60639389D02*
G01*
X180837833Y-60718615D01*
X180837835Y-60718616D01*
X181009973Y-60833635D01*
X181156365Y-60980027D01*
X181271385Y-61152167D01*
X181350611Y-61343436D01*
X181391000Y-61546484D01*
X181391000Y-61753516D01*
X181350611Y-61956564D01*
X181271385Y-62147833D01*
X181271384Y-62147835D01*
X181156365Y-62319973D01*
X181009973Y-62466365D01*
X180837835Y-62581384D01*
X180837834Y-62581385D01*
X180837833Y-62581385D01*
X180646564Y-62660611D01*
X180443516Y-62701000D01*
X180236484Y-62701000D01*
X180033436Y-62660611D01*
X179842167Y-62581385D01*
X179842166Y-62581385D01*
X179842165Y-62581384D01*
X179670027Y-62466365D01*
X179523635Y-62319973D01*
X179408616Y-62147835D01*
X179408615Y-62147833D01*
X179329389Y-61956564D01*
X179289000Y-61753516D01*
X179289000Y-61546484D01*
X179329389Y-61343436D01*
X179408615Y-61152167D01*
X179523635Y-60980027D01*
X179670027Y-60833635D01*
X179842165Y-60718616D01*
X179842167Y-60718615D01*
X180033436Y-60639389D01*
X180236484Y-60599000D01*
X180443516Y-60599000D01*
X180646564Y-60639389D01*
X180646564Y-60639389D01*
G37*
G36*
X180646564Y-56139389D02*
G01*
X180837833Y-56218615D01*
X180837835Y-56218616D01*
X181009973Y-56333635D01*
X181156365Y-56480027D01*
X181271385Y-56652167D01*
X181350611Y-56843436D01*
X181391000Y-57046484D01*
X181391000Y-57253516D01*
X181350611Y-57456564D01*
X181284044Y-57617272D01*
X181271384Y-57647835D01*
X181156365Y-57819973D01*
X181009973Y-57966365D01*
X180837835Y-58081384D01*
X180837834Y-58081385D01*
X180837833Y-58081385D01*
X180646564Y-58160611D01*
X180443516Y-58201000D01*
X180236484Y-58201000D01*
X180033436Y-58160611D01*
X179842167Y-58081385D01*
X179842166Y-58081385D01*
X179842165Y-58081384D01*
X179670027Y-57966365D01*
X179523635Y-57819973D01*
X179408616Y-57647835D01*
X179395956Y-57617272D01*
X179329389Y-57456564D01*
X179289000Y-57253516D01*
X179289000Y-57046484D01*
X179329389Y-56843436D01*
X179408615Y-56652167D01*
X179523635Y-56480027D01*
X179670027Y-56333635D01*
X179842165Y-56218616D01*
X179842167Y-56218615D01*
X180033436Y-56139389D01*
X180236484Y-56099000D01*
X180443516Y-56099000D01*
X180646564Y-56139389D01*
X180646564Y-56139389D01*
G37*
G36*
X187146564Y-56139389D02*
G01*
X187337833Y-56218615D01*
X187337835Y-56218616D01*
X187509973Y-56333635D01*
X187656365Y-56480027D01*
X187771385Y-56652167D01*
X187850611Y-56843436D01*
X187891000Y-57046484D01*
X187891000Y-57253516D01*
X187850611Y-57456564D01*
X187784044Y-57617272D01*
X187771384Y-57647835D01*
X187656365Y-57819973D01*
X187509973Y-57966365D01*
X187337835Y-58081384D01*
X187337834Y-58081385D01*
X187337833Y-58081385D01*
X187146564Y-58160611D01*
X186943516Y-58201000D01*
X186736484Y-58201000D01*
X186533436Y-58160611D01*
X186342167Y-58081385D01*
X186342166Y-58081385D01*
X186342165Y-58081384D01*
X186170027Y-57966365D01*
X186023635Y-57819973D01*
X185908616Y-57647835D01*
X185895956Y-57617272D01*
X185829389Y-57456564D01*
X185789000Y-57253516D01*
X185789000Y-57046484D01*
X185829389Y-56843436D01*
X185908615Y-56652167D01*
X186023635Y-56480027D01*
X186170027Y-56333635D01*
X186342165Y-56218616D01*
X186342167Y-56218615D01*
X186533436Y-56139389D01*
X186736484Y-56099000D01*
X186943516Y-56099000D01*
X187146564Y-56139389D01*
X187146564Y-56139389D01*
G37*
G36*
X170636564Y-56139389D02*
G01*
X170827833Y-56218615D01*
X170827835Y-56218616D01*
X170999973Y-56333635D01*
X171146365Y-56480027D01*
X171261385Y-56652167D01*
X171340611Y-56843436D01*
X171381000Y-57046484D01*
X171381000Y-57253516D01*
X171340611Y-57456564D01*
X171274044Y-57617272D01*
X171261384Y-57647835D01*
X171146365Y-57819973D01*
X170999973Y-57966365D01*
X170827835Y-58081384D01*
X170827834Y-58081385D01*
X170827833Y-58081385D01*
X170636564Y-58160611D01*
X170433516Y-58201000D01*
X170226484Y-58201000D01*
X170023436Y-58160611D01*
X169832167Y-58081385D01*
X169832166Y-58081385D01*
X169832165Y-58081384D01*
X169660027Y-57966365D01*
X169513635Y-57819973D01*
X169398616Y-57647835D01*
X169385956Y-57617272D01*
X169319389Y-57456564D01*
X169279000Y-57253516D01*
X169279000Y-57046484D01*
X169319389Y-56843436D01*
X169398615Y-56652167D01*
X169513635Y-56480027D01*
X169660027Y-56333635D01*
X169832165Y-56218616D01*
X169832167Y-56218615D01*
X170023436Y-56139389D01*
X170226484Y-56099000D01*
X170433516Y-56099000D01*
X170636564Y-56139389D01*
X170636564Y-56139389D01*
G37*
G36*
X164136564Y-56139389D02*
G01*
X164327833Y-56218615D01*
X164327835Y-56218616D01*
X164499973Y-56333635D01*
X164646365Y-56480027D01*
X164761385Y-56652167D01*
X164840611Y-56843436D01*
X164881000Y-57046484D01*
X164881000Y-57253516D01*
X164840611Y-57456564D01*
X164774044Y-57617272D01*
X164761384Y-57647835D01*
X164646365Y-57819973D01*
X164499973Y-57966365D01*
X164327835Y-58081384D01*
X164327834Y-58081385D01*
X164327833Y-58081385D01*
X164136564Y-58160611D01*
X163933516Y-58201000D01*
X163726484Y-58201000D01*
X163523436Y-58160611D01*
X163332167Y-58081385D01*
X163332166Y-58081385D01*
X163332165Y-58081384D01*
X163160027Y-57966365D01*
X163013635Y-57819973D01*
X162898616Y-57647835D01*
X162885956Y-57617272D01*
X162819389Y-57456564D01*
X162779000Y-57253516D01*
X162779000Y-57046484D01*
X162819389Y-56843436D01*
X162898615Y-56652167D01*
X163013635Y-56480027D01*
X163160027Y-56333635D01*
X163332165Y-56218616D01*
X163332167Y-56218615D01*
X163523436Y-56139389D01*
X163726484Y-56099000D01*
X163933516Y-56099000D01*
X164136564Y-56139389D01*
X164136564Y-56139389D01*
G37*
G36*
X154126564Y-56139389D02*
G01*
X154317833Y-56218615D01*
X154317835Y-56218616D01*
X154489973Y-56333635D01*
X154636365Y-56480027D01*
X154751385Y-56652167D01*
X154830611Y-56843436D01*
X154871000Y-57046484D01*
X154871000Y-57253516D01*
X154830611Y-57456564D01*
X154764044Y-57617272D01*
X154751384Y-57647835D01*
X154636365Y-57819973D01*
X154489973Y-57966365D01*
X154317835Y-58081384D01*
X154317834Y-58081385D01*
X154317833Y-58081385D01*
X154126564Y-58160611D01*
X153923516Y-58201000D01*
X153716484Y-58201000D01*
X153513436Y-58160611D01*
X153322167Y-58081385D01*
X153322166Y-58081385D01*
X153322165Y-58081384D01*
X153150027Y-57966365D01*
X153003635Y-57819973D01*
X152888616Y-57647835D01*
X152875956Y-57617272D01*
X152809389Y-57456564D01*
X152769000Y-57253516D01*
X152769000Y-57046484D01*
X152809389Y-56843436D01*
X152888615Y-56652167D01*
X153003635Y-56480027D01*
X153150027Y-56333635D01*
X153322165Y-56218616D01*
X153322167Y-56218615D01*
X153513436Y-56139389D01*
X153716484Y-56099000D01*
X153923516Y-56099000D01*
X154126564Y-56139389D01*
X154126564Y-56139389D01*
G37*
G36*
X147626564Y-56139389D02*
G01*
X147817833Y-56218615D01*
X147817835Y-56218616D01*
X147989973Y-56333635D01*
X148136365Y-56480027D01*
X148251385Y-56652167D01*
X148330611Y-56843436D01*
X148371000Y-57046484D01*
X148371000Y-57253516D01*
X148330611Y-57456564D01*
X148264044Y-57617272D01*
X148251384Y-57647835D01*
X148136365Y-57819973D01*
X147989973Y-57966365D01*
X147817835Y-58081384D01*
X147817834Y-58081385D01*
X147817833Y-58081385D01*
X147626564Y-58160611D01*
X147423516Y-58201000D01*
X147216484Y-58201000D01*
X147013436Y-58160611D01*
X146822167Y-58081385D01*
X146822166Y-58081385D01*
X146822165Y-58081384D01*
X146650027Y-57966365D01*
X146503635Y-57819973D01*
X146388616Y-57647835D01*
X146375956Y-57617272D01*
X146309389Y-57456564D01*
X146269000Y-57253516D01*
X146269000Y-57046484D01*
X146309389Y-56843436D01*
X146388615Y-56652167D01*
X146503635Y-56480027D01*
X146650027Y-56333635D01*
X146822165Y-56218616D01*
X146822167Y-56218615D01*
X147013436Y-56139389D01*
X147216484Y-56099000D01*
X147423516Y-56099000D01*
X147626564Y-56139389D01*
X147626564Y-56139389D01*
G37*
G36*
X121106564Y-56139389D02*
G01*
X121297833Y-56218615D01*
X121297835Y-56218616D01*
X121469973Y-56333635D01*
X121616365Y-56480027D01*
X121731385Y-56652167D01*
X121810611Y-56843436D01*
X121851000Y-57046484D01*
X121851000Y-57253516D01*
X121810611Y-57456564D01*
X121744044Y-57617272D01*
X121731384Y-57647835D01*
X121616365Y-57819973D01*
X121469973Y-57966365D01*
X121297835Y-58081384D01*
X121297834Y-58081385D01*
X121297833Y-58081385D01*
X121106564Y-58160611D01*
X120903516Y-58201000D01*
X120696484Y-58201000D01*
X120493436Y-58160611D01*
X120302167Y-58081385D01*
X120302166Y-58081385D01*
X120302165Y-58081384D01*
X120130027Y-57966365D01*
X119983635Y-57819973D01*
X119868616Y-57647835D01*
X119855956Y-57617272D01*
X119789389Y-57456564D01*
X119749000Y-57253516D01*
X119749000Y-57046484D01*
X119789389Y-56843436D01*
X119868615Y-56652167D01*
X119983635Y-56480027D01*
X120130027Y-56333635D01*
X120302165Y-56218616D01*
X120302167Y-56218615D01*
X120493436Y-56139389D01*
X120696484Y-56099000D01*
X120903516Y-56099000D01*
X121106564Y-56139389D01*
X121106564Y-56139389D01*
G37*
G36*
X114606564Y-56139389D02*
G01*
X114797833Y-56218615D01*
X114797835Y-56218616D01*
X114969973Y-56333635D01*
X115116365Y-56480027D01*
X115231385Y-56652167D01*
X115310611Y-56843436D01*
X115351000Y-57046484D01*
X115351000Y-57253516D01*
X115310611Y-57456564D01*
X115244044Y-57617272D01*
X115231384Y-57647835D01*
X115116365Y-57819973D01*
X114969973Y-57966365D01*
X114797835Y-58081384D01*
X114797834Y-58081385D01*
X114797833Y-58081385D01*
X114606564Y-58160611D01*
X114403516Y-58201000D01*
X114196484Y-58201000D01*
X113993436Y-58160611D01*
X113802167Y-58081385D01*
X113802166Y-58081385D01*
X113802165Y-58081384D01*
X113630027Y-57966365D01*
X113483635Y-57819973D01*
X113368616Y-57647835D01*
X113355956Y-57617272D01*
X113289389Y-57456564D01*
X113249000Y-57253516D01*
X113249000Y-57046484D01*
X113289389Y-56843436D01*
X113368615Y-56652167D01*
X113483635Y-56480027D01*
X113630027Y-56333635D01*
X113802165Y-56218616D01*
X113802167Y-56218615D01*
X113993436Y-56139389D01*
X114196484Y-56099000D01*
X114403516Y-56099000D01*
X114606564Y-56139389D01*
X114606564Y-56139389D01*
G37*
G36*
X104596564Y-56139389D02*
G01*
X104787833Y-56218615D01*
X104787835Y-56218616D01*
X104959973Y-56333635D01*
X105106365Y-56480027D01*
X105221385Y-56652167D01*
X105300611Y-56843436D01*
X105341000Y-57046484D01*
X105341000Y-57253516D01*
X105300611Y-57456564D01*
X105234044Y-57617272D01*
X105221384Y-57647835D01*
X105106365Y-57819973D01*
X104959973Y-57966365D01*
X104787835Y-58081384D01*
X104787834Y-58081385D01*
X104787833Y-58081385D01*
X104596564Y-58160611D01*
X104393516Y-58201000D01*
X104186484Y-58201000D01*
X103983436Y-58160611D01*
X103792167Y-58081385D01*
X103792166Y-58081385D01*
X103792165Y-58081384D01*
X103620027Y-57966365D01*
X103473635Y-57819973D01*
X103358616Y-57647835D01*
X103345956Y-57617272D01*
X103279389Y-57456564D01*
X103239000Y-57253516D01*
X103239000Y-57046484D01*
X103279389Y-56843436D01*
X103358615Y-56652167D01*
X103473635Y-56480027D01*
X103620027Y-56333635D01*
X103792165Y-56218616D01*
X103792167Y-56218615D01*
X103983436Y-56139389D01*
X104186484Y-56099000D01*
X104393516Y-56099000D01*
X104596564Y-56139389D01*
X104596564Y-56139389D01*
G37*
G36*
X98096564Y-56139389D02*
G01*
X98287833Y-56218615D01*
X98287835Y-56218616D01*
X98459973Y-56333635D01*
X98606365Y-56480027D01*
X98721385Y-56652167D01*
X98800611Y-56843436D01*
X98841000Y-57046484D01*
X98841000Y-57253516D01*
X98800611Y-57456564D01*
X98734044Y-57617272D01*
X98721384Y-57647835D01*
X98606365Y-57819973D01*
X98459973Y-57966365D01*
X98287835Y-58081384D01*
X98287834Y-58081385D01*
X98287833Y-58081385D01*
X98096564Y-58160611D01*
X97893516Y-58201000D01*
X97686484Y-58201000D01*
X97483436Y-58160611D01*
X97292167Y-58081385D01*
X97292166Y-58081385D01*
X97292165Y-58081384D01*
X97120027Y-57966365D01*
X96973635Y-57819973D01*
X96858616Y-57647835D01*
X96845956Y-57617272D01*
X96779389Y-57456564D01*
X96739000Y-57253516D01*
X96739000Y-57046484D01*
X96779389Y-56843436D01*
X96858615Y-56652167D01*
X96973635Y-56480027D01*
X97120027Y-56333635D01*
X97292165Y-56218616D01*
X97292167Y-56218615D01*
X97483436Y-56139389D01*
X97686484Y-56099000D01*
X97893516Y-56099000D01*
X98096564Y-56139389D01*
X98096564Y-56139389D01*
G37*
G36*
X131116564Y-56139389D02*
G01*
X131307833Y-56218615D01*
X131307835Y-56218616D01*
X131479973Y-56333635D01*
X131626365Y-56480027D01*
X131741385Y-56652167D01*
X131820611Y-56843436D01*
X131861000Y-57046484D01*
X131861000Y-57253516D01*
X131820611Y-57456564D01*
X131754044Y-57617272D01*
X131741384Y-57647835D01*
X131626365Y-57819973D01*
X131479973Y-57966365D01*
X131307835Y-58081384D01*
X131307834Y-58081385D01*
X131307833Y-58081385D01*
X131116564Y-58160611D01*
X130913516Y-58201000D01*
X130706484Y-58201000D01*
X130503436Y-58160611D01*
X130312167Y-58081385D01*
X130312166Y-58081385D01*
X130312165Y-58081384D01*
X130140027Y-57966365D01*
X129993635Y-57819973D01*
X129878616Y-57647835D01*
X129865956Y-57617272D01*
X129799389Y-57456564D01*
X129759000Y-57253516D01*
X129759000Y-57046484D01*
X129799389Y-56843436D01*
X129878615Y-56652167D01*
X129993635Y-56480027D01*
X130140027Y-56333635D01*
X130312165Y-56218616D01*
X130312167Y-56218615D01*
X130503436Y-56139389D01*
X130706484Y-56099000D01*
X130913516Y-56099000D01*
X131116564Y-56139389D01*
X131116564Y-56139389D01*
G37*
G36*
X137616564Y-56139389D02*
G01*
X137807833Y-56218615D01*
X137807835Y-56218616D01*
X137979973Y-56333635D01*
X138126365Y-56480027D01*
X138241385Y-56652167D01*
X138320611Y-56843436D01*
X138361000Y-57046484D01*
X138361000Y-57253516D01*
X138320611Y-57456564D01*
X138254044Y-57617272D01*
X138241384Y-57647835D01*
X138126365Y-57819973D01*
X137979973Y-57966365D01*
X137807835Y-58081384D01*
X137807834Y-58081385D01*
X137807833Y-58081385D01*
X137616564Y-58160611D01*
X137413516Y-58201000D01*
X137206484Y-58201000D01*
X137003436Y-58160611D01*
X136812167Y-58081385D01*
X136812166Y-58081385D01*
X136812165Y-58081384D01*
X136640027Y-57966365D01*
X136493635Y-57819973D01*
X136378616Y-57647835D01*
X136365956Y-57617272D01*
X136299389Y-57456564D01*
X136259000Y-57253516D01*
X136259000Y-57046484D01*
X136299389Y-56843436D01*
X136378615Y-56652167D01*
X136493635Y-56480027D01*
X136640027Y-56333635D01*
X136812165Y-56218616D01*
X136812167Y-56218615D01*
X137003436Y-56139389D01*
X137206484Y-56099000D01*
X137413516Y-56099000D01*
X137616564Y-56139389D01*
X137616564Y-56139389D01*
G37*
G36*
X82026980Y-54508294D02*
G01*
X82160626Y-54548835D01*
X82283785Y-54614665D01*
X82391741Y-54703261D01*
X82480337Y-54811217D01*
X82546167Y-54934376D01*
X82586708Y-55068022D01*
X82601001Y-55213141D01*
X82601001Y-57376861D01*
X82586708Y-57521980D01*
X82546167Y-57655626D01*
X82480337Y-57778785D01*
X82391741Y-57886741D01*
X82283785Y-57975337D01*
X82160626Y-58041167D01*
X82026980Y-58081708D01*
X81881861Y-58096001D01*
X80218141Y-58096001D01*
X80073022Y-58081708D01*
X79939376Y-58041167D01*
X79816217Y-57975337D01*
X79708261Y-57886741D01*
X79619665Y-57778785D01*
X79553835Y-57655626D01*
X79513294Y-57521980D01*
X79499001Y-57376861D01*
X79499001Y-55213141D01*
X79513294Y-55068022D01*
X79553835Y-54934376D01*
X79619665Y-54811217D01*
X79708261Y-54703261D01*
X79816217Y-54614665D01*
X79939376Y-54548835D01*
X80073022Y-54508294D01*
X80218141Y-54494001D01*
X81881861Y-54494001D01*
X82026980Y-54508294D01*
X82026980Y-54508294D01*
G37*
G36*
X88851001Y-58096001D02*
G01*
X85249001Y-58096001D01*
X85249001Y-54494001D01*
X88851001Y-54494001D01*
X88851001Y-58096001D01*
X88851001Y-58096001D01*
G37*
G36*
X109386823Y-51231313D02*
G01*
X109547242Y-51279976D01*
X109679906Y-51350886D01*
X109695078Y-51358996D01*
X109824659Y-51465341D01*
X109931004Y-51594922D01*
X109931005Y-51594924D01*
X110010024Y-51742758D01*
X110058687Y-51903177D01*
X110075117Y-52070000D01*
X110058687Y-52236823D01*
X110010024Y-52397242D01*
X109939114Y-52529906D01*
X109931004Y-52545078D01*
X109824659Y-52674659D01*
X109695078Y-52781004D01*
X109695076Y-52781005D01*
X109547242Y-52860024D01*
X109386823Y-52908687D01*
X109261804Y-52921000D01*
X109178196Y-52921000D01*
X109053177Y-52908687D01*
X108892758Y-52860024D01*
X108744924Y-52781005D01*
X108744922Y-52781004D01*
X108615341Y-52674659D01*
X108508996Y-52545078D01*
X108500886Y-52529906D01*
X108429976Y-52397242D01*
X108381313Y-52236823D01*
X108364883Y-52070000D01*
X108381313Y-51903177D01*
X108429976Y-51742758D01*
X108508995Y-51594924D01*
X108508996Y-51594922D01*
X108615341Y-51465341D01*
X108744922Y-51358996D01*
X108760094Y-51350886D01*
X108892758Y-51279976D01*
X109053177Y-51231313D01*
X109178196Y-51219000D01*
X109261804Y-51219000D01*
X109386823Y-51231313D01*
X109386823Y-51231313D01*
G37*
G36*
X175426823Y-51231313D02*
G01*
X175587242Y-51279976D01*
X175719906Y-51350886D01*
X175735078Y-51358996D01*
X175864659Y-51465341D01*
X175971004Y-51594922D01*
X175971005Y-51594924D01*
X176050024Y-51742758D01*
X176098687Y-51903177D01*
X176115117Y-52070000D01*
X176098687Y-52236823D01*
X176050024Y-52397242D01*
X175979114Y-52529906D01*
X175971004Y-52545078D01*
X175864659Y-52674659D01*
X175735078Y-52781004D01*
X175735076Y-52781005D01*
X175587242Y-52860024D01*
X175426823Y-52908687D01*
X175301804Y-52921000D01*
X175218196Y-52921000D01*
X175093177Y-52908687D01*
X174932758Y-52860024D01*
X174784924Y-52781005D01*
X174784922Y-52781004D01*
X174655341Y-52674659D01*
X174548996Y-52545078D01*
X174540886Y-52529906D01*
X174469976Y-52397242D01*
X174421313Y-52236823D01*
X174404883Y-52070000D01*
X174421313Y-51903177D01*
X174469976Y-51742758D01*
X174548995Y-51594924D01*
X174548996Y-51594922D01*
X174655341Y-51465341D01*
X174784922Y-51358996D01*
X174800094Y-51350886D01*
X174932758Y-51279976D01*
X175093177Y-51231313D01*
X175218196Y-51219000D01*
X175301804Y-51219000D01*
X175426823Y-51231313D01*
X175426823Y-51231313D01*
G37*
G36*
X158916823Y-51231313D02*
G01*
X159077242Y-51279976D01*
X159209906Y-51350886D01*
X159225078Y-51358996D01*
X159354659Y-51465341D01*
X159461004Y-51594922D01*
X159461005Y-51594924D01*
X159540024Y-51742758D01*
X159588687Y-51903177D01*
X159605117Y-52070000D01*
X159588687Y-52236823D01*
X159540024Y-52397242D01*
X159469114Y-52529906D01*
X159461004Y-52545078D01*
X159354659Y-52674659D01*
X159225078Y-52781004D01*
X159225076Y-52781005D01*
X159077242Y-52860024D01*
X158916823Y-52908687D01*
X158791804Y-52921000D01*
X158708196Y-52921000D01*
X158583177Y-52908687D01*
X158422758Y-52860024D01*
X158274924Y-52781005D01*
X158274922Y-52781004D01*
X158145341Y-52674659D01*
X158038996Y-52545078D01*
X158030886Y-52529906D01*
X157959976Y-52397242D01*
X157911313Y-52236823D01*
X157894883Y-52070000D01*
X157911313Y-51903177D01*
X157959976Y-51742758D01*
X158038995Y-51594924D01*
X158038996Y-51594922D01*
X158145341Y-51465341D01*
X158274922Y-51358996D01*
X158290094Y-51350886D01*
X158422758Y-51279976D01*
X158583177Y-51231313D01*
X158708196Y-51219000D01*
X158791804Y-51219000D01*
X158916823Y-51231313D01*
X158916823Y-51231313D01*
G37*
G36*
X142406823Y-51231313D02*
G01*
X142567242Y-51279976D01*
X142699906Y-51350886D01*
X142715078Y-51358996D01*
X142844659Y-51465341D01*
X142951004Y-51594922D01*
X142951005Y-51594924D01*
X143030024Y-51742758D01*
X143078687Y-51903177D01*
X143095117Y-52070000D01*
X143078687Y-52236823D01*
X143030024Y-52397242D01*
X142959114Y-52529906D01*
X142951004Y-52545078D01*
X142844659Y-52674659D01*
X142715078Y-52781004D01*
X142715076Y-52781005D01*
X142567242Y-52860024D01*
X142406823Y-52908687D01*
X142281804Y-52921000D01*
X142198196Y-52921000D01*
X142073177Y-52908687D01*
X141912758Y-52860024D01*
X141764924Y-52781005D01*
X141764922Y-52781004D01*
X141635341Y-52674659D01*
X141528996Y-52545078D01*
X141520886Y-52529906D01*
X141449976Y-52397242D01*
X141401313Y-52236823D01*
X141384883Y-52070000D01*
X141401313Y-51903177D01*
X141449976Y-51742758D01*
X141528995Y-51594924D01*
X141528996Y-51594922D01*
X141635341Y-51465341D01*
X141764922Y-51358996D01*
X141780094Y-51350886D01*
X141912758Y-51279976D01*
X142073177Y-51231313D01*
X142198196Y-51219000D01*
X142281804Y-51219000D01*
X142406823Y-51231313D01*
X142406823Y-51231313D01*
G37*
G36*
X125896823Y-51231313D02*
G01*
X126057242Y-51279976D01*
X126189906Y-51350886D01*
X126205078Y-51358996D01*
X126334659Y-51465341D01*
X126441004Y-51594922D01*
X126441005Y-51594924D01*
X126520024Y-51742758D01*
X126568687Y-51903177D01*
X126585117Y-52070000D01*
X126568687Y-52236823D01*
X126520024Y-52397242D01*
X126449114Y-52529906D01*
X126441004Y-52545078D01*
X126334659Y-52674659D01*
X126205078Y-52781004D01*
X126205076Y-52781005D01*
X126057242Y-52860024D01*
X125896823Y-52908687D01*
X125771804Y-52921000D01*
X125688196Y-52921000D01*
X125563177Y-52908687D01*
X125402758Y-52860024D01*
X125254924Y-52781005D01*
X125254922Y-52781004D01*
X125125341Y-52674659D01*
X125018996Y-52545078D01*
X125010886Y-52529906D01*
X124939976Y-52397242D01*
X124891313Y-52236823D01*
X124874883Y-52070000D01*
X124891313Y-51903177D01*
X124939976Y-51742758D01*
X125018995Y-51594924D01*
X125018996Y-51594922D01*
X125125341Y-51465341D01*
X125254922Y-51358996D01*
X125270094Y-51350886D01*
X125402758Y-51279976D01*
X125563177Y-51231313D01*
X125688196Y-51219000D01*
X125771804Y-51219000D01*
X125896823Y-51231313D01*
X125896823Y-51231313D01*
G37*
G36*
X191936823Y-51231313D02*
G01*
X192097242Y-51279976D01*
X192229906Y-51350886D01*
X192245078Y-51358996D01*
X192374659Y-51465341D01*
X192481004Y-51594922D01*
X192481005Y-51594924D01*
X192560024Y-51742758D01*
X192608687Y-51903177D01*
X192625117Y-52070000D01*
X192608687Y-52236823D01*
X192560024Y-52397242D01*
X192489114Y-52529906D01*
X192481004Y-52545078D01*
X192374659Y-52674659D01*
X192245078Y-52781004D01*
X192245076Y-52781005D01*
X192097242Y-52860024D01*
X191936823Y-52908687D01*
X191811804Y-52921000D01*
X191728196Y-52921000D01*
X191603177Y-52908687D01*
X191442758Y-52860024D01*
X191294924Y-52781005D01*
X191294922Y-52781004D01*
X191165341Y-52674659D01*
X191058996Y-52545078D01*
X191050886Y-52529906D01*
X190979976Y-52397242D01*
X190931313Y-52236823D01*
X190914883Y-52070000D01*
X190931313Y-51903177D01*
X190979976Y-51742758D01*
X191058995Y-51594924D01*
X191058996Y-51594922D01*
X191165341Y-51465341D01*
X191294922Y-51358996D01*
X191310094Y-51350886D01*
X191442758Y-51279976D01*
X191603177Y-51231313D01*
X191728196Y-51219000D01*
X191811804Y-51219000D01*
X191936823Y-51231313D01*
X191936823Y-51231313D01*
G37*
G36*
X187434098Y-42632033D02*
G01*
X187898350Y-42824332D01*
X187898352Y-42824333D01*
X188316168Y-43103509D01*
X188671491Y-43458832D01*
X188950667Y-43876648D01*
X188950668Y-43876650D01*
X189142967Y-44340902D01*
X189241000Y-44833747D01*
X189241000Y-45336253D01*
X189142967Y-45829098D01*
X189015244Y-46137449D01*
X188950667Y-46293352D01*
X188671491Y-46711168D01*
X188316168Y-47066491D01*
X187898352Y-47345667D01*
X187898351Y-47345668D01*
X187898350Y-47345668D01*
X187434098Y-47537967D01*
X186941253Y-47636000D01*
X186438747Y-47636000D01*
X185945902Y-47537967D01*
X185481650Y-47345668D01*
X185481649Y-47345668D01*
X185481648Y-47345667D01*
X185063832Y-47066491D01*
X184708509Y-46711168D01*
X184429333Y-46293352D01*
X184364756Y-46137449D01*
X184237033Y-45829098D01*
X184139000Y-45336253D01*
X184139000Y-44833747D01*
X184237033Y-44340902D01*
X184429332Y-43876650D01*
X184429333Y-43876648D01*
X184708509Y-43458832D01*
X185063832Y-43103509D01*
X185481648Y-42824333D01*
X185481650Y-42824332D01*
X185945902Y-42632033D01*
X186438747Y-42534000D01*
X186941253Y-42534000D01*
X187434098Y-42632033D01*
X187434098Y-42632033D01*
G37*
G36*
X176270256Y-43476298D02*
G01*
X176376579Y-43497447D01*
X176677042Y-43621903D01*
X176947451Y-43802585D01*
X177177415Y-44032549D01*
X177358097Y-44302958D01*
X177482553Y-44603421D01*
X177546000Y-44922391D01*
X177546000Y-45247609D01*
X177482553Y-45566579D01*
X177358097Y-45867042D01*
X177177415Y-46137451D01*
X176947451Y-46367415D01*
X176677042Y-46548097D01*
X176376579Y-46672553D01*
X176270256Y-46693702D01*
X176057611Y-46736000D01*
X175732389Y-46736000D01*
X175519744Y-46693702D01*
X175413421Y-46672553D01*
X175112958Y-46548097D01*
X174842549Y-46367415D01*
X174612585Y-46137451D01*
X174431903Y-45867042D01*
X174307447Y-45566579D01*
X174244000Y-45247609D01*
X174244000Y-44922391D01*
X174307447Y-44603421D01*
X174431903Y-44302958D01*
X174612585Y-44032549D01*
X174842549Y-43802585D01*
X175112958Y-43621903D01*
X175413421Y-43497447D01*
X175519744Y-43476298D01*
X175732389Y-43434000D01*
X176057611Y-43434000D01*
X176270256Y-43476298D01*
X176270256Y-43476298D01*
G37*
G36*
X77579098Y-41362033D02*
G01*
X78043350Y-41554332D01*
X78043352Y-41554333D01*
X78461168Y-41833509D01*
X78816491Y-42188832D01*
X79047125Y-42534000D01*
X79095668Y-42606650D01*
X79287967Y-43070902D01*
X79386000Y-43563747D01*
X79386000Y-44066253D01*
X79287967Y-44559098D01*
X79137487Y-44922389D01*
X79095667Y-45023352D01*
X78816491Y-45441168D01*
X78461168Y-45796491D01*
X78043352Y-46075667D01*
X78043351Y-46075668D01*
X78043350Y-46075668D01*
X77579098Y-46267967D01*
X77086253Y-46366000D01*
X76583747Y-46366000D01*
X76090902Y-46267967D01*
X75626650Y-46075668D01*
X75626649Y-46075668D01*
X75626648Y-46075667D01*
X75208832Y-45796491D01*
X74853509Y-45441168D01*
X74574333Y-45023352D01*
X74532513Y-44922389D01*
X74382033Y-44559098D01*
X74284000Y-44066253D01*
X74284000Y-43563747D01*
X74382033Y-43070902D01*
X74574332Y-42606650D01*
X74622875Y-42534000D01*
X74853509Y-42188832D01*
X75208832Y-41833509D01*
X75626648Y-41554333D01*
X75626650Y-41554332D01*
X76090902Y-41362033D01*
X76583747Y-41264000D01*
X77086253Y-41264000D01*
X77579098Y-41362033D01*
X77579098Y-41362033D01*
G37*
G36*
X88640256Y-41571298D02*
G01*
X88746579Y-41592447D01*
X89047042Y-41716903D01*
X89317451Y-41897585D01*
X89547415Y-42127549D01*
X89728097Y-42397958D01*
X89852553Y-42698421D01*
X89916000Y-43017391D01*
X89916000Y-43342609D01*
X89852553Y-43661579D01*
X89728097Y-43962042D01*
X89547415Y-44232451D01*
X89317451Y-44462415D01*
X89047042Y-44643097D01*
X88746579Y-44767553D01*
X88640256Y-44788702D01*
X88427611Y-44831000D01*
X88102389Y-44831000D01*
X87889744Y-44788702D01*
X87783421Y-44767553D01*
X87482958Y-44643097D01*
X87212549Y-44462415D01*
X86982585Y-44232451D01*
X86801903Y-43962042D01*
X86677447Y-43661579D01*
X86614000Y-43342609D01*
X86614000Y-43017391D01*
X86677447Y-42698421D01*
X86801903Y-42397958D01*
X86982585Y-42127549D01*
X87212549Y-41897585D01*
X87482958Y-41716903D01*
X87783421Y-41592447D01*
X87889744Y-41571298D01*
X88102389Y-41529000D01*
X88427611Y-41529000D01*
X88640256Y-41571298D01*
X88640256Y-41571298D01*
G37*
M02*
