M48
; DRILL file {KiCad (5.1.2)-1} date 08.05.2019 22:23:01
; FORMAT={-:-/ absolute / inch / decimal}
; #@! TF.CreationDate,2019-05-08T22:23:01+02:00
; #@! TF.GenerationSoftware,Kicad,Pcbnew,(5.1.2)-1
; #@! TF.FileFunction,Plated,1,2,PTH
FMAT,2
INCH
T1C0.0157
T2C0.0315
T3C0.0354
T4C0.0394
T5C0.0433
%
G90
G05
T1
X2.775Y-2.6
X2.975Y-3.5156
X3.2443Y-2.7057
X3.275Y-3.575
X3.65Y-3.3
X3.85Y-3.25
X3.85Y-3.65
X3.85Y-4.05
X3.975Y-4.5
X4.25Y-1.75
X4.5Y-3.325
X4.5Y-4.5
X4.525Y-3.725
X4.7Y-3.3
X4.7Y-3.725
X4.7Y-4.125
X4.7465Y-2.65
X4.762Y-3.537
X4.774Y-3.124
X4.775Y-1.75
X4.788Y-3.937
X4.9Y-3.3
X4.9Y-3.725
X5.0Y-4.5
X5.275Y-1.75
X5.35Y-4.125
X5.5Y-4.5
X5.825Y-1.75
X6.0Y-4.5
X6.375Y-1.775
X6.55Y-2.9
X6.775Y-2.9
X6.975Y-2.9
X7.012Y-3.263
X7.026Y-3.676
X7.038Y-2.813
T2
X4.95Y-2.05
X4.95Y-2.45
X3.65Y-3.0
X4.05Y-3.0
X3.65Y-3.825
X4.05Y-3.825
X5.6Y-2.05
X5.6Y-2.45
X6.9Y-2.05
X6.9Y-2.45
X3.65Y-4.225
X4.05Y-4.225
X2.875Y-2.65
X2.875Y-2.75
X2.875Y-2.85
X2.875Y-2.95
X2.875Y-3.05
X2.875Y-3.15
X2.875Y-3.25
X2.875Y-3.35
X2.875Y-3.45
X2.875Y-3.55
X2.875Y-3.65
X2.875Y-3.75
X2.875Y-3.85
X2.875Y-3.95
X2.875Y-4.05
X3.475Y-2.65
X3.475Y-2.75
X3.475Y-2.85
X3.475Y-2.95
X3.475Y-3.05
X3.475Y-3.15
X3.475Y-3.25
X3.475Y-3.35
X3.475Y-3.45
X3.475Y-3.55
X3.475Y-3.65
X3.475Y-3.75
X3.475Y-3.85
X3.475Y-3.95
X3.475Y-4.05
X7.55Y-2.05
X7.55Y-2.45
X3.65Y-3.425
X4.05Y-3.425
X4.3Y-2.05
X4.3Y-2.45
X6.25Y-2.05
X6.25Y-2.45
T3
X4.15Y-3.625
X4.25Y-3.625
X4.15Y-4.0
X4.25Y-4.0
X4.15Y-2.775
X4.25Y-2.775
X4.15Y-3.2
X4.25Y-3.2
T5
X4.5Y-2.25
X4.5Y-2.4272
X4.7559Y-2.25
X4.7559Y-2.4272
X6.45Y-2.25
X6.45Y-2.4272
X6.7059Y-2.25
X6.7059Y-2.4272
X3.85Y-2.25
X3.85Y-2.4272
X4.1059Y-2.25
X4.1059Y-2.4272
X5.8Y-2.25
X5.8Y-2.4272
X6.0559Y-2.25
X6.0559Y-2.4272
X7.1Y-2.25
X7.1Y-2.4272
X7.3559Y-2.25
X7.3559Y-2.4272
X5.15Y-2.25
X5.15Y-2.4272
X5.4059Y-2.25
X5.4059Y-2.4272
T4
G00X3.1909Y-2.177
M15
G01X3.1909Y-2.2557
M16
G05
G00X3.2697Y-2.4014
M15
G01X3.3484Y-2.4014
M16
G05
G00X3.4272Y-2.177
M15
G01X3.4272Y-2.2557
M16
G05
T0
M30
