G04 #@! TF.GenerationSoftware,KiCad,Pcbnew,(5.1.2)-1*
G04 #@! TF.CreationDate,2019-05-08T22:22:59+02:00*
G04 #@! TF.ProjectId,LED MATRIX Anzeige,4c454420-4d41-4545-9249-5820416e7a65,rev?*
G04 #@! TF.SameCoordinates,Original*
G04 #@! TF.FileFunction,Legend,Top*
G04 #@! TF.FilePolarity,Positive*
%FSLAX46Y46*%
G04 Gerber Fmt 4.6, Leading zero omitted, Abs format (unit mm)*
G04 Created by KiCad (PCBNEW (5.1.2)-1) date 2019-05-08 22:22:59*
%MOMM*%
%LPD*%
G04 APERTURE LIST*
%ADD10C,0.120000*%
%ADD11C,0.150000*%
G04 APERTURE END LIST*
D10*
X189590000Y-100867936D02*
X189590000Y-102072064D01*
X191410000Y-100867936D02*
X191410000Y-102072064D01*
X189590000Y-90707936D02*
X189590000Y-91912064D01*
X191410000Y-90707936D02*
X191410000Y-91912064D01*
X189590000Y-80547936D02*
X189590000Y-81752064D01*
X191410000Y-80547936D02*
X191410000Y-81752064D01*
X189590000Y-69117936D02*
X189590000Y-70322064D01*
X191410000Y-69117936D02*
X191410000Y-70322064D01*
X123550000Y-69247936D02*
X123550000Y-70452064D01*
X125370000Y-69247936D02*
X125370000Y-70452064D01*
X125370000Y-80547936D02*
X125370000Y-81752064D01*
X123550000Y-80547936D02*
X123550000Y-81752064D01*
X123550000Y-90837936D02*
X123550000Y-92042064D01*
X125370000Y-90837936D02*
X125370000Y-92042064D01*
X125370000Y-100867936D02*
X125370000Y-102072064D01*
X123550000Y-100867936D02*
X123550000Y-102072064D01*
X141880000Y-69377936D02*
X141880000Y-70582064D01*
X140060000Y-69377936D02*
X140060000Y-70582064D01*
X141880000Y-80547936D02*
X141880000Y-81752064D01*
X140060000Y-80547936D02*
X140060000Y-81752064D01*
X141880000Y-90837936D02*
X141880000Y-92042064D01*
X140060000Y-90837936D02*
X140060000Y-92042064D01*
X141880000Y-100867936D02*
X141880000Y-102072064D01*
X140060000Y-100867936D02*
X140060000Y-102072064D01*
X156570000Y-69247936D02*
X156570000Y-70452064D01*
X158390000Y-69247936D02*
X158390000Y-70452064D01*
X158390000Y-80677936D02*
X158390000Y-81882064D01*
X156570000Y-80677936D02*
X156570000Y-81882064D01*
X158390000Y-90707936D02*
X158390000Y-91912064D01*
X156570000Y-90707936D02*
X156570000Y-91912064D01*
X156570000Y-100867936D02*
X156570000Y-102072064D01*
X158390000Y-100867936D02*
X158390000Y-102072064D01*
X173080000Y-69117936D02*
X173080000Y-70322064D01*
X174900000Y-69117936D02*
X174900000Y-70322064D01*
X174900000Y-80547936D02*
X174900000Y-81752064D01*
X173080000Y-80547936D02*
X173080000Y-81752064D01*
X173080000Y-90837936D02*
X173080000Y-92042064D01*
X174900000Y-90837936D02*
X174900000Y-92042064D01*
X173080000Y-100997936D02*
X173080000Y-102202064D01*
X174900000Y-100997936D02*
X174900000Y-102202064D01*
X74295000Y-68580000D02*
X74295000Y-66040000D01*
X74295000Y-66040000D02*
X71625000Y-66040000D01*
X71625000Y-68580000D02*
X71625000Y-106810000D01*
X71625000Y-63370000D02*
X71625000Y-66040000D01*
X86995000Y-66040000D02*
X89665000Y-66040000D01*
X86995000Y-66040000D02*
X86995000Y-104140000D01*
X86995000Y-104140000D02*
X89665000Y-104140000D01*
X74295000Y-68580000D02*
X71625000Y-68580000D01*
X74295000Y-68580000D02*
X74295000Y-104140000D01*
X74295000Y-104140000D02*
X71625000Y-104140000D01*
X71625000Y-106810000D02*
X89665000Y-106810000D01*
X89665000Y-106810000D02*
X89665000Y-63370000D01*
X89665000Y-63370000D02*
X71625000Y-63370000D01*
X113190000Y-67100000D02*
X120490000Y-67100000D01*
X113190000Y-72600000D02*
X120490000Y-72600000D01*
X120490000Y-72600000D02*
X120490000Y-71450000D01*
X137000000Y-72600000D02*
X137000000Y-71450000D01*
X129700000Y-72600000D02*
X137000000Y-72600000D01*
X129700000Y-67100000D02*
X137000000Y-67100000D01*
X153420000Y-72930000D02*
X153420000Y-71780000D01*
X146120000Y-72930000D02*
X153420000Y-72930000D01*
X146120000Y-67430000D02*
X153420000Y-67430000D01*
X162720000Y-67100000D02*
X170020000Y-67100000D01*
X162720000Y-72600000D02*
X170020000Y-72600000D01*
X170020000Y-72600000D02*
X170020000Y-71450000D01*
X186530000Y-72600000D02*
X186530000Y-71450000D01*
X179230000Y-72600000D02*
X186530000Y-72600000D01*
X179230000Y-67100000D02*
X186530000Y-67100000D01*
X120400000Y-83700000D02*
X120400000Y-82550000D01*
X113100000Y-83700000D02*
X120400000Y-83700000D01*
X113100000Y-78200000D02*
X120400000Y-78200000D01*
X129700000Y-78530000D02*
X137000000Y-78530000D01*
X129700000Y-84030000D02*
X137000000Y-84030000D01*
X137000000Y-84030000D02*
X137000000Y-82880000D01*
X153510000Y-84030000D02*
X153510000Y-82880000D01*
X146210000Y-84030000D02*
X153510000Y-84030000D01*
X146210000Y-78530000D02*
X153510000Y-78530000D01*
X162720000Y-78530000D02*
X170020000Y-78530000D01*
X162720000Y-84030000D02*
X170020000Y-84030000D01*
X170020000Y-84030000D02*
X170020000Y-82880000D01*
X186530000Y-84030000D02*
X186530000Y-82880000D01*
X179230000Y-84030000D02*
X186530000Y-84030000D01*
X179230000Y-78530000D02*
X186530000Y-78530000D01*
X113190000Y-88690000D02*
X120490000Y-88690000D01*
X113190000Y-94190000D02*
X120490000Y-94190000D01*
X120490000Y-94190000D02*
X120490000Y-93040000D01*
X137000000Y-94190000D02*
X137000000Y-93040000D01*
X129700000Y-94190000D02*
X137000000Y-94190000D01*
X129700000Y-88690000D02*
X137000000Y-88690000D01*
X146210000Y-88690000D02*
X153510000Y-88690000D01*
X146210000Y-94190000D02*
X153510000Y-94190000D01*
X153510000Y-94190000D02*
X153510000Y-93040000D01*
X170110000Y-94520000D02*
X170110000Y-93370000D01*
X162810000Y-94520000D02*
X170110000Y-94520000D01*
X162810000Y-89020000D02*
X170110000Y-89020000D01*
X179140000Y-89020000D02*
X186440000Y-89020000D01*
X179140000Y-94520000D02*
X186440000Y-94520000D01*
X186440000Y-94520000D02*
X186440000Y-93370000D01*
X120490000Y-104350000D02*
X120490000Y-103200000D01*
X113190000Y-104350000D02*
X120490000Y-104350000D01*
X113190000Y-98850000D02*
X120490000Y-98850000D01*
X129700000Y-98850000D02*
X137000000Y-98850000D01*
X129700000Y-104350000D02*
X137000000Y-104350000D01*
X137000000Y-104350000D02*
X137000000Y-103200000D01*
X146210000Y-98850000D02*
X153510000Y-98850000D01*
X146210000Y-104350000D02*
X153510000Y-104350000D01*
X153510000Y-104350000D02*
X153510000Y-103200000D01*
X162720000Y-98850000D02*
X170020000Y-98850000D01*
X162720000Y-104350000D02*
X170020000Y-104350000D01*
X170020000Y-104350000D02*
X170020000Y-103200000D01*
X186440000Y-104020000D02*
X186440000Y-102870000D01*
X179140000Y-104020000D02*
X186440000Y-104020000D01*
X179140000Y-98520000D02*
X186440000Y-98520000D01*
X121050000Y-60150000D02*
X121050000Y-58650000D01*
X119800000Y-56150000D02*
X115300000Y-56150000D01*
X114050000Y-58650000D02*
X114050000Y-60150000D01*
X115300000Y-62650000D02*
X119800000Y-62650000D01*
X131810000Y-62650000D02*
X136310000Y-62650000D01*
X130560000Y-58650000D02*
X130560000Y-60150000D01*
X136310000Y-56150000D02*
X131810000Y-56150000D01*
X137560000Y-60150000D02*
X137560000Y-58650000D01*
X154070000Y-60150000D02*
X154070000Y-58650000D01*
X152820000Y-56150000D02*
X148320000Y-56150000D01*
X147070000Y-58650000D02*
X147070000Y-60150000D01*
X148320000Y-62650000D02*
X152820000Y-62650000D01*
X164830000Y-62650000D02*
X169330000Y-62650000D01*
X163580000Y-58650000D02*
X163580000Y-60150000D01*
X169330000Y-56150000D02*
X164830000Y-56150000D01*
X170580000Y-60150000D02*
X170580000Y-58650000D01*
X187090000Y-60150000D02*
X187090000Y-58650000D01*
X185840000Y-56150000D02*
X181340000Y-56150000D01*
X180090000Y-58650000D02*
X180090000Y-60150000D01*
X181340000Y-62650000D02*
X185840000Y-62650000D01*
X98790000Y-62650000D02*
X103290000Y-62650000D01*
X97540000Y-58650000D02*
X97540000Y-60150000D01*
X103290000Y-56150000D02*
X98790000Y-56150000D01*
X104540000Y-60150000D02*
X104540000Y-58650000D01*
X93750000Y-107315000D02*
X94520000Y-107315000D01*
X101830000Y-107315000D02*
X101060000Y-107315000D01*
X94520000Y-108685000D02*
X101060000Y-108685000D01*
X94520000Y-105945000D02*
X94520000Y-108685000D01*
X101060000Y-105945000D02*
X94520000Y-105945000D01*
X101060000Y-108685000D02*
X101060000Y-105945000D01*
X101060000Y-98525000D02*
X101060000Y-95785000D01*
X101060000Y-95785000D02*
X94520000Y-95785000D01*
X94520000Y-95785000D02*
X94520000Y-98525000D01*
X94520000Y-98525000D02*
X101060000Y-98525000D01*
X101830000Y-97155000D02*
X101060000Y-97155000D01*
X93750000Y-97155000D02*
X94520000Y-97155000D01*
X93750000Y-86995000D02*
X94520000Y-86995000D01*
X101830000Y-86995000D02*
X101060000Y-86995000D01*
X94520000Y-88365000D02*
X101060000Y-88365000D01*
X94520000Y-85625000D02*
X94520000Y-88365000D01*
X101060000Y-85625000D02*
X94520000Y-85625000D01*
X101060000Y-88365000D02*
X101060000Y-85625000D01*
X101060000Y-77570000D02*
X101060000Y-74830000D01*
X101060000Y-74830000D02*
X94520000Y-74830000D01*
X94520000Y-74830000D02*
X94520000Y-77570000D01*
X94520000Y-77570000D02*
X101060000Y-77570000D01*
X101830000Y-76200000D02*
X101060000Y-76200000D01*
X93750000Y-76200000D02*
X94520000Y-76200000D01*
X125730000Y-53110000D02*
X125730000Y-53880000D01*
X125730000Y-61190000D02*
X125730000Y-60420000D01*
X124360000Y-53880000D02*
X124360000Y-60420000D01*
X127100000Y-53880000D02*
X124360000Y-53880000D01*
X127100000Y-60420000D02*
X127100000Y-53880000D01*
X124360000Y-60420000D02*
X127100000Y-60420000D01*
X140870000Y-60420000D02*
X143610000Y-60420000D01*
X143610000Y-60420000D02*
X143610000Y-53880000D01*
X143610000Y-53880000D02*
X140870000Y-53880000D01*
X140870000Y-53880000D02*
X140870000Y-60420000D01*
X142240000Y-61190000D02*
X142240000Y-60420000D01*
X142240000Y-53110000D02*
X142240000Y-53880000D01*
X158750000Y-53110000D02*
X158750000Y-53880000D01*
X158750000Y-61190000D02*
X158750000Y-60420000D01*
X157380000Y-53880000D02*
X157380000Y-60420000D01*
X160120000Y-53880000D02*
X157380000Y-53880000D01*
X160120000Y-60420000D02*
X160120000Y-53880000D01*
X157380000Y-60420000D02*
X160120000Y-60420000D01*
X173890000Y-60420000D02*
X176630000Y-60420000D01*
X176630000Y-60420000D02*
X176630000Y-53880000D01*
X176630000Y-53880000D02*
X173890000Y-53880000D01*
X173890000Y-53880000D02*
X173890000Y-60420000D01*
X175260000Y-61190000D02*
X175260000Y-60420000D01*
X175260000Y-53110000D02*
X175260000Y-53880000D01*
X191770000Y-53110000D02*
X191770000Y-53880000D01*
X191770000Y-61190000D02*
X191770000Y-60420000D01*
X190400000Y-53880000D02*
X190400000Y-60420000D01*
X193140000Y-53880000D02*
X190400000Y-53880000D01*
X193140000Y-60420000D02*
X193140000Y-53880000D01*
X190400000Y-60420000D02*
X193140000Y-60420000D01*
X107850000Y-60420000D02*
X110590000Y-60420000D01*
X110590000Y-60420000D02*
X110590000Y-53880000D01*
X110590000Y-53880000D02*
X107850000Y-53880000D01*
X107850000Y-53880000D02*
X107850000Y-60420000D01*
X109220000Y-61190000D02*
X109220000Y-60420000D01*
X109220000Y-53110000D02*
X109220000Y-53880000D01*
X109670000Y-101600462D02*
G75*
G03X104120000Y-100055170I-2990000J462D01*
G01*
X109670000Y-101599538D02*
G75*
G02X104120000Y-103144830I-2990000J-462D01*
G01*
X109180000Y-101600000D02*
G75*
G03X109180000Y-101600000I-2500000J0D01*
G01*
X104120000Y-100055000D02*
X104120000Y-103145000D01*
X104120000Y-90530000D02*
X104120000Y-93620000D01*
X109180000Y-92075000D02*
G75*
G03X109180000Y-92075000I-2500000J0D01*
G01*
X109670000Y-92074538D02*
G75*
G02X104120000Y-93619830I-2990000J-462D01*
G01*
X109670000Y-92075462D02*
G75*
G03X104120000Y-90530170I-2990000J462D01*
G01*
X109670000Y-81280462D02*
G75*
G03X104120000Y-79735170I-2990000J462D01*
G01*
X109670000Y-81279538D02*
G75*
G02X104120000Y-82824830I-2990000J-462D01*
G01*
X109180000Y-81280000D02*
G75*
G03X109180000Y-81280000I-2500000J0D01*
G01*
X104120000Y-79735000D02*
X104120000Y-82825000D01*
X104120000Y-68940000D02*
X104120000Y-72030000D01*
X109180000Y-70485000D02*
G75*
G03X109180000Y-70485000I-2500000J0D01*
G01*
X109670000Y-70484538D02*
G75*
G02X104120000Y-72029830I-2990000J-462D01*
G01*
X109670000Y-70485462D02*
G75*
G03X104120000Y-68940170I-2990000J462D01*
G01*
X88150001Y-52545001D02*
X88150001Y-51495001D01*
X87100001Y-51495001D02*
X88150001Y-51495001D01*
X82050001Y-60895001D02*
X73250001Y-60895001D01*
X73250001Y-60895001D02*
X73250001Y-51695001D01*
X87950001Y-58195001D02*
X87950001Y-60895001D01*
X87950001Y-60895001D02*
X86050001Y-60895001D01*
X73250001Y-51695001D02*
X87950001Y-51695001D01*
X87950001Y-51695001D02*
X87950001Y-54295001D01*
D11*
X75438095Y-110657380D02*
X75438095Y-109657380D01*
X75438095Y-110133571D02*
X76009523Y-110133571D01*
X76009523Y-110657380D02*
X76009523Y-109657380D01*
X76961904Y-109657380D02*
X76485714Y-109657380D01*
X76438095Y-110133571D01*
X76485714Y-110085952D01*
X76580952Y-110038333D01*
X76819047Y-110038333D01*
X76914285Y-110085952D01*
X76961904Y-110133571D01*
X77009523Y-110228809D01*
X77009523Y-110466904D01*
X76961904Y-110562142D01*
X76914285Y-110609761D01*
X76819047Y-110657380D01*
X76580952Y-110657380D01*
X76485714Y-110609761D01*
X76438095Y-110562142D01*
X185928095Y-39537380D02*
X185928095Y-38537380D01*
X185928095Y-39013571D02*
X186499523Y-39013571D01*
X186499523Y-39537380D02*
X186499523Y-38537380D01*
X187404285Y-38537380D02*
X187213809Y-38537380D01*
X187118571Y-38585000D01*
X187070952Y-38632619D01*
X186975714Y-38775476D01*
X186928095Y-38965952D01*
X186928095Y-39346904D01*
X186975714Y-39442142D01*
X187023333Y-39489761D01*
X187118571Y-39537380D01*
X187309047Y-39537380D01*
X187404285Y-39489761D01*
X187451904Y-39442142D01*
X187499523Y-39346904D01*
X187499523Y-39108809D01*
X187451904Y-39013571D01*
X187404285Y-38965952D01*
X187309047Y-38918333D01*
X187118571Y-38918333D01*
X187023333Y-38965952D01*
X186975714Y-39013571D01*
X186928095Y-39108809D01*
X76073095Y-38267380D02*
X76073095Y-37267380D01*
X76073095Y-37743571D02*
X76644523Y-37743571D01*
X76644523Y-38267380D02*
X76644523Y-37267380D01*
X77263571Y-37695952D02*
X77168333Y-37648333D01*
X77120714Y-37600714D01*
X77073095Y-37505476D01*
X77073095Y-37457857D01*
X77120714Y-37362619D01*
X77168333Y-37315000D01*
X77263571Y-37267380D01*
X77454047Y-37267380D01*
X77549285Y-37315000D01*
X77596904Y-37362619D01*
X77644523Y-37457857D01*
X77644523Y-37505476D01*
X77596904Y-37600714D01*
X77549285Y-37648333D01*
X77454047Y-37695952D01*
X77263571Y-37695952D01*
X77168333Y-37743571D01*
X77120714Y-37791190D01*
X77073095Y-37886428D01*
X77073095Y-38076904D01*
X77120714Y-38172142D01*
X77168333Y-38219761D01*
X77263571Y-38267380D01*
X77454047Y-38267380D01*
X77549285Y-38219761D01*
X77596904Y-38172142D01*
X77644523Y-38076904D01*
X77644523Y-37886428D01*
X77596904Y-37791190D01*
X77549285Y-37743571D01*
X77454047Y-37695952D01*
X186563095Y-108752380D02*
X186563095Y-107752380D01*
X186563095Y-108228571D02*
X187134523Y-108228571D01*
X187134523Y-108752380D02*
X187134523Y-107752380D01*
X187515476Y-107752380D02*
X188182142Y-107752380D01*
X187753571Y-108752380D01*
X86233095Y-113092380D02*
X86233095Y-112092380D01*
X86233095Y-112568571D02*
X86804523Y-112568571D01*
X86804523Y-113092380D02*
X86804523Y-112092380D01*
X87804523Y-113092380D02*
X87233095Y-113092380D01*
X87518809Y-113092380D02*
X87518809Y-112092380D01*
X87423571Y-112235238D01*
X87328333Y-112330476D01*
X87233095Y-112378095D01*
X175133095Y-41337380D02*
X175133095Y-40337380D01*
X175133095Y-40813571D02*
X175704523Y-40813571D01*
X175704523Y-41337380D02*
X175704523Y-40337380D01*
X176609285Y-40670714D02*
X176609285Y-41337380D01*
X176371190Y-40289761D02*
X176133095Y-41004047D01*
X176752142Y-41004047D01*
X87503095Y-39432380D02*
X87503095Y-38432380D01*
X87503095Y-38908571D02*
X88074523Y-38908571D01*
X88074523Y-39432380D02*
X88074523Y-38432380D01*
X88503095Y-38527619D02*
X88550714Y-38480000D01*
X88645952Y-38432380D01*
X88884047Y-38432380D01*
X88979285Y-38480000D01*
X89026904Y-38527619D01*
X89074523Y-38622857D01*
X89074523Y-38718095D01*
X89026904Y-38860952D01*
X88455476Y-39432380D01*
X89074523Y-39432380D01*
X175768095Y-110552380D02*
X175768095Y-109552380D01*
X175768095Y-110028571D02*
X176339523Y-110028571D01*
X176339523Y-110552380D02*
X176339523Y-109552380D01*
X176720476Y-109552380D02*
X177339523Y-109552380D01*
X177006190Y-109933333D01*
X177149047Y-109933333D01*
X177244285Y-109980952D01*
X177291904Y-110028571D01*
X177339523Y-110123809D01*
X177339523Y-110361904D01*
X177291904Y-110457142D01*
X177244285Y-110504761D01*
X177149047Y-110552380D01*
X176863333Y-110552380D01*
X176768095Y-110504761D01*
X176720476Y-110457142D01*
X191772380Y-104065238D02*
X191772380Y-103970000D01*
X191820000Y-103874761D01*
X191867619Y-103827142D01*
X191962857Y-103779523D01*
X192153333Y-103731904D01*
X192391428Y-103731904D01*
X192581904Y-103779523D01*
X192677142Y-103827142D01*
X192724761Y-103874761D01*
X192772380Y-103970000D01*
X192772380Y-104065238D01*
X192724761Y-104160476D01*
X192677142Y-104208095D01*
X192581904Y-104255714D01*
X192391428Y-104303333D01*
X192153333Y-104303333D01*
X191962857Y-104255714D01*
X191867619Y-104208095D01*
X191820000Y-104160476D01*
X191772380Y-104065238D01*
X192677142Y-103303333D02*
X192724761Y-103255714D01*
X192772380Y-103303333D01*
X192724761Y-103350952D01*
X192677142Y-103303333D01*
X192772380Y-103303333D01*
X192772380Y-102303333D02*
X192772380Y-102874761D01*
X192772380Y-102589047D02*
X191772380Y-102589047D01*
X191915238Y-102684285D01*
X192010476Y-102779523D01*
X192058095Y-102874761D01*
X192105714Y-101446190D02*
X192772380Y-101446190D01*
X192105714Y-101874761D02*
X192629523Y-101874761D01*
X192724761Y-101827142D01*
X192772380Y-101731904D01*
X192772380Y-101589047D01*
X192724761Y-101493809D01*
X192677142Y-101446190D01*
X192248571Y-100636666D02*
X192248571Y-100970000D01*
X192772380Y-100970000D02*
X191772380Y-100970000D01*
X191772380Y-100493809D01*
X191867619Y-100160476D02*
X191820000Y-100112857D01*
X191772380Y-100017619D01*
X191772380Y-99779523D01*
X191820000Y-99684285D01*
X191867619Y-99636666D01*
X191962857Y-99589047D01*
X192058095Y-99589047D01*
X192200952Y-99636666D01*
X192772380Y-100208095D01*
X192772380Y-99589047D01*
X191772380Y-98970000D02*
X191772380Y-98874761D01*
X191820000Y-98779523D01*
X191867619Y-98731904D01*
X191962857Y-98684285D01*
X192153333Y-98636666D01*
X192391428Y-98636666D01*
X192581904Y-98684285D01*
X192677142Y-98731904D01*
X192724761Y-98779523D01*
X192772380Y-98874761D01*
X192772380Y-98970000D01*
X192724761Y-99065238D01*
X192677142Y-99112857D01*
X192581904Y-99160476D01*
X192391428Y-99208095D01*
X192153333Y-99208095D01*
X191962857Y-99160476D01*
X191867619Y-99112857D01*
X191820000Y-99065238D01*
X191772380Y-98970000D01*
X191772380Y-93905238D02*
X191772380Y-93810000D01*
X191820000Y-93714761D01*
X191867619Y-93667142D01*
X191962857Y-93619523D01*
X192153333Y-93571904D01*
X192391428Y-93571904D01*
X192581904Y-93619523D01*
X192677142Y-93667142D01*
X192724761Y-93714761D01*
X192772380Y-93810000D01*
X192772380Y-93905238D01*
X192724761Y-94000476D01*
X192677142Y-94048095D01*
X192581904Y-94095714D01*
X192391428Y-94143333D01*
X192153333Y-94143333D01*
X191962857Y-94095714D01*
X191867619Y-94048095D01*
X191820000Y-94000476D01*
X191772380Y-93905238D01*
X192677142Y-93143333D02*
X192724761Y-93095714D01*
X192772380Y-93143333D01*
X192724761Y-93190952D01*
X192677142Y-93143333D01*
X192772380Y-93143333D01*
X192772380Y-92143333D02*
X192772380Y-92714761D01*
X192772380Y-92429047D02*
X191772380Y-92429047D01*
X191915238Y-92524285D01*
X192010476Y-92619523D01*
X192058095Y-92714761D01*
X192105714Y-91286190D02*
X192772380Y-91286190D01*
X192105714Y-91714761D02*
X192629523Y-91714761D01*
X192724761Y-91667142D01*
X192772380Y-91571904D01*
X192772380Y-91429047D01*
X192724761Y-91333809D01*
X192677142Y-91286190D01*
X192248571Y-90476666D02*
X192248571Y-90810000D01*
X192772380Y-90810000D02*
X191772380Y-90810000D01*
X191772380Y-90333809D01*
X192772380Y-89429047D02*
X192772380Y-90000476D01*
X192772380Y-89714761D02*
X191772380Y-89714761D01*
X191915238Y-89810000D01*
X192010476Y-89905238D01*
X192058095Y-90000476D01*
X191772380Y-88524285D02*
X191772380Y-89000476D01*
X192248571Y-89048095D01*
X192200952Y-89000476D01*
X192153333Y-88905238D01*
X192153333Y-88667142D01*
X192200952Y-88571904D01*
X192248571Y-88524285D01*
X192343809Y-88476666D01*
X192581904Y-88476666D01*
X192677142Y-88524285D01*
X192724761Y-88571904D01*
X192772380Y-88667142D01*
X192772380Y-88905238D01*
X192724761Y-89000476D01*
X192677142Y-89048095D01*
X191772380Y-83745238D02*
X191772380Y-83650000D01*
X191820000Y-83554761D01*
X191867619Y-83507142D01*
X191962857Y-83459523D01*
X192153333Y-83411904D01*
X192391428Y-83411904D01*
X192581904Y-83459523D01*
X192677142Y-83507142D01*
X192724761Y-83554761D01*
X192772380Y-83650000D01*
X192772380Y-83745238D01*
X192724761Y-83840476D01*
X192677142Y-83888095D01*
X192581904Y-83935714D01*
X192391428Y-83983333D01*
X192153333Y-83983333D01*
X191962857Y-83935714D01*
X191867619Y-83888095D01*
X191820000Y-83840476D01*
X191772380Y-83745238D01*
X192677142Y-82983333D02*
X192724761Y-82935714D01*
X192772380Y-82983333D01*
X192724761Y-83030952D01*
X192677142Y-82983333D01*
X192772380Y-82983333D01*
X192772380Y-81983333D02*
X192772380Y-82554761D01*
X192772380Y-82269047D02*
X191772380Y-82269047D01*
X191915238Y-82364285D01*
X192010476Y-82459523D01*
X192058095Y-82554761D01*
X192105714Y-81126190D02*
X192772380Y-81126190D01*
X192105714Y-81554761D02*
X192629523Y-81554761D01*
X192724761Y-81507142D01*
X192772380Y-81411904D01*
X192772380Y-81269047D01*
X192724761Y-81173809D01*
X192677142Y-81126190D01*
X192248571Y-80316666D02*
X192248571Y-80650000D01*
X192772380Y-80650000D02*
X191772380Y-80650000D01*
X191772380Y-80173809D01*
X192772380Y-79269047D02*
X192772380Y-79840476D01*
X192772380Y-79554761D02*
X191772380Y-79554761D01*
X191915238Y-79650000D01*
X192010476Y-79745238D01*
X192058095Y-79840476D01*
X191772380Y-78650000D02*
X191772380Y-78554761D01*
X191820000Y-78459523D01*
X191867619Y-78411904D01*
X191962857Y-78364285D01*
X192153333Y-78316666D01*
X192391428Y-78316666D01*
X192581904Y-78364285D01*
X192677142Y-78411904D01*
X192724761Y-78459523D01*
X192772380Y-78554761D01*
X192772380Y-78650000D01*
X192724761Y-78745238D01*
X192677142Y-78792857D01*
X192581904Y-78840476D01*
X192391428Y-78888095D01*
X192153333Y-78888095D01*
X191962857Y-78840476D01*
X191867619Y-78792857D01*
X191820000Y-78745238D01*
X191772380Y-78650000D01*
X191772380Y-71839047D02*
X191772380Y-71743809D01*
X191820000Y-71648571D01*
X191867619Y-71600952D01*
X191962857Y-71553333D01*
X192153333Y-71505714D01*
X192391428Y-71505714D01*
X192581904Y-71553333D01*
X192677142Y-71600952D01*
X192724761Y-71648571D01*
X192772380Y-71743809D01*
X192772380Y-71839047D01*
X192724761Y-71934285D01*
X192677142Y-71981904D01*
X192581904Y-72029523D01*
X192391428Y-72077142D01*
X192153333Y-72077142D01*
X191962857Y-72029523D01*
X191867619Y-71981904D01*
X191820000Y-71934285D01*
X191772380Y-71839047D01*
X192677142Y-71077142D02*
X192724761Y-71029523D01*
X192772380Y-71077142D01*
X192724761Y-71124761D01*
X192677142Y-71077142D01*
X192772380Y-71077142D01*
X192772380Y-70077142D02*
X192772380Y-70648571D01*
X192772380Y-70362857D02*
X191772380Y-70362857D01*
X191915238Y-70458095D01*
X192010476Y-70553333D01*
X192058095Y-70648571D01*
X192105714Y-69220000D02*
X192772380Y-69220000D01*
X192105714Y-69648571D02*
X192629523Y-69648571D01*
X192724761Y-69600952D01*
X192772380Y-69505714D01*
X192772380Y-69362857D01*
X192724761Y-69267619D01*
X192677142Y-69220000D01*
X192248571Y-68410476D02*
X192248571Y-68743809D01*
X192772380Y-68743809D02*
X191772380Y-68743809D01*
X191772380Y-68267619D01*
X191772380Y-67410476D02*
X191772380Y-67886666D01*
X192248571Y-67934285D01*
X192200952Y-67886666D01*
X192153333Y-67791428D01*
X192153333Y-67553333D01*
X192200952Y-67458095D01*
X192248571Y-67410476D01*
X192343809Y-67362857D01*
X192581904Y-67362857D01*
X192677142Y-67410476D01*
X192724761Y-67458095D01*
X192772380Y-67553333D01*
X192772380Y-67791428D01*
X192724761Y-67886666D01*
X192677142Y-67934285D01*
X125732380Y-71969047D02*
X125732380Y-71873809D01*
X125780000Y-71778571D01*
X125827619Y-71730952D01*
X125922857Y-71683333D01*
X126113333Y-71635714D01*
X126351428Y-71635714D01*
X126541904Y-71683333D01*
X126637142Y-71730952D01*
X126684761Y-71778571D01*
X126732380Y-71873809D01*
X126732380Y-71969047D01*
X126684761Y-72064285D01*
X126637142Y-72111904D01*
X126541904Y-72159523D01*
X126351428Y-72207142D01*
X126113333Y-72207142D01*
X125922857Y-72159523D01*
X125827619Y-72111904D01*
X125780000Y-72064285D01*
X125732380Y-71969047D01*
X126637142Y-71207142D02*
X126684761Y-71159523D01*
X126732380Y-71207142D01*
X126684761Y-71254761D01*
X126637142Y-71207142D01*
X126732380Y-71207142D01*
X126732380Y-70207142D02*
X126732380Y-70778571D01*
X126732380Y-70492857D02*
X125732380Y-70492857D01*
X125875238Y-70588095D01*
X125970476Y-70683333D01*
X126018095Y-70778571D01*
X126065714Y-69350000D02*
X126732380Y-69350000D01*
X126065714Y-69778571D02*
X126589523Y-69778571D01*
X126684761Y-69730952D01*
X126732380Y-69635714D01*
X126732380Y-69492857D01*
X126684761Y-69397619D01*
X126637142Y-69350000D01*
X126208571Y-68540476D02*
X126208571Y-68873809D01*
X126732380Y-68873809D02*
X125732380Y-68873809D01*
X125732380Y-68397619D01*
X126732380Y-67492857D02*
X126732380Y-68064285D01*
X126732380Y-67778571D02*
X125732380Y-67778571D01*
X125875238Y-67873809D01*
X125970476Y-67969047D01*
X126018095Y-68064285D01*
X125732380Y-83269047D02*
X125732380Y-83173809D01*
X125780000Y-83078571D01*
X125827619Y-83030952D01*
X125922857Y-82983333D01*
X126113333Y-82935714D01*
X126351428Y-82935714D01*
X126541904Y-82983333D01*
X126637142Y-83030952D01*
X126684761Y-83078571D01*
X126732380Y-83173809D01*
X126732380Y-83269047D01*
X126684761Y-83364285D01*
X126637142Y-83411904D01*
X126541904Y-83459523D01*
X126351428Y-83507142D01*
X126113333Y-83507142D01*
X125922857Y-83459523D01*
X125827619Y-83411904D01*
X125780000Y-83364285D01*
X125732380Y-83269047D01*
X126637142Y-82507142D02*
X126684761Y-82459523D01*
X126732380Y-82507142D01*
X126684761Y-82554761D01*
X126637142Y-82507142D01*
X126732380Y-82507142D01*
X126732380Y-81507142D02*
X126732380Y-82078571D01*
X126732380Y-81792857D02*
X125732380Y-81792857D01*
X125875238Y-81888095D01*
X125970476Y-81983333D01*
X126018095Y-82078571D01*
X126065714Y-80650000D02*
X126732380Y-80650000D01*
X126065714Y-81078571D02*
X126589523Y-81078571D01*
X126684761Y-81030952D01*
X126732380Y-80935714D01*
X126732380Y-80792857D01*
X126684761Y-80697619D01*
X126637142Y-80650000D01*
X126208571Y-79840476D02*
X126208571Y-80173809D01*
X126732380Y-80173809D02*
X125732380Y-80173809D01*
X125732380Y-79697619D01*
X125732380Y-78888095D02*
X125732380Y-79078571D01*
X125780000Y-79173809D01*
X125827619Y-79221428D01*
X125970476Y-79316666D01*
X126160952Y-79364285D01*
X126541904Y-79364285D01*
X126637142Y-79316666D01*
X126684761Y-79269047D01*
X126732380Y-79173809D01*
X126732380Y-78983333D01*
X126684761Y-78888095D01*
X126637142Y-78840476D01*
X126541904Y-78792857D01*
X126303809Y-78792857D01*
X126208571Y-78840476D01*
X126160952Y-78888095D01*
X126113333Y-78983333D01*
X126113333Y-79173809D01*
X126160952Y-79269047D01*
X126208571Y-79316666D01*
X126303809Y-79364285D01*
X125732380Y-94035238D02*
X125732380Y-93940000D01*
X125780000Y-93844761D01*
X125827619Y-93797142D01*
X125922857Y-93749523D01*
X126113333Y-93701904D01*
X126351428Y-93701904D01*
X126541904Y-93749523D01*
X126637142Y-93797142D01*
X126684761Y-93844761D01*
X126732380Y-93940000D01*
X126732380Y-94035238D01*
X126684761Y-94130476D01*
X126637142Y-94178095D01*
X126541904Y-94225714D01*
X126351428Y-94273333D01*
X126113333Y-94273333D01*
X125922857Y-94225714D01*
X125827619Y-94178095D01*
X125780000Y-94130476D01*
X125732380Y-94035238D01*
X126637142Y-93273333D02*
X126684761Y-93225714D01*
X126732380Y-93273333D01*
X126684761Y-93320952D01*
X126637142Y-93273333D01*
X126732380Y-93273333D01*
X126732380Y-92273333D02*
X126732380Y-92844761D01*
X126732380Y-92559047D02*
X125732380Y-92559047D01*
X125875238Y-92654285D01*
X125970476Y-92749523D01*
X126018095Y-92844761D01*
X126065714Y-91416190D02*
X126732380Y-91416190D01*
X126065714Y-91844761D02*
X126589523Y-91844761D01*
X126684761Y-91797142D01*
X126732380Y-91701904D01*
X126732380Y-91559047D01*
X126684761Y-91463809D01*
X126637142Y-91416190D01*
X126208571Y-90606666D02*
X126208571Y-90940000D01*
X126732380Y-90940000D02*
X125732380Y-90940000D01*
X125732380Y-90463809D01*
X126732380Y-89559047D02*
X126732380Y-90130476D01*
X126732380Y-89844761D02*
X125732380Y-89844761D01*
X125875238Y-89940000D01*
X125970476Y-90035238D01*
X126018095Y-90130476D01*
X126732380Y-88606666D02*
X126732380Y-89178095D01*
X126732380Y-88892380D02*
X125732380Y-88892380D01*
X125875238Y-88987619D01*
X125970476Y-89082857D01*
X126018095Y-89178095D01*
X125732380Y-104065238D02*
X125732380Y-103970000D01*
X125780000Y-103874761D01*
X125827619Y-103827142D01*
X125922857Y-103779523D01*
X126113333Y-103731904D01*
X126351428Y-103731904D01*
X126541904Y-103779523D01*
X126637142Y-103827142D01*
X126684761Y-103874761D01*
X126732380Y-103970000D01*
X126732380Y-104065238D01*
X126684761Y-104160476D01*
X126637142Y-104208095D01*
X126541904Y-104255714D01*
X126351428Y-104303333D01*
X126113333Y-104303333D01*
X125922857Y-104255714D01*
X125827619Y-104208095D01*
X125780000Y-104160476D01*
X125732380Y-104065238D01*
X126637142Y-103303333D02*
X126684761Y-103255714D01*
X126732380Y-103303333D01*
X126684761Y-103350952D01*
X126637142Y-103303333D01*
X126732380Y-103303333D01*
X126732380Y-102303333D02*
X126732380Y-102874761D01*
X126732380Y-102589047D02*
X125732380Y-102589047D01*
X125875238Y-102684285D01*
X125970476Y-102779523D01*
X126018095Y-102874761D01*
X126065714Y-101446190D02*
X126732380Y-101446190D01*
X126065714Y-101874761D02*
X126589523Y-101874761D01*
X126684761Y-101827142D01*
X126732380Y-101731904D01*
X126732380Y-101589047D01*
X126684761Y-101493809D01*
X126637142Y-101446190D01*
X126208571Y-100636666D02*
X126208571Y-100970000D01*
X126732380Y-100970000D02*
X125732380Y-100970000D01*
X125732380Y-100493809D01*
X126732380Y-99589047D02*
X126732380Y-100160476D01*
X126732380Y-99874761D02*
X125732380Y-99874761D01*
X125875238Y-99970000D01*
X125970476Y-100065238D01*
X126018095Y-100160476D01*
X125732380Y-98731904D02*
X125732380Y-98922380D01*
X125780000Y-99017619D01*
X125827619Y-99065238D01*
X125970476Y-99160476D01*
X126160952Y-99208095D01*
X126541904Y-99208095D01*
X126637142Y-99160476D01*
X126684761Y-99112857D01*
X126732380Y-99017619D01*
X126732380Y-98827142D01*
X126684761Y-98731904D01*
X126637142Y-98684285D01*
X126541904Y-98636666D01*
X126303809Y-98636666D01*
X126208571Y-98684285D01*
X126160952Y-98731904D01*
X126113333Y-98827142D01*
X126113333Y-99017619D01*
X126160952Y-99112857D01*
X126208571Y-99160476D01*
X126303809Y-99208095D01*
X142242380Y-72099047D02*
X142242380Y-72003809D01*
X142290000Y-71908571D01*
X142337619Y-71860952D01*
X142432857Y-71813333D01*
X142623333Y-71765714D01*
X142861428Y-71765714D01*
X143051904Y-71813333D01*
X143147142Y-71860952D01*
X143194761Y-71908571D01*
X143242380Y-72003809D01*
X143242380Y-72099047D01*
X143194761Y-72194285D01*
X143147142Y-72241904D01*
X143051904Y-72289523D01*
X142861428Y-72337142D01*
X142623333Y-72337142D01*
X142432857Y-72289523D01*
X142337619Y-72241904D01*
X142290000Y-72194285D01*
X142242380Y-72099047D01*
X143147142Y-71337142D02*
X143194761Y-71289523D01*
X143242380Y-71337142D01*
X143194761Y-71384761D01*
X143147142Y-71337142D01*
X143242380Y-71337142D01*
X143242380Y-70337142D02*
X143242380Y-70908571D01*
X143242380Y-70622857D02*
X142242380Y-70622857D01*
X142385238Y-70718095D01*
X142480476Y-70813333D01*
X142528095Y-70908571D01*
X142575714Y-69480000D02*
X143242380Y-69480000D01*
X142575714Y-69908571D02*
X143099523Y-69908571D01*
X143194761Y-69860952D01*
X143242380Y-69765714D01*
X143242380Y-69622857D01*
X143194761Y-69527619D01*
X143147142Y-69480000D01*
X142718571Y-68670476D02*
X142718571Y-69003809D01*
X143242380Y-69003809D02*
X142242380Y-69003809D01*
X142242380Y-68527619D01*
X142337619Y-68194285D02*
X142290000Y-68146666D01*
X142242380Y-68051428D01*
X142242380Y-67813333D01*
X142290000Y-67718095D01*
X142337619Y-67670476D01*
X142432857Y-67622857D01*
X142528095Y-67622857D01*
X142670952Y-67670476D01*
X143242380Y-68241904D01*
X143242380Y-67622857D01*
X142242380Y-83269047D02*
X142242380Y-83173809D01*
X142290000Y-83078571D01*
X142337619Y-83030952D01*
X142432857Y-82983333D01*
X142623333Y-82935714D01*
X142861428Y-82935714D01*
X143051904Y-82983333D01*
X143147142Y-83030952D01*
X143194761Y-83078571D01*
X143242380Y-83173809D01*
X143242380Y-83269047D01*
X143194761Y-83364285D01*
X143147142Y-83411904D01*
X143051904Y-83459523D01*
X142861428Y-83507142D01*
X142623333Y-83507142D01*
X142432857Y-83459523D01*
X142337619Y-83411904D01*
X142290000Y-83364285D01*
X142242380Y-83269047D01*
X143147142Y-82507142D02*
X143194761Y-82459523D01*
X143242380Y-82507142D01*
X143194761Y-82554761D01*
X143147142Y-82507142D01*
X143242380Y-82507142D01*
X143242380Y-81507142D02*
X143242380Y-82078571D01*
X143242380Y-81792857D02*
X142242380Y-81792857D01*
X142385238Y-81888095D01*
X142480476Y-81983333D01*
X142528095Y-82078571D01*
X142575714Y-80650000D02*
X143242380Y-80650000D01*
X142575714Y-81078571D02*
X143099523Y-81078571D01*
X143194761Y-81030952D01*
X143242380Y-80935714D01*
X143242380Y-80792857D01*
X143194761Y-80697619D01*
X143147142Y-80650000D01*
X142718571Y-79840476D02*
X142718571Y-80173809D01*
X143242380Y-80173809D02*
X142242380Y-80173809D01*
X142242380Y-79697619D01*
X142242380Y-79411904D02*
X142242380Y-78745238D01*
X143242380Y-79173809D01*
X142242380Y-94035238D02*
X142242380Y-93940000D01*
X142290000Y-93844761D01*
X142337619Y-93797142D01*
X142432857Y-93749523D01*
X142623333Y-93701904D01*
X142861428Y-93701904D01*
X143051904Y-93749523D01*
X143147142Y-93797142D01*
X143194761Y-93844761D01*
X143242380Y-93940000D01*
X143242380Y-94035238D01*
X143194761Y-94130476D01*
X143147142Y-94178095D01*
X143051904Y-94225714D01*
X142861428Y-94273333D01*
X142623333Y-94273333D01*
X142432857Y-94225714D01*
X142337619Y-94178095D01*
X142290000Y-94130476D01*
X142242380Y-94035238D01*
X143147142Y-93273333D02*
X143194761Y-93225714D01*
X143242380Y-93273333D01*
X143194761Y-93320952D01*
X143147142Y-93273333D01*
X143242380Y-93273333D01*
X143242380Y-92273333D02*
X143242380Y-92844761D01*
X143242380Y-92559047D02*
X142242380Y-92559047D01*
X142385238Y-92654285D01*
X142480476Y-92749523D01*
X142528095Y-92844761D01*
X142575714Y-91416190D02*
X143242380Y-91416190D01*
X142575714Y-91844761D02*
X143099523Y-91844761D01*
X143194761Y-91797142D01*
X143242380Y-91701904D01*
X143242380Y-91559047D01*
X143194761Y-91463809D01*
X143147142Y-91416190D01*
X142718571Y-90606666D02*
X142718571Y-90940000D01*
X143242380Y-90940000D02*
X142242380Y-90940000D01*
X142242380Y-90463809D01*
X143242380Y-89559047D02*
X143242380Y-90130476D01*
X143242380Y-89844761D02*
X142242380Y-89844761D01*
X142385238Y-89940000D01*
X142480476Y-90035238D01*
X142528095Y-90130476D01*
X142337619Y-89178095D02*
X142290000Y-89130476D01*
X142242380Y-89035238D01*
X142242380Y-88797142D01*
X142290000Y-88701904D01*
X142337619Y-88654285D01*
X142432857Y-88606666D01*
X142528095Y-88606666D01*
X142670952Y-88654285D01*
X143242380Y-89225714D01*
X143242380Y-88606666D01*
X142242380Y-104065238D02*
X142242380Y-103970000D01*
X142290000Y-103874761D01*
X142337619Y-103827142D01*
X142432857Y-103779523D01*
X142623333Y-103731904D01*
X142861428Y-103731904D01*
X143051904Y-103779523D01*
X143147142Y-103827142D01*
X143194761Y-103874761D01*
X143242380Y-103970000D01*
X143242380Y-104065238D01*
X143194761Y-104160476D01*
X143147142Y-104208095D01*
X143051904Y-104255714D01*
X142861428Y-104303333D01*
X142623333Y-104303333D01*
X142432857Y-104255714D01*
X142337619Y-104208095D01*
X142290000Y-104160476D01*
X142242380Y-104065238D01*
X143147142Y-103303333D02*
X143194761Y-103255714D01*
X143242380Y-103303333D01*
X143194761Y-103350952D01*
X143147142Y-103303333D01*
X143242380Y-103303333D01*
X143242380Y-102303333D02*
X143242380Y-102874761D01*
X143242380Y-102589047D02*
X142242380Y-102589047D01*
X142385238Y-102684285D01*
X142480476Y-102779523D01*
X142528095Y-102874761D01*
X142575714Y-101446190D02*
X143242380Y-101446190D01*
X142575714Y-101874761D02*
X143099523Y-101874761D01*
X143194761Y-101827142D01*
X143242380Y-101731904D01*
X143242380Y-101589047D01*
X143194761Y-101493809D01*
X143147142Y-101446190D01*
X142718571Y-100636666D02*
X142718571Y-100970000D01*
X143242380Y-100970000D02*
X142242380Y-100970000D01*
X142242380Y-100493809D01*
X143242380Y-99589047D02*
X143242380Y-100160476D01*
X143242380Y-99874761D02*
X142242380Y-99874761D01*
X142385238Y-99970000D01*
X142480476Y-100065238D01*
X142528095Y-100160476D01*
X142242380Y-99255714D02*
X142242380Y-98589047D01*
X143242380Y-99017619D01*
X158752380Y-71969047D02*
X158752380Y-71873809D01*
X158800000Y-71778571D01*
X158847619Y-71730952D01*
X158942857Y-71683333D01*
X159133333Y-71635714D01*
X159371428Y-71635714D01*
X159561904Y-71683333D01*
X159657142Y-71730952D01*
X159704761Y-71778571D01*
X159752380Y-71873809D01*
X159752380Y-71969047D01*
X159704761Y-72064285D01*
X159657142Y-72111904D01*
X159561904Y-72159523D01*
X159371428Y-72207142D01*
X159133333Y-72207142D01*
X158942857Y-72159523D01*
X158847619Y-72111904D01*
X158800000Y-72064285D01*
X158752380Y-71969047D01*
X159657142Y-71207142D02*
X159704761Y-71159523D01*
X159752380Y-71207142D01*
X159704761Y-71254761D01*
X159657142Y-71207142D01*
X159752380Y-71207142D01*
X159752380Y-70207142D02*
X159752380Y-70778571D01*
X159752380Y-70492857D02*
X158752380Y-70492857D01*
X158895238Y-70588095D01*
X158990476Y-70683333D01*
X159038095Y-70778571D01*
X159085714Y-69350000D02*
X159752380Y-69350000D01*
X159085714Y-69778571D02*
X159609523Y-69778571D01*
X159704761Y-69730952D01*
X159752380Y-69635714D01*
X159752380Y-69492857D01*
X159704761Y-69397619D01*
X159657142Y-69350000D01*
X159228571Y-68540476D02*
X159228571Y-68873809D01*
X159752380Y-68873809D02*
X158752380Y-68873809D01*
X158752380Y-68397619D01*
X158752380Y-68111904D02*
X158752380Y-67492857D01*
X159133333Y-67826190D01*
X159133333Y-67683333D01*
X159180952Y-67588095D01*
X159228571Y-67540476D01*
X159323809Y-67492857D01*
X159561904Y-67492857D01*
X159657142Y-67540476D01*
X159704761Y-67588095D01*
X159752380Y-67683333D01*
X159752380Y-67969047D01*
X159704761Y-68064285D01*
X159657142Y-68111904D01*
X158752380Y-83399047D02*
X158752380Y-83303809D01*
X158800000Y-83208571D01*
X158847619Y-83160952D01*
X158942857Y-83113333D01*
X159133333Y-83065714D01*
X159371428Y-83065714D01*
X159561904Y-83113333D01*
X159657142Y-83160952D01*
X159704761Y-83208571D01*
X159752380Y-83303809D01*
X159752380Y-83399047D01*
X159704761Y-83494285D01*
X159657142Y-83541904D01*
X159561904Y-83589523D01*
X159371428Y-83637142D01*
X159133333Y-83637142D01*
X158942857Y-83589523D01*
X158847619Y-83541904D01*
X158800000Y-83494285D01*
X158752380Y-83399047D01*
X159657142Y-82637142D02*
X159704761Y-82589523D01*
X159752380Y-82637142D01*
X159704761Y-82684761D01*
X159657142Y-82637142D01*
X159752380Y-82637142D01*
X159752380Y-81637142D02*
X159752380Y-82208571D01*
X159752380Y-81922857D02*
X158752380Y-81922857D01*
X158895238Y-82018095D01*
X158990476Y-82113333D01*
X159038095Y-82208571D01*
X159085714Y-80780000D02*
X159752380Y-80780000D01*
X159085714Y-81208571D02*
X159609523Y-81208571D01*
X159704761Y-81160952D01*
X159752380Y-81065714D01*
X159752380Y-80922857D01*
X159704761Y-80827619D01*
X159657142Y-80780000D01*
X159228571Y-79970476D02*
X159228571Y-80303809D01*
X159752380Y-80303809D02*
X158752380Y-80303809D01*
X158752380Y-79827619D01*
X159180952Y-79303809D02*
X159133333Y-79399047D01*
X159085714Y-79446666D01*
X158990476Y-79494285D01*
X158942857Y-79494285D01*
X158847619Y-79446666D01*
X158800000Y-79399047D01*
X158752380Y-79303809D01*
X158752380Y-79113333D01*
X158800000Y-79018095D01*
X158847619Y-78970476D01*
X158942857Y-78922857D01*
X158990476Y-78922857D01*
X159085714Y-78970476D01*
X159133333Y-79018095D01*
X159180952Y-79113333D01*
X159180952Y-79303809D01*
X159228571Y-79399047D01*
X159276190Y-79446666D01*
X159371428Y-79494285D01*
X159561904Y-79494285D01*
X159657142Y-79446666D01*
X159704761Y-79399047D01*
X159752380Y-79303809D01*
X159752380Y-79113333D01*
X159704761Y-79018095D01*
X159657142Y-78970476D01*
X159561904Y-78922857D01*
X159371428Y-78922857D01*
X159276190Y-78970476D01*
X159228571Y-79018095D01*
X159180952Y-79113333D01*
X158752380Y-93905238D02*
X158752380Y-93810000D01*
X158800000Y-93714761D01*
X158847619Y-93667142D01*
X158942857Y-93619523D01*
X159133333Y-93571904D01*
X159371428Y-93571904D01*
X159561904Y-93619523D01*
X159657142Y-93667142D01*
X159704761Y-93714761D01*
X159752380Y-93810000D01*
X159752380Y-93905238D01*
X159704761Y-94000476D01*
X159657142Y-94048095D01*
X159561904Y-94095714D01*
X159371428Y-94143333D01*
X159133333Y-94143333D01*
X158942857Y-94095714D01*
X158847619Y-94048095D01*
X158800000Y-94000476D01*
X158752380Y-93905238D01*
X159657142Y-93143333D02*
X159704761Y-93095714D01*
X159752380Y-93143333D01*
X159704761Y-93190952D01*
X159657142Y-93143333D01*
X159752380Y-93143333D01*
X159752380Y-92143333D02*
X159752380Y-92714761D01*
X159752380Y-92429047D02*
X158752380Y-92429047D01*
X158895238Y-92524285D01*
X158990476Y-92619523D01*
X159038095Y-92714761D01*
X159085714Y-91286190D02*
X159752380Y-91286190D01*
X159085714Y-91714761D02*
X159609523Y-91714761D01*
X159704761Y-91667142D01*
X159752380Y-91571904D01*
X159752380Y-91429047D01*
X159704761Y-91333809D01*
X159657142Y-91286190D01*
X159228571Y-90476666D02*
X159228571Y-90810000D01*
X159752380Y-90810000D02*
X158752380Y-90810000D01*
X158752380Y-90333809D01*
X159752380Y-89429047D02*
X159752380Y-90000476D01*
X159752380Y-89714761D02*
X158752380Y-89714761D01*
X158895238Y-89810000D01*
X158990476Y-89905238D01*
X159038095Y-90000476D01*
X158752380Y-89095714D02*
X158752380Y-88476666D01*
X159133333Y-88810000D01*
X159133333Y-88667142D01*
X159180952Y-88571904D01*
X159228571Y-88524285D01*
X159323809Y-88476666D01*
X159561904Y-88476666D01*
X159657142Y-88524285D01*
X159704761Y-88571904D01*
X159752380Y-88667142D01*
X159752380Y-88952857D01*
X159704761Y-89048095D01*
X159657142Y-89095714D01*
X158752380Y-104065238D02*
X158752380Y-103970000D01*
X158800000Y-103874761D01*
X158847619Y-103827142D01*
X158942857Y-103779523D01*
X159133333Y-103731904D01*
X159371428Y-103731904D01*
X159561904Y-103779523D01*
X159657142Y-103827142D01*
X159704761Y-103874761D01*
X159752380Y-103970000D01*
X159752380Y-104065238D01*
X159704761Y-104160476D01*
X159657142Y-104208095D01*
X159561904Y-104255714D01*
X159371428Y-104303333D01*
X159133333Y-104303333D01*
X158942857Y-104255714D01*
X158847619Y-104208095D01*
X158800000Y-104160476D01*
X158752380Y-104065238D01*
X159657142Y-103303333D02*
X159704761Y-103255714D01*
X159752380Y-103303333D01*
X159704761Y-103350952D01*
X159657142Y-103303333D01*
X159752380Y-103303333D01*
X159752380Y-102303333D02*
X159752380Y-102874761D01*
X159752380Y-102589047D02*
X158752380Y-102589047D01*
X158895238Y-102684285D01*
X158990476Y-102779523D01*
X159038095Y-102874761D01*
X159085714Y-101446190D02*
X159752380Y-101446190D01*
X159085714Y-101874761D02*
X159609523Y-101874761D01*
X159704761Y-101827142D01*
X159752380Y-101731904D01*
X159752380Y-101589047D01*
X159704761Y-101493809D01*
X159657142Y-101446190D01*
X159228571Y-100636666D02*
X159228571Y-100970000D01*
X159752380Y-100970000D02*
X158752380Y-100970000D01*
X158752380Y-100493809D01*
X159752380Y-99589047D02*
X159752380Y-100160476D01*
X159752380Y-99874761D02*
X158752380Y-99874761D01*
X158895238Y-99970000D01*
X158990476Y-100065238D01*
X159038095Y-100160476D01*
X159180952Y-99017619D02*
X159133333Y-99112857D01*
X159085714Y-99160476D01*
X158990476Y-99208095D01*
X158942857Y-99208095D01*
X158847619Y-99160476D01*
X158800000Y-99112857D01*
X158752380Y-99017619D01*
X158752380Y-98827142D01*
X158800000Y-98731904D01*
X158847619Y-98684285D01*
X158942857Y-98636666D01*
X158990476Y-98636666D01*
X159085714Y-98684285D01*
X159133333Y-98731904D01*
X159180952Y-98827142D01*
X159180952Y-99017619D01*
X159228571Y-99112857D01*
X159276190Y-99160476D01*
X159371428Y-99208095D01*
X159561904Y-99208095D01*
X159657142Y-99160476D01*
X159704761Y-99112857D01*
X159752380Y-99017619D01*
X159752380Y-98827142D01*
X159704761Y-98731904D01*
X159657142Y-98684285D01*
X159561904Y-98636666D01*
X159371428Y-98636666D01*
X159276190Y-98684285D01*
X159228571Y-98731904D01*
X159180952Y-98827142D01*
X175262380Y-71839047D02*
X175262380Y-71743809D01*
X175310000Y-71648571D01*
X175357619Y-71600952D01*
X175452857Y-71553333D01*
X175643333Y-71505714D01*
X175881428Y-71505714D01*
X176071904Y-71553333D01*
X176167142Y-71600952D01*
X176214761Y-71648571D01*
X176262380Y-71743809D01*
X176262380Y-71839047D01*
X176214761Y-71934285D01*
X176167142Y-71981904D01*
X176071904Y-72029523D01*
X175881428Y-72077142D01*
X175643333Y-72077142D01*
X175452857Y-72029523D01*
X175357619Y-71981904D01*
X175310000Y-71934285D01*
X175262380Y-71839047D01*
X176167142Y-71077142D02*
X176214761Y-71029523D01*
X176262380Y-71077142D01*
X176214761Y-71124761D01*
X176167142Y-71077142D01*
X176262380Y-71077142D01*
X176262380Y-70077142D02*
X176262380Y-70648571D01*
X176262380Y-70362857D02*
X175262380Y-70362857D01*
X175405238Y-70458095D01*
X175500476Y-70553333D01*
X175548095Y-70648571D01*
X175595714Y-69220000D02*
X176262380Y-69220000D01*
X175595714Y-69648571D02*
X176119523Y-69648571D01*
X176214761Y-69600952D01*
X176262380Y-69505714D01*
X176262380Y-69362857D01*
X176214761Y-69267619D01*
X176167142Y-69220000D01*
X175738571Y-68410476D02*
X175738571Y-68743809D01*
X176262380Y-68743809D02*
X175262380Y-68743809D01*
X175262380Y-68267619D01*
X175595714Y-67458095D02*
X176262380Y-67458095D01*
X175214761Y-67696190D02*
X175929047Y-67934285D01*
X175929047Y-67315238D01*
X175262380Y-83269047D02*
X175262380Y-83173809D01*
X175310000Y-83078571D01*
X175357619Y-83030952D01*
X175452857Y-82983333D01*
X175643333Y-82935714D01*
X175881428Y-82935714D01*
X176071904Y-82983333D01*
X176167142Y-83030952D01*
X176214761Y-83078571D01*
X176262380Y-83173809D01*
X176262380Y-83269047D01*
X176214761Y-83364285D01*
X176167142Y-83411904D01*
X176071904Y-83459523D01*
X175881428Y-83507142D01*
X175643333Y-83507142D01*
X175452857Y-83459523D01*
X175357619Y-83411904D01*
X175310000Y-83364285D01*
X175262380Y-83269047D01*
X176167142Y-82507142D02*
X176214761Y-82459523D01*
X176262380Y-82507142D01*
X176214761Y-82554761D01*
X176167142Y-82507142D01*
X176262380Y-82507142D01*
X176262380Y-81507142D02*
X176262380Y-82078571D01*
X176262380Y-81792857D02*
X175262380Y-81792857D01*
X175405238Y-81888095D01*
X175500476Y-81983333D01*
X175548095Y-82078571D01*
X175595714Y-80650000D02*
X176262380Y-80650000D01*
X175595714Y-81078571D02*
X176119523Y-81078571D01*
X176214761Y-81030952D01*
X176262380Y-80935714D01*
X176262380Y-80792857D01*
X176214761Y-80697619D01*
X176167142Y-80650000D01*
X175738571Y-79840476D02*
X175738571Y-80173809D01*
X176262380Y-80173809D02*
X175262380Y-80173809D01*
X175262380Y-79697619D01*
X176262380Y-79269047D02*
X176262380Y-79078571D01*
X176214761Y-78983333D01*
X176167142Y-78935714D01*
X176024285Y-78840476D01*
X175833809Y-78792857D01*
X175452857Y-78792857D01*
X175357619Y-78840476D01*
X175310000Y-78888095D01*
X175262380Y-78983333D01*
X175262380Y-79173809D01*
X175310000Y-79269047D01*
X175357619Y-79316666D01*
X175452857Y-79364285D01*
X175690952Y-79364285D01*
X175786190Y-79316666D01*
X175833809Y-79269047D01*
X175881428Y-79173809D01*
X175881428Y-78983333D01*
X175833809Y-78888095D01*
X175786190Y-78840476D01*
X175690952Y-78792857D01*
X175262380Y-94035238D02*
X175262380Y-93940000D01*
X175310000Y-93844761D01*
X175357619Y-93797142D01*
X175452857Y-93749523D01*
X175643333Y-93701904D01*
X175881428Y-93701904D01*
X176071904Y-93749523D01*
X176167142Y-93797142D01*
X176214761Y-93844761D01*
X176262380Y-93940000D01*
X176262380Y-94035238D01*
X176214761Y-94130476D01*
X176167142Y-94178095D01*
X176071904Y-94225714D01*
X175881428Y-94273333D01*
X175643333Y-94273333D01*
X175452857Y-94225714D01*
X175357619Y-94178095D01*
X175310000Y-94130476D01*
X175262380Y-94035238D01*
X176167142Y-93273333D02*
X176214761Y-93225714D01*
X176262380Y-93273333D01*
X176214761Y-93320952D01*
X176167142Y-93273333D01*
X176262380Y-93273333D01*
X176262380Y-92273333D02*
X176262380Y-92844761D01*
X176262380Y-92559047D02*
X175262380Y-92559047D01*
X175405238Y-92654285D01*
X175500476Y-92749523D01*
X175548095Y-92844761D01*
X175595714Y-91416190D02*
X176262380Y-91416190D01*
X175595714Y-91844761D02*
X176119523Y-91844761D01*
X176214761Y-91797142D01*
X176262380Y-91701904D01*
X176262380Y-91559047D01*
X176214761Y-91463809D01*
X176167142Y-91416190D01*
X175738571Y-90606666D02*
X175738571Y-90940000D01*
X176262380Y-90940000D02*
X175262380Y-90940000D01*
X175262380Y-90463809D01*
X176262380Y-89559047D02*
X176262380Y-90130476D01*
X176262380Y-89844761D02*
X175262380Y-89844761D01*
X175405238Y-89940000D01*
X175500476Y-90035238D01*
X175548095Y-90130476D01*
X175595714Y-88701904D02*
X176262380Y-88701904D01*
X175214761Y-88940000D02*
X175929047Y-89178095D01*
X175929047Y-88559047D01*
X175262380Y-104195238D02*
X175262380Y-104100000D01*
X175310000Y-104004761D01*
X175357619Y-103957142D01*
X175452857Y-103909523D01*
X175643333Y-103861904D01*
X175881428Y-103861904D01*
X176071904Y-103909523D01*
X176167142Y-103957142D01*
X176214761Y-104004761D01*
X176262380Y-104100000D01*
X176262380Y-104195238D01*
X176214761Y-104290476D01*
X176167142Y-104338095D01*
X176071904Y-104385714D01*
X175881428Y-104433333D01*
X175643333Y-104433333D01*
X175452857Y-104385714D01*
X175357619Y-104338095D01*
X175310000Y-104290476D01*
X175262380Y-104195238D01*
X176167142Y-103433333D02*
X176214761Y-103385714D01*
X176262380Y-103433333D01*
X176214761Y-103480952D01*
X176167142Y-103433333D01*
X176262380Y-103433333D01*
X176262380Y-102433333D02*
X176262380Y-103004761D01*
X176262380Y-102719047D02*
X175262380Y-102719047D01*
X175405238Y-102814285D01*
X175500476Y-102909523D01*
X175548095Y-103004761D01*
X175595714Y-101576190D02*
X176262380Y-101576190D01*
X175595714Y-102004761D02*
X176119523Y-102004761D01*
X176214761Y-101957142D01*
X176262380Y-101861904D01*
X176262380Y-101719047D01*
X176214761Y-101623809D01*
X176167142Y-101576190D01*
X175738571Y-100766666D02*
X175738571Y-101100000D01*
X176262380Y-101100000D02*
X175262380Y-101100000D01*
X175262380Y-100623809D01*
X176262380Y-99719047D02*
X176262380Y-100290476D01*
X176262380Y-100004761D02*
X175262380Y-100004761D01*
X175405238Y-100100000D01*
X175500476Y-100195238D01*
X175548095Y-100290476D01*
X176262380Y-99242857D02*
X176262380Y-99052380D01*
X176214761Y-98957142D01*
X176167142Y-98909523D01*
X176024285Y-98814285D01*
X175833809Y-98766666D01*
X175452857Y-98766666D01*
X175357619Y-98814285D01*
X175310000Y-98861904D01*
X175262380Y-98957142D01*
X175262380Y-99147619D01*
X175310000Y-99242857D01*
X175357619Y-99290476D01*
X175452857Y-99338095D01*
X175690952Y-99338095D01*
X175786190Y-99290476D01*
X175833809Y-99242857D01*
X175881428Y-99147619D01*
X175881428Y-98957142D01*
X175833809Y-98861904D01*
X175786190Y-98814285D01*
X175690952Y-98766666D01*
X79930714Y-62396666D02*
X80406904Y-62396666D01*
X79835476Y-62682380D02*
X80168809Y-61682380D01*
X80502142Y-62682380D01*
X81359285Y-62682380D02*
X80787857Y-62682380D01*
X81073571Y-62682380D02*
X81073571Y-61682380D01*
X80978333Y-61825238D01*
X80883095Y-61920476D01*
X80787857Y-61968095D01*
X116101904Y-66802380D02*
X116101904Y-65802380D01*
X116340000Y-65802380D01*
X116482857Y-65850000D01*
X116578095Y-65945238D01*
X116625714Y-66040476D01*
X116673333Y-66230952D01*
X116673333Y-66373809D01*
X116625714Y-66564285D01*
X116578095Y-66659523D01*
X116482857Y-66754761D01*
X116340000Y-66802380D01*
X116101904Y-66802380D01*
X117625714Y-66802380D02*
X117054285Y-66802380D01*
X117340000Y-66802380D02*
X117340000Y-65802380D01*
X117244761Y-65945238D01*
X117149523Y-66040476D01*
X117054285Y-66088095D01*
X112975714Y-68702380D02*
X112404285Y-68702380D01*
X112690000Y-68702380D02*
X112690000Y-67702380D01*
X112594761Y-67845238D01*
X112499523Y-67940476D01*
X112404285Y-67988095D01*
X132611904Y-66802380D02*
X132611904Y-65802380D01*
X132850000Y-65802380D01*
X132992857Y-65850000D01*
X133088095Y-65945238D01*
X133135714Y-66040476D01*
X133183333Y-66230952D01*
X133183333Y-66373809D01*
X133135714Y-66564285D01*
X133088095Y-66659523D01*
X132992857Y-66754761D01*
X132850000Y-66802380D01*
X132611904Y-66802380D01*
X133564285Y-65897619D02*
X133611904Y-65850000D01*
X133707142Y-65802380D01*
X133945238Y-65802380D01*
X134040476Y-65850000D01*
X134088095Y-65897619D01*
X134135714Y-65992857D01*
X134135714Y-66088095D01*
X134088095Y-66230952D01*
X133516666Y-66802380D01*
X134135714Y-66802380D01*
X129485714Y-68702380D02*
X128914285Y-68702380D01*
X129200000Y-68702380D02*
X129200000Y-67702380D01*
X129104761Y-67845238D01*
X129009523Y-67940476D01*
X128914285Y-67988095D01*
X149031904Y-67132380D02*
X149031904Y-66132380D01*
X149270000Y-66132380D01*
X149412857Y-66180000D01*
X149508095Y-66275238D01*
X149555714Y-66370476D01*
X149603333Y-66560952D01*
X149603333Y-66703809D01*
X149555714Y-66894285D01*
X149508095Y-66989523D01*
X149412857Y-67084761D01*
X149270000Y-67132380D01*
X149031904Y-67132380D01*
X149936666Y-66132380D02*
X150555714Y-66132380D01*
X150222380Y-66513333D01*
X150365238Y-66513333D01*
X150460476Y-66560952D01*
X150508095Y-66608571D01*
X150555714Y-66703809D01*
X150555714Y-66941904D01*
X150508095Y-67037142D01*
X150460476Y-67084761D01*
X150365238Y-67132380D01*
X150079523Y-67132380D01*
X149984285Y-67084761D01*
X149936666Y-67037142D01*
X145905714Y-69032380D02*
X145334285Y-69032380D01*
X145620000Y-69032380D02*
X145620000Y-68032380D01*
X145524761Y-68175238D01*
X145429523Y-68270476D01*
X145334285Y-68318095D01*
X165631904Y-66802380D02*
X165631904Y-65802380D01*
X165870000Y-65802380D01*
X166012857Y-65850000D01*
X166108095Y-65945238D01*
X166155714Y-66040476D01*
X166203333Y-66230952D01*
X166203333Y-66373809D01*
X166155714Y-66564285D01*
X166108095Y-66659523D01*
X166012857Y-66754761D01*
X165870000Y-66802380D01*
X165631904Y-66802380D01*
X167060476Y-66135714D02*
X167060476Y-66802380D01*
X166822380Y-65754761D02*
X166584285Y-66469047D01*
X167203333Y-66469047D01*
X162505714Y-68702380D02*
X161934285Y-68702380D01*
X162220000Y-68702380D02*
X162220000Y-67702380D01*
X162124761Y-67845238D01*
X162029523Y-67940476D01*
X161934285Y-67988095D01*
X182141904Y-66802380D02*
X182141904Y-65802380D01*
X182380000Y-65802380D01*
X182522857Y-65850000D01*
X182618095Y-65945238D01*
X182665714Y-66040476D01*
X182713333Y-66230952D01*
X182713333Y-66373809D01*
X182665714Y-66564285D01*
X182618095Y-66659523D01*
X182522857Y-66754761D01*
X182380000Y-66802380D01*
X182141904Y-66802380D01*
X183618095Y-65802380D02*
X183141904Y-65802380D01*
X183094285Y-66278571D01*
X183141904Y-66230952D01*
X183237142Y-66183333D01*
X183475238Y-66183333D01*
X183570476Y-66230952D01*
X183618095Y-66278571D01*
X183665714Y-66373809D01*
X183665714Y-66611904D01*
X183618095Y-66707142D01*
X183570476Y-66754761D01*
X183475238Y-66802380D01*
X183237142Y-66802380D01*
X183141904Y-66754761D01*
X183094285Y-66707142D01*
X179015714Y-68702380D02*
X178444285Y-68702380D01*
X178730000Y-68702380D02*
X178730000Y-67702380D01*
X178634761Y-67845238D01*
X178539523Y-67940476D01*
X178444285Y-67988095D01*
X116011904Y-77902380D02*
X116011904Y-76902380D01*
X116250000Y-76902380D01*
X116392857Y-76950000D01*
X116488095Y-77045238D01*
X116535714Y-77140476D01*
X116583333Y-77330952D01*
X116583333Y-77473809D01*
X116535714Y-77664285D01*
X116488095Y-77759523D01*
X116392857Y-77854761D01*
X116250000Y-77902380D01*
X116011904Y-77902380D01*
X117440476Y-76902380D02*
X117250000Y-76902380D01*
X117154761Y-76950000D01*
X117107142Y-76997619D01*
X117011904Y-77140476D01*
X116964285Y-77330952D01*
X116964285Y-77711904D01*
X117011904Y-77807142D01*
X117059523Y-77854761D01*
X117154761Y-77902380D01*
X117345238Y-77902380D01*
X117440476Y-77854761D01*
X117488095Y-77807142D01*
X117535714Y-77711904D01*
X117535714Y-77473809D01*
X117488095Y-77378571D01*
X117440476Y-77330952D01*
X117345238Y-77283333D01*
X117154761Y-77283333D01*
X117059523Y-77330952D01*
X117011904Y-77378571D01*
X116964285Y-77473809D01*
X112885714Y-79802380D02*
X112314285Y-79802380D01*
X112600000Y-79802380D02*
X112600000Y-78802380D01*
X112504761Y-78945238D01*
X112409523Y-79040476D01*
X112314285Y-79088095D01*
X132611904Y-78232380D02*
X132611904Y-77232380D01*
X132850000Y-77232380D01*
X132992857Y-77280000D01*
X133088095Y-77375238D01*
X133135714Y-77470476D01*
X133183333Y-77660952D01*
X133183333Y-77803809D01*
X133135714Y-77994285D01*
X133088095Y-78089523D01*
X132992857Y-78184761D01*
X132850000Y-78232380D01*
X132611904Y-78232380D01*
X133516666Y-77232380D02*
X134183333Y-77232380D01*
X133754761Y-78232380D01*
X129485714Y-80132380D02*
X128914285Y-80132380D01*
X129200000Y-80132380D02*
X129200000Y-79132380D01*
X129104761Y-79275238D01*
X129009523Y-79370476D01*
X128914285Y-79418095D01*
X149121904Y-78232380D02*
X149121904Y-77232380D01*
X149360000Y-77232380D01*
X149502857Y-77280000D01*
X149598095Y-77375238D01*
X149645714Y-77470476D01*
X149693333Y-77660952D01*
X149693333Y-77803809D01*
X149645714Y-77994285D01*
X149598095Y-78089523D01*
X149502857Y-78184761D01*
X149360000Y-78232380D01*
X149121904Y-78232380D01*
X150264761Y-77660952D02*
X150169523Y-77613333D01*
X150121904Y-77565714D01*
X150074285Y-77470476D01*
X150074285Y-77422857D01*
X150121904Y-77327619D01*
X150169523Y-77280000D01*
X150264761Y-77232380D01*
X150455238Y-77232380D01*
X150550476Y-77280000D01*
X150598095Y-77327619D01*
X150645714Y-77422857D01*
X150645714Y-77470476D01*
X150598095Y-77565714D01*
X150550476Y-77613333D01*
X150455238Y-77660952D01*
X150264761Y-77660952D01*
X150169523Y-77708571D01*
X150121904Y-77756190D01*
X150074285Y-77851428D01*
X150074285Y-78041904D01*
X150121904Y-78137142D01*
X150169523Y-78184761D01*
X150264761Y-78232380D01*
X150455238Y-78232380D01*
X150550476Y-78184761D01*
X150598095Y-78137142D01*
X150645714Y-78041904D01*
X150645714Y-77851428D01*
X150598095Y-77756190D01*
X150550476Y-77708571D01*
X150455238Y-77660952D01*
X145995714Y-80132380D02*
X145424285Y-80132380D01*
X145710000Y-80132380D02*
X145710000Y-79132380D01*
X145614761Y-79275238D01*
X145519523Y-79370476D01*
X145424285Y-79418095D01*
X165631904Y-78232380D02*
X165631904Y-77232380D01*
X165870000Y-77232380D01*
X166012857Y-77280000D01*
X166108095Y-77375238D01*
X166155714Y-77470476D01*
X166203333Y-77660952D01*
X166203333Y-77803809D01*
X166155714Y-77994285D01*
X166108095Y-78089523D01*
X166012857Y-78184761D01*
X165870000Y-78232380D01*
X165631904Y-78232380D01*
X166679523Y-78232380D02*
X166870000Y-78232380D01*
X166965238Y-78184761D01*
X167012857Y-78137142D01*
X167108095Y-77994285D01*
X167155714Y-77803809D01*
X167155714Y-77422857D01*
X167108095Y-77327619D01*
X167060476Y-77280000D01*
X166965238Y-77232380D01*
X166774761Y-77232380D01*
X166679523Y-77280000D01*
X166631904Y-77327619D01*
X166584285Y-77422857D01*
X166584285Y-77660952D01*
X166631904Y-77756190D01*
X166679523Y-77803809D01*
X166774761Y-77851428D01*
X166965238Y-77851428D01*
X167060476Y-77803809D01*
X167108095Y-77756190D01*
X167155714Y-77660952D01*
X162505714Y-80132380D02*
X161934285Y-80132380D01*
X162220000Y-80132380D02*
X162220000Y-79132380D01*
X162124761Y-79275238D01*
X162029523Y-79370476D01*
X161934285Y-79418095D01*
X181665714Y-78232380D02*
X181665714Y-77232380D01*
X181903809Y-77232380D01*
X182046666Y-77280000D01*
X182141904Y-77375238D01*
X182189523Y-77470476D01*
X182237142Y-77660952D01*
X182237142Y-77803809D01*
X182189523Y-77994285D01*
X182141904Y-78089523D01*
X182046666Y-78184761D01*
X181903809Y-78232380D01*
X181665714Y-78232380D01*
X183189523Y-78232380D02*
X182618095Y-78232380D01*
X182903809Y-78232380D02*
X182903809Y-77232380D01*
X182808571Y-77375238D01*
X182713333Y-77470476D01*
X182618095Y-77518095D01*
X183808571Y-77232380D02*
X183903809Y-77232380D01*
X183999047Y-77280000D01*
X184046666Y-77327619D01*
X184094285Y-77422857D01*
X184141904Y-77613333D01*
X184141904Y-77851428D01*
X184094285Y-78041904D01*
X184046666Y-78137142D01*
X183999047Y-78184761D01*
X183903809Y-78232380D01*
X183808571Y-78232380D01*
X183713333Y-78184761D01*
X183665714Y-78137142D01*
X183618095Y-78041904D01*
X183570476Y-77851428D01*
X183570476Y-77613333D01*
X183618095Y-77422857D01*
X183665714Y-77327619D01*
X183713333Y-77280000D01*
X183808571Y-77232380D01*
X179015714Y-80132380D02*
X178444285Y-80132380D01*
X178730000Y-80132380D02*
X178730000Y-79132380D01*
X178634761Y-79275238D01*
X178539523Y-79370476D01*
X178444285Y-79418095D01*
X115625714Y-88392380D02*
X115625714Y-87392380D01*
X115863809Y-87392380D01*
X116006666Y-87440000D01*
X116101904Y-87535238D01*
X116149523Y-87630476D01*
X116197142Y-87820952D01*
X116197142Y-87963809D01*
X116149523Y-88154285D01*
X116101904Y-88249523D01*
X116006666Y-88344761D01*
X115863809Y-88392380D01*
X115625714Y-88392380D01*
X117149523Y-88392380D02*
X116578095Y-88392380D01*
X116863809Y-88392380D02*
X116863809Y-87392380D01*
X116768571Y-87535238D01*
X116673333Y-87630476D01*
X116578095Y-87678095D01*
X118101904Y-88392380D02*
X117530476Y-88392380D01*
X117816190Y-88392380D02*
X117816190Y-87392380D01*
X117720952Y-87535238D01*
X117625714Y-87630476D01*
X117530476Y-87678095D01*
X112975714Y-90292380D02*
X112404285Y-90292380D01*
X112690000Y-90292380D02*
X112690000Y-89292380D01*
X112594761Y-89435238D01*
X112499523Y-89530476D01*
X112404285Y-89578095D01*
X132135714Y-88392380D02*
X132135714Y-87392380D01*
X132373809Y-87392380D01*
X132516666Y-87440000D01*
X132611904Y-87535238D01*
X132659523Y-87630476D01*
X132707142Y-87820952D01*
X132707142Y-87963809D01*
X132659523Y-88154285D01*
X132611904Y-88249523D01*
X132516666Y-88344761D01*
X132373809Y-88392380D01*
X132135714Y-88392380D01*
X133659523Y-88392380D02*
X133088095Y-88392380D01*
X133373809Y-88392380D02*
X133373809Y-87392380D01*
X133278571Y-87535238D01*
X133183333Y-87630476D01*
X133088095Y-87678095D01*
X134040476Y-87487619D02*
X134088095Y-87440000D01*
X134183333Y-87392380D01*
X134421428Y-87392380D01*
X134516666Y-87440000D01*
X134564285Y-87487619D01*
X134611904Y-87582857D01*
X134611904Y-87678095D01*
X134564285Y-87820952D01*
X133992857Y-88392380D01*
X134611904Y-88392380D01*
X129485714Y-90292380D02*
X128914285Y-90292380D01*
X129200000Y-90292380D02*
X129200000Y-89292380D01*
X129104761Y-89435238D01*
X129009523Y-89530476D01*
X128914285Y-89578095D01*
X148645714Y-88392380D02*
X148645714Y-87392380D01*
X148883809Y-87392380D01*
X149026666Y-87440000D01*
X149121904Y-87535238D01*
X149169523Y-87630476D01*
X149217142Y-87820952D01*
X149217142Y-87963809D01*
X149169523Y-88154285D01*
X149121904Y-88249523D01*
X149026666Y-88344761D01*
X148883809Y-88392380D01*
X148645714Y-88392380D01*
X150169523Y-88392380D02*
X149598095Y-88392380D01*
X149883809Y-88392380D02*
X149883809Y-87392380D01*
X149788571Y-87535238D01*
X149693333Y-87630476D01*
X149598095Y-87678095D01*
X150502857Y-87392380D02*
X151121904Y-87392380D01*
X150788571Y-87773333D01*
X150931428Y-87773333D01*
X151026666Y-87820952D01*
X151074285Y-87868571D01*
X151121904Y-87963809D01*
X151121904Y-88201904D01*
X151074285Y-88297142D01*
X151026666Y-88344761D01*
X150931428Y-88392380D01*
X150645714Y-88392380D01*
X150550476Y-88344761D01*
X150502857Y-88297142D01*
X145995714Y-90292380D02*
X145424285Y-90292380D01*
X145710000Y-90292380D02*
X145710000Y-89292380D01*
X145614761Y-89435238D01*
X145519523Y-89530476D01*
X145424285Y-89578095D01*
X165245714Y-88722380D02*
X165245714Y-87722380D01*
X165483809Y-87722380D01*
X165626666Y-87770000D01*
X165721904Y-87865238D01*
X165769523Y-87960476D01*
X165817142Y-88150952D01*
X165817142Y-88293809D01*
X165769523Y-88484285D01*
X165721904Y-88579523D01*
X165626666Y-88674761D01*
X165483809Y-88722380D01*
X165245714Y-88722380D01*
X166769523Y-88722380D02*
X166198095Y-88722380D01*
X166483809Y-88722380D02*
X166483809Y-87722380D01*
X166388571Y-87865238D01*
X166293333Y-87960476D01*
X166198095Y-88008095D01*
X167626666Y-88055714D02*
X167626666Y-88722380D01*
X167388571Y-87674761D02*
X167150476Y-88389047D01*
X167769523Y-88389047D01*
X162595714Y-90622380D02*
X162024285Y-90622380D01*
X162310000Y-90622380D02*
X162310000Y-89622380D01*
X162214761Y-89765238D01*
X162119523Y-89860476D01*
X162024285Y-89908095D01*
X181575714Y-88722380D02*
X181575714Y-87722380D01*
X181813809Y-87722380D01*
X181956666Y-87770000D01*
X182051904Y-87865238D01*
X182099523Y-87960476D01*
X182147142Y-88150952D01*
X182147142Y-88293809D01*
X182099523Y-88484285D01*
X182051904Y-88579523D01*
X181956666Y-88674761D01*
X181813809Y-88722380D01*
X181575714Y-88722380D01*
X183099523Y-88722380D02*
X182528095Y-88722380D01*
X182813809Y-88722380D02*
X182813809Y-87722380D01*
X182718571Y-87865238D01*
X182623333Y-87960476D01*
X182528095Y-88008095D01*
X184004285Y-87722380D02*
X183528095Y-87722380D01*
X183480476Y-88198571D01*
X183528095Y-88150952D01*
X183623333Y-88103333D01*
X183861428Y-88103333D01*
X183956666Y-88150952D01*
X184004285Y-88198571D01*
X184051904Y-88293809D01*
X184051904Y-88531904D01*
X184004285Y-88627142D01*
X183956666Y-88674761D01*
X183861428Y-88722380D01*
X183623333Y-88722380D01*
X183528095Y-88674761D01*
X183480476Y-88627142D01*
X178925714Y-90622380D02*
X178354285Y-90622380D01*
X178640000Y-90622380D02*
X178640000Y-89622380D01*
X178544761Y-89765238D01*
X178449523Y-89860476D01*
X178354285Y-89908095D01*
X115625714Y-98552380D02*
X115625714Y-97552380D01*
X115863809Y-97552380D01*
X116006666Y-97600000D01*
X116101904Y-97695238D01*
X116149523Y-97790476D01*
X116197142Y-97980952D01*
X116197142Y-98123809D01*
X116149523Y-98314285D01*
X116101904Y-98409523D01*
X116006666Y-98504761D01*
X115863809Y-98552380D01*
X115625714Y-98552380D01*
X117149523Y-98552380D02*
X116578095Y-98552380D01*
X116863809Y-98552380D02*
X116863809Y-97552380D01*
X116768571Y-97695238D01*
X116673333Y-97790476D01*
X116578095Y-97838095D01*
X118006666Y-97552380D02*
X117816190Y-97552380D01*
X117720952Y-97600000D01*
X117673333Y-97647619D01*
X117578095Y-97790476D01*
X117530476Y-97980952D01*
X117530476Y-98361904D01*
X117578095Y-98457142D01*
X117625714Y-98504761D01*
X117720952Y-98552380D01*
X117911428Y-98552380D01*
X118006666Y-98504761D01*
X118054285Y-98457142D01*
X118101904Y-98361904D01*
X118101904Y-98123809D01*
X118054285Y-98028571D01*
X118006666Y-97980952D01*
X117911428Y-97933333D01*
X117720952Y-97933333D01*
X117625714Y-97980952D01*
X117578095Y-98028571D01*
X117530476Y-98123809D01*
X112975714Y-100452380D02*
X112404285Y-100452380D01*
X112690000Y-100452380D02*
X112690000Y-99452380D01*
X112594761Y-99595238D01*
X112499523Y-99690476D01*
X112404285Y-99738095D01*
X132135714Y-98552380D02*
X132135714Y-97552380D01*
X132373809Y-97552380D01*
X132516666Y-97600000D01*
X132611904Y-97695238D01*
X132659523Y-97790476D01*
X132707142Y-97980952D01*
X132707142Y-98123809D01*
X132659523Y-98314285D01*
X132611904Y-98409523D01*
X132516666Y-98504761D01*
X132373809Y-98552380D01*
X132135714Y-98552380D01*
X133659523Y-98552380D02*
X133088095Y-98552380D01*
X133373809Y-98552380D02*
X133373809Y-97552380D01*
X133278571Y-97695238D01*
X133183333Y-97790476D01*
X133088095Y-97838095D01*
X133992857Y-97552380D02*
X134659523Y-97552380D01*
X134230952Y-98552380D01*
X129485714Y-100452380D02*
X128914285Y-100452380D01*
X129200000Y-100452380D02*
X129200000Y-99452380D01*
X129104761Y-99595238D01*
X129009523Y-99690476D01*
X128914285Y-99738095D01*
X148645714Y-98552380D02*
X148645714Y-97552380D01*
X148883809Y-97552380D01*
X149026666Y-97600000D01*
X149121904Y-97695238D01*
X149169523Y-97790476D01*
X149217142Y-97980952D01*
X149217142Y-98123809D01*
X149169523Y-98314285D01*
X149121904Y-98409523D01*
X149026666Y-98504761D01*
X148883809Y-98552380D01*
X148645714Y-98552380D01*
X150169523Y-98552380D02*
X149598095Y-98552380D01*
X149883809Y-98552380D02*
X149883809Y-97552380D01*
X149788571Y-97695238D01*
X149693333Y-97790476D01*
X149598095Y-97838095D01*
X150740952Y-97980952D02*
X150645714Y-97933333D01*
X150598095Y-97885714D01*
X150550476Y-97790476D01*
X150550476Y-97742857D01*
X150598095Y-97647619D01*
X150645714Y-97600000D01*
X150740952Y-97552380D01*
X150931428Y-97552380D01*
X151026666Y-97600000D01*
X151074285Y-97647619D01*
X151121904Y-97742857D01*
X151121904Y-97790476D01*
X151074285Y-97885714D01*
X151026666Y-97933333D01*
X150931428Y-97980952D01*
X150740952Y-97980952D01*
X150645714Y-98028571D01*
X150598095Y-98076190D01*
X150550476Y-98171428D01*
X150550476Y-98361904D01*
X150598095Y-98457142D01*
X150645714Y-98504761D01*
X150740952Y-98552380D01*
X150931428Y-98552380D01*
X151026666Y-98504761D01*
X151074285Y-98457142D01*
X151121904Y-98361904D01*
X151121904Y-98171428D01*
X151074285Y-98076190D01*
X151026666Y-98028571D01*
X150931428Y-97980952D01*
X145995714Y-100452380D02*
X145424285Y-100452380D01*
X145710000Y-100452380D02*
X145710000Y-99452380D01*
X145614761Y-99595238D01*
X145519523Y-99690476D01*
X145424285Y-99738095D01*
X165155714Y-98552380D02*
X165155714Y-97552380D01*
X165393809Y-97552380D01*
X165536666Y-97600000D01*
X165631904Y-97695238D01*
X165679523Y-97790476D01*
X165727142Y-97980952D01*
X165727142Y-98123809D01*
X165679523Y-98314285D01*
X165631904Y-98409523D01*
X165536666Y-98504761D01*
X165393809Y-98552380D01*
X165155714Y-98552380D01*
X166679523Y-98552380D02*
X166108095Y-98552380D01*
X166393809Y-98552380D02*
X166393809Y-97552380D01*
X166298571Y-97695238D01*
X166203333Y-97790476D01*
X166108095Y-97838095D01*
X167155714Y-98552380D02*
X167346190Y-98552380D01*
X167441428Y-98504761D01*
X167489047Y-98457142D01*
X167584285Y-98314285D01*
X167631904Y-98123809D01*
X167631904Y-97742857D01*
X167584285Y-97647619D01*
X167536666Y-97600000D01*
X167441428Y-97552380D01*
X167250952Y-97552380D01*
X167155714Y-97600000D01*
X167108095Y-97647619D01*
X167060476Y-97742857D01*
X167060476Y-97980952D01*
X167108095Y-98076190D01*
X167155714Y-98123809D01*
X167250952Y-98171428D01*
X167441428Y-98171428D01*
X167536666Y-98123809D01*
X167584285Y-98076190D01*
X167631904Y-97980952D01*
X162505714Y-100452380D02*
X161934285Y-100452380D01*
X162220000Y-100452380D02*
X162220000Y-99452380D01*
X162124761Y-99595238D01*
X162029523Y-99690476D01*
X161934285Y-99738095D01*
X181575714Y-98222380D02*
X181575714Y-97222380D01*
X181813809Y-97222380D01*
X181956666Y-97270000D01*
X182051904Y-97365238D01*
X182099523Y-97460476D01*
X182147142Y-97650952D01*
X182147142Y-97793809D01*
X182099523Y-97984285D01*
X182051904Y-98079523D01*
X181956666Y-98174761D01*
X181813809Y-98222380D01*
X181575714Y-98222380D01*
X182528095Y-97317619D02*
X182575714Y-97270000D01*
X182670952Y-97222380D01*
X182909047Y-97222380D01*
X183004285Y-97270000D01*
X183051904Y-97317619D01*
X183099523Y-97412857D01*
X183099523Y-97508095D01*
X183051904Y-97650952D01*
X182480476Y-98222380D01*
X183099523Y-98222380D01*
X183718571Y-97222380D02*
X183813809Y-97222380D01*
X183909047Y-97270000D01*
X183956666Y-97317619D01*
X184004285Y-97412857D01*
X184051904Y-97603333D01*
X184051904Y-97841428D01*
X184004285Y-98031904D01*
X183956666Y-98127142D01*
X183909047Y-98174761D01*
X183813809Y-98222380D01*
X183718571Y-98222380D01*
X183623333Y-98174761D01*
X183575714Y-98127142D01*
X183528095Y-98031904D01*
X183480476Y-97841428D01*
X183480476Y-97603333D01*
X183528095Y-97412857D01*
X183575714Y-97317619D01*
X183623333Y-97270000D01*
X183718571Y-97222380D01*
X178925714Y-100122380D02*
X178354285Y-100122380D01*
X178640000Y-100122380D02*
X178640000Y-99122380D01*
X178544761Y-99265238D01*
X178449523Y-99360476D01*
X178354285Y-99408095D01*
X116216666Y-55554761D02*
X116359523Y-55602380D01*
X116597619Y-55602380D01*
X116692857Y-55554761D01*
X116740476Y-55507142D01*
X116788095Y-55411904D01*
X116788095Y-55316666D01*
X116740476Y-55221428D01*
X116692857Y-55173809D01*
X116597619Y-55126190D01*
X116407142Y-55078571D01*
X116311904Y-55030952D01*
X116264285Y-54983333D01*
X116216666Y-54888095D01*
X116216666Y-54792857D01*
X116264285Y-54697619D01*
X116311904Y-54650000D01*
X116407142Y-54602380D01*
X116645238Y-54602380D01*
X116788095Y-54650000D01*
X117121428Y-54602380D02*
X117359523Y-55602380D01*
X117550000Y-54888095D01*
X117740476Y-55602380D01*
X117978571Y-54602380D01*
X118883333Y-55602380D02*
X118311904Y-55602380D01*
X118597619Y-55602380D02*
X118597619Y-54602380D01*
X118502380Y-54745238D01*
X118407142Y-54840476D01*
X118311904Y-54888095D01*
X132726666Y-55554761D02*
X132869523Y-55602380D01*
X133107619Y-55602380D01*
X133202857Y-55554761D01*
X133250476Y-55507142D01*
X133298095Y-55411904D01*
X133298095Y-55316666D01*
X133250476Y-55221428D01*
X133202857Y-55173809D01*
X133107619Y-55126190D01*
X132917142Y-55078571D01*
X132821904Y-55030952D01*
X132774285Y-54983333D01*
X132726666Y-54888095D01*
X132726666Y-54792857D01*
X132774285Y-54697619D01*
X132821904Y-54650000D01*
X132917142Y-54602380D01*
X133155238Y-54602380D01*
X133298095Y-54650000D01*
X133631428Y-54602380D02*
X133869523Y-55602380D01*
X134060000Y-54888095D01*
X134250476Y-55602380D01*
X134488571Y-54602380D01*
X134821904Y-54697619D02*
X134869523Y-54650000D01*
X134964761Y-54602380D01*
X135202857Y-54602380D01*
X135298095Y-54650000D01*
X135345714Y-54697619D01*
X135393333Y-54792857D01*
X135393333Y-54888095D01*
X135345714Y-55030952D01*
X134774285Y-55602380D01*
X135393333Y-55602380D01*
X149236666Y-55554761D02*
X149379523Y-55602380D01*
X149617619Y-55602380D01*
X149712857Y-55554761D01*
X149760476Y-55507142D01*
X149808095Y-55411904D01*
X149808095Y-55316666D01*
X149760476Y-55221428D01*
X149712857Y-55173809D01*
X149617619Y-55126190D01*
X149427142Y-55078571D01*
X149331904Y-55030952D01*
X149284285Y-54983333D01*
X149236666Y-54888095D01*
X149236666Y-54792857D01*
X149284285Y-54697619D01*
X149331904Y-54650000D01*
X149427142Y-54602380D01*
X149665238Y-54602380D01*
X149808095Y-54650000D01*
X150141428Y-54602380D02*
X150379523Y-55602380D01*
X150570000Y-54888095D01*
X150760476Y-55602380D01*
X150998571Y-54602380D01*
X151284285Y-54602380D02*
X151903333Y-54602380D01*
X151570000Y-54983333D01*
X151712857Y-54983333D01*
X151808095Y-55030952D01*
X151855714Y-55078571D01*
X151903333Y-55173809D01*
X151903333Y-55411904D01*
X151855714Y-55507142D01*
X151808095Y-55554761D01*
X151712857Y-55602380D01*
X151427142Y-55602380D01*
X151331904Y-55554761D01*
X151284285Y-55507142D01*
X165746666Y-55554761D02*
X165889523Y-55602380D01*
X166127619Y-55602380D01*
X166222857Y-55554761D01*
X166270476Y-55507142D01*
X166318095Y-55411904D01*
X166318095Y-55316666D01*
X166270476Y-55221428D01*
X166222857Y-55173809D01*
X166127619Y-55126190D01*
X165937142Y-55078571D01*
X165841904Y-55030952D01*
X165794285Y-54983333D01*
X165746666Y-54888095D01*
X165746666Y-54792857D01*
X165794285Y-54697619D01*
X165841904Y-54650000D01*
X165937142Y-54602380D01*
X166175238Y-54602380D01*
X166318095Y-54650000D01*
X166651428Y-54602380D02*
X166889523Y-55602380D01*
X167080000Y-54888095D01*
X167270476Y-55602380D01*
X167508571Y-54602380D01*
X168318095Y-54935714D02*
X168318095Y-55602380D01*
X168080000Y-54554761D02*
X167841904Y-55269047D01*
X168460952Y-55269047D01*
X182256666Y-55554761D02*
X182399523Y-55602380D01*
X182637619Y-55602380D01*
X182732857Y-55554761D01*
X182780476Y-55507142D01*
X182828095Y-55411904D01*
X182828095Y-55316666D01*
X182780476Y-55221428D01*
X182732857Y-55173809D01*
X182637619Y-55126190D01*
X182447142Y-55078571D01*
X182351904Y-55030952D01*
X182304285Y-54983333D01*
X182256666Y-54888095D01*
X182256666Y-54792857D01*
X182304285Y-54697619D01*
X182351904Y-54650000D01*
X182447142Y-54602380D01*
X182685238Y-54602380D01*
X182828095Y-54650000D01*
X183161428Y-54602380D02*
X183399523Y-55602380D01*
X183590000Y-54888095D01*
X183780476Y-55602380D01*
X184018571Y-54602380D01*
X184875714Y-54602380D02*
X184399523Y-54602380D01*
X184351904Y-55078571D01*
X184399523Y-55030952D01*
X184494761Y-54983333D01*
X184732857Y-54983333D01*
X184828095Y-55030952D01*
X184875714Y-55078571D01*
X184923333Y-55173809D01*
X184923333Y-55411904D01*
X184875714Y-55507142D01*
X184828095Y-55554761D01*
X184732857Y-55602380D01*
X184494761Y-55602380D01*
X184399523Y-55554761D01*
X184351904Y-55507142D01*
X99706666Y-55554761D02*
X99849523Y-55602380D01*
X100087619Y-55602380D01*
X100182857Y-55554761D01*
X100230476Y-55507142D01*
X100278095Y-55411904D01*
X100278095Y-55316666D01*
X100230476Y-55221428D01*
X100182857Y-55173809D01*
X100087619Y-55126190D01*
X99897142Y-55078571D01*
X99801904Y-55030952D01*
X99754285Y-54983333D01*
X99706666Y-54888095D01*
X99706666Y-54792857D01*
X99754285Y-54697619D01*
X99801904Y-54650000D01*
X99897142Y-54602380D01*
X100135238Y-54602380D01*
X100278095Y-54650000D01*
X100611428Y-54602380D02*
X100849523Y-55602380D01*
X101040000Y-54888095D01*
X101230476Y-55602380D01*
X101468571Y-54602380D01*
X102278095Y-54602380D02*
X102087619Y-54602380D01*
X101992380Y-54650000D01*
X101944761Y-54697619D01*
X101849523Y-54840476D01*
X101801904Y-55030952D01*
X101801904Y-55411904D01*
X101849523Y-55507142D01*
X101897142Y-55554761D01*
X101992380Y-55602380D01*
X102182857Y-55602380D01*
X102278095Y-55554761D01*
X102325714Y-55507142D01*
X102373333Y-55411904D01*
X102373333Y-55173809D01*
X102325714Y-55078571D01*
X102278095Y-55030952D01*
X102182857Y-54983333D01*
X101992380Y-54983333D01*
X101897142Y-55030952D01*
X101849523Y-55078571D01*
X101801904Y-55173809D01*
X94504285Y-109232619D02*
X94551904Y-109185000D01*
X94647142Y-109137380D01*
X94885238Y-109137380D01*
X94980476Y-109185000D01*
X95028095Y-109232619D01*
X95075714Y-109327857D01*
X95075714Y-109423095D01*
X95028095Y-109565952D01*
X94456666Y-110137380D01*
X95075714Y-110137380D01*
X95456666Y-109232619D02*
X95504285Y-109185000D01*
X95599523Y-109137380D01*
X95837619Y-109137380D01*
X95932857Y-109185000D01*
X95980476Y-109232619D01*
X96028095Y-109327857D01*
X96028095Y-109423095D01*
X95980476Y-109565952D01*
X95409047Y-110137380D01*
X96028095Y-110137380D01*
X96647142Y-109137380D02*
X96742380Y-109137380D01*
X96837619Y-109185000D01*
X96885238Y-109232619D01*
X96932857Y-109327857D01*
X96980476Y-109518333D01*
X96980476Y-109756428D01*
X96932857Y-109946904D01*
X96885238Y-110042142D01*
X96837619Y-110089761D01*
X96742380Y-110137380D01*
X96647142Y-110137380D01*
X96551904Y-110089761D01*
X96504285Y-110042142D01*
X96456666Y-109946904D01*
X96409047Y-109756428D01*
X96409047Y-109518333D01*
X96456666Y-109327857D01*
X96504285Y-109232619D01*
X96551904Y-109185000D01*
X96647142Y-109137380D01*
X97551904Y-110137380D02*
X97456666Y-110089761D01*
X97409047Y-110042142D01*
X97361428Y-109946904D01*
X97361428Y-109661190D01*
X97409047Y-109565952D01*
X97456666Y-109518333D01*
X97551904Y-109470714D01*
X97694761Y-109470714D01*
X97790000Y-109518333D01*
X97837619Y-109565952D01*
X97885238Y-109661190D01*
X97885238Y-109946904D01*
X97837619Y-110042142D01*
X97790000Y-110089761D01*
X97694761Y-110137380D01*
X97551904Y-110137380D01*
X98313809Y-110137380D02*
X98313809Y-109137380D01*
X98742380Y-110137380D02*
X98742380Y-109613571D01*
X98694761Y-109518333D01*
X98599523Y-109470714D01*
X98456666Y-109470714D01*
X98361428Y-109518333D01*
X98313809Y-109565952D01*
X99218571Y-110137380D02*
X99218571Y-109470714D01*
X99218571Y-109565952D02*
X99266190Y-109518333D01*
X99361428Y-109470714D01*
X99504285Y-109470714D01*
X99599523Y-109518333D01*
X99647142Y-109613571D01*
X99647142Y-110137380D01*
X99647142Y-109613571D02*
X99694761Y-109518333D01*
X99790000Y-109470714D01*
X99932857Y-109470714D01*
X100028095Y-109518333D01*
X100075714Y-109613571D01*
X100075714Y-110137380D01*
X101075714Y-110137380D02*
X100504285Y-110137380D01*
X100790000Y-110137380D02*
X100790000Y-109137380D01*
X100694761Y-109280238D01*
X100599523Y-109375476D01*
X100504285Y-109423095D01*
X94504285Y-99072619D02*
X94551904Y-99025000D01*
X94647142Y-98977380D01*
X94885238Y-98977380D01*
X94980476Y-99025000D01*
X95028095Y-99072619D01*
X95075714Y-99167857D01*
X95075714Y-99263095D01*
X95028095Y-99405952D01*
X94456666Y-99977380D01*
X95075714Y-99977380D01*
X95456666Y-99072619D02*
X95504285Y-99025000D01*
X95599523Y-98977380D01*
X95837619Y-98977380D01*
X95932857Y-99025000D01*
X95980476Y-99072619D01*
X96028095Y-99167857D01*
X96028095Y-99263095D01*
X95980476Y-99405952D01*
X95409047Y-99977380D01*
X96028095Y-99977380D01*
X96647142Y-98977380D02*
X96742380Y-98977380D01*
X96837619Y-99025000D01*
X96885238Y-99072619D01*
X96932857Y-99167857D01*
X96980476Y-99358333D01*
X96980476Y-99596428D01*
X96932857Y-99786904D01*
X96885238Y-99882142D01*
X96837619Y-99929761D01*
X96742380Y-99977380D01*
X96647142Y-99977380D01*
X96551904Y-99929761D01*
X96504285Y-99882142D01*
X96456666Y-99786904D01*
X96409047Y-99596428D01*
X96409047Y-99358333D01*
X96456666Y-99167857D01*
X96504285Y-99072619D01*
X96551904Y-99025000D01*
X96647142Y-98977380D01*
X97551904Y-99977380D02*
X97456666Y-99929761D01*
X97409047Y-99882142D01*
X97361428Y-99786904D01*
X97361428Y-99501190D01*
X97409047Y-99405952D01*
X97456666Y-99358333D01*
X97551904Y-99310714D01*
X97694761Y-99310714D01*
X97790000Y-99358333D01*
X97837619Y-99405952D01*
X97885238Y-99501190D01*
X97885238Y-99786904D01*
X97837619Y-99882142D01*
X97790000Y-99929761D01*
X97694761Y-99977380D01*
X97551904Y-99977380D01*
X98313809Y-99977380D02*
X98313809Y-98977380D01*
X98742380Y-99977380D02*
X98742380Y-99453571D01*
X98694761Y-99358333D01*
X98599523Y-99310714D01*
X98456666Y-99310714D01*
X98361428Y-99358333D01*
X98313809Y-99405952D01*
X99218571Y-99977380D02*
X99218571Y-99310714D01*
X99218571Y-99405952D02*
X99266190Y-99358333D01*
X99361428Y-99310714D01*
X99504285Y-99310714D01*
X99599523Y-99358333D01*
X99647142Y-99453571D01*
X99647142Y-99977380D01*
X99647142Y-99453571D02*
X99694761Y-99358333D01*
X99790000Y-99310714D01*
X99932857Y-99310714D01*
X100028095Y-99358333D01*
X100075714Y-99453571D01*
X100075714Y-99977380D01*
X100504285Y-99072619D02*
X100551904Y-99025000D01*
X100647142Y-98977380D01*
X100885238Y-98977380D01*
X100980476Y-99025000D01*
X101028095Y-99072619D01*
X101075714Y-99167857D01*
X101075714Y-99263095D01*
X101028095Y-99405952D01*
X100456666Y-99977380D01*
X101075714Y-99977380D01*
X94504285Y-88912619D02*
X94551904Y-88865000D01*
X94647142Y-88817380D01*
X94885238Y-88817380D01*
X94980476Y-88865000D01*
X95028095Y-88912619D01*
X95075714Y-89007857D01*
X95075714Y-89103095D01*
X95028095Y-89245952D01*
X94456666Y-89817380D01*
X95075714Y-89817380D01*
X95456666Y-88912619D02*
X95504285Y-88865000D01*
X95599523Y-88817380D01*
X95837619Y-88817380D01*
X95932857Y-88865000D01*
X95980476Y-88912619D01*
X96028095Y-89007857D01*
X96028095Y-89103095D01*
X95980476Y-89245952D01*
X95409047Y-89817380D01*
X96028095Y-89817380D01*
X96647142Y-88817380D02*
X96742380Y-88817380D01*
X96837619Y-88865000D01*
X96885238Y-88912619D01*
X96932857Y-89007857D01*
X96980476Y-89198333D01*
X96980476Y-89436428D01*
X96932857Y-89626904D01*
X96885238Y-89722142D01*
X96837619Y-89769761D01*
X96742380Y-89817380D01*
X96647142Y-89817380D01*
X96551904Y-89769761D01*
X96504285Y-89722142D01*
X96456666Y-89626904D01*
X96409047Y-89436428D01*
X96409047Y-89198333D01*
X96456666Y-89007857D01*
X96504285Y-88912619D01*
X96551904Y-88865000D01*
X96647142Y-88817380D01*
X97551904Y-89817380D02*
X97456666Y-89769761D01*
X97409047Y-89722142D01*
X97361428Y-89626904D01*
X97361428Y-89341190D01*
X97409047Y-89245952D01*
X97456666Y-89198333D01*
X97551904Y-89150714D01*
X97694761Y-89150714D01*
X97790000Y-89198333D01*
X97837619Y-89245952D01*
X97885238Y-89341190D01*
X97885238Y-89626904D01*
X97837619Y-89722142D01*
X97790000Y-89769761D01*
X97694761Y-89817380D01*
X97551904Y-89817380D01*
X98313809Y-89817380D02*
X98313809Y-88817380D01*
X98742380Y-89817380D02*
X98742380Y-89293571D01*
X98694761Y-89198333D01*
X98599523Y-89150714D01*
X98456666Y-89150714D01*
X98361428Y-89198333D01*
X98313809Y-89245952D01*
X99218571Y-89817380D02*
X99218571Y-89150714D01*
X99218571Y-89245952D02*
X99266190Y-89198333D01*
X99361428Y-89150714D01*
X99504285Y-89150714D01*
X99599523Y-89198333D01*
X99647142Y-89293571D01*
X99647142Y-89817380D01*
X99647142Y-89293571D02*
X99694761Y-89198333D01*
X99790000Y-89150714D01*
X99932857Y-89150714D01*
X100028095Y-89198333D01*
X100075714Y-89293571D01*
X100075714Y-89817380D01*
X100456666Y-88817380D02*
X101075714Y-88817380D01*
X100742380Y-89198333D01*
X100885238Y-89198333D01*
X100980476Y-89245952D01*
X101028095Y-89293571D01*
X101075714Y-89388809D01*
X101075714Y-89626904D01*
X101028095Y-89722142D01*
X100980476Y-89769761D01*
X100885238Y-89817380D01*
X100599523Y-89817380D01*
X100504285Y-89769761D01*
X100456666Y-89722142D01*
X94504285Y-78117619D02*
X94551904Y-78070000D01*
X94647142Y-78022380D01*
X94885238Y-78022380D01*
X94980476Y-78070000D01*
X95028095Y-78117619D01*
X95075714Y-78212857D01*
X95075714Y-78308095D01*
X95028095Y-78450952D01*
X94456666Y-79022380D01*
X95075714Y-79022380D01*
X95456666Y-78117619D02*
X95504285Y-78070000D01*
X95599523Y-78022380D01*
X95837619Y-78022380D01*
X95932857Y-78070000D01*
X95980476Y-78117619D01*
X96028095Y-78212857D01*
X96028095Y-78308095D01*
X95980476Y-78450952D01*
X95409047Y-79022380D01*
X96028095Y-79022380D01*
X96647142Y-78022380D02*
X96742380Y-78022380D01*
X96837619Y-78070000D01*
X96885238Y-78117619D01*
X96932857Y-78212857D01*
X96980476Y-78403333D01*
X96980476Y-78641428D01*
X96932857Y-78831904D01*
X96885238Y-78927142D01*
X96837619Y-78974761D01*
X96742380Y-79022380D01*
X96647142Y-79022380D01*
X96551904Y-78974761D01*
X96504285Y-78927142D01*
X96456666Y-78831904D01*
X96409047Y-78641428D01*
X96409047Y-78403333D01*
X96456666Y-78212857D01*
X96504285Y-78117619D01*
X96551904Y-78070000D01*
X96647142Y-78022380D01*
X97551904Y-79022380D02*
X97456666Y-78974761D01*
X97409047Y-78927142D01*
X97361428Y-78831904D01*
X97361428Y-78546190D01*
X97409047Y-78450952D01*
X97456666Y-78403333D01*
X97551904Y-78355714D01*
X97694761Y-78355714D01*
X97790000Y-78403333D01*
X97837619Y-78450952D01*
X97885238Y-78546190D01*
X97885238Y-78831904D01*
X97837619Y-78927142D01*
X97790000Y-78974761D01*
X97694761Y-79022380D01*
X97551904Y-79022380D01*
X98313809Y-79022380D02*
X98313809Y-78022380D01*
X98742380Y-79022380D02*
X98742380Y-78498571D01*
X98694761Y-78403333D01*
X98599523Y-78355714D01*
X98456666Y-78355714D01*
X98361428Y-78403333D01*
X98313809Y-78450952D01*
X99218571Y-79022380D02*
X99218571Y-78355714D01*
X99218571Y-78450952D02*
X99266190Y-78403333D01*
X99361428Y-78355714D01*
X99504285Y-78355714D01*
X99599523Y-78403333D01*
X99647142Y-78498571D01*
X99647142Y-79022380D01*
X99647142Y-78498571D02*
X99694761Y-78403333D01*
X99790000Y-78355714D01*
X99932857Y-78355714D01*
X100028095Y-78403333D01*
X100075714Y-78498571D01*
X100075714Y-79022380D01*
X100980476Y-78355714D02*
X100980476Y-79022380D01*
X100742380Y-77974761D02*
X100504285Y-78689047D01*
X101123333Y-78689047D01*
X123145714Y-59983333D02*
X123812380Y-59983333D01*
X122764761Y-60221428D02*
X123479047Y-60459523D01*
X123479047Y-59840476D01*
X122812380Y-59554761D02*
X122812380Y-58888095D01*
X123812380Y-59316666D01*
X123812380Y-58507142D02*
X122812380Y-58507142D01*
X123812380Y-57935714D02*
X123240952Y-58364285D01*
X122812380Y-57935714D02*
X123383809Y-58507142D01*
X123812380Y-57364285D02*
X123764761Y-57459523D01*
X123717142Y-57507142D01*
X123621904Y-57554761D01*
X123336190Y-57554761D01*
X123240952Y-57507142D01*
X123193333Y-57459523D01*
X123145714Y-57364285D01*
X123145714Y-57221428D01*
X123193333Y-57126190D01*
X123240952Y-57078571D01*
X123336190Y-57030952D01*
X123621904Y-57030952D01*
X123717142Y-57078571D01*
X123764761Y-57126190D01*
X123812380Y-57221428D01*
X123812380Y-57364285D01*
X123812380Y-56602380D02*
X122812380Y-56602380D01*
X123812380Y-56173809D02*
X123288571Y-56173809D01*
X123193333Y-56221428D01*
X123145714Y-56316666D01*
X123145714Y-56459523D01*
X123193333Y-56554761D01*
X123240952Y-56602380D01*
X123812380Y-55697619D02*
X123145714Y-55697619D01*
X123240952Y-55697619D02*
X123193333Y-55650000D01*
X123145714Y-55554761D01*
X123145714Y-55411904D01*
X123193333Y-55316666D01*
X123288571Y-55269047D01*
X123812380Y-55269047D01*
X123288571Y-55269047D02*
X123193333Y-55221428D01*
X123145714Y-55126190D01*
X123145714Y-54983333D01*
X123193333Y-54888095D01*
X123288571Y-54840476D01*
X123812380Y-54840476D01*
X123812380Y-53840476D02*
X123812380Y-54411904D01*
X123812380Y-54126190D02*
X122812380Y-54126190D01*
X122955238Y-54221428D01*
X123050476Y-54316666D01*
X123098095Y-54411904D01*
X139655714Y-59983333D02*
X140322380Y-59983333D01*
X139274761Y-60221428D02*
X139989047Y-60459523D01*
X139989047Y-59840476D01*
X139322380Y-59554761D02*
X139322380Y-58888095D01*
X140322380Y-59316666D01*
X140322380Y-58507142D02*
X139322380Y-58507142D01*
X140322380Y-57935714D02*
X139750952Y-58364285D01*
X139322380Y-57935714D02*
X139893809Y-58507142D01*
X140322380Y-57364285D02*
X140274761Y-57459523D01*
X140227142Y-57507142D01*
X140131904Y-57554761D01*
X139846190Y-57554761D01*
X139750952Y-57507142D01*
X139703333Y-57459523D01*
X139655714Y-57364285D01*
X139655714Y-57221428D01*
X139703333Y-57126190D01*
X139750952Y-57078571D01*
X139846190Y-57030952D01*
X140131904Y-57030952D01*
X140227142Y-57078571D01*
X140274761Y-57126190D01*
X140322380Y-57221428D01*
X140322380Y-57364285D01*
X140322380Y-56602380D02*
X139322380Y-56602380D01*
X140322380Y-56173809D02*
X139798571Y-56173809D01*
X139703333Y-56221428D01*
X139655714Y-56316666D01*
X139655714Y-56459523D01*
X139703333Y-56554761D01*
X139750952Y-56602380D01*
X140322380Y-55697619D02*
X139655714Y-55697619D01*
X139750952Y-55697619D02*
X139703333Y-55650000D01*
X139655714Y-55554761D01*
X139655714Y-55411904D01*
X139703333Y-55316666D01*
X139798571Y-55269047D01*
X140322380Y-55269047D01*
X139798571Y-55269047D02*
X139703333Y-55221428D01*
X139655714Y-55126190D01*
X139655714Y-54983333D01*
X139703333Y-54888095D01*
X139798571Y-54840476D01*
X140322380Y-54840476D01*
X139417619Y-54411904D02*
X139370000Y-54364285D01*
X139322380Y-54269047D01*
X139322380Y-54030952D01*
X139370000Y-53935714D01*
X139417619Y-53888095D01*
X139512857Y-53840476D01*
X139608095Y-53840476D01*
X139750952Y-53888095D01*
X140322380Y-54459523D01*
X140322380Y-53840476D01*
X156165714Y-59983333D02*
X156832380Y-59983333D01*
X155784761Y-60221428D02*
X156499047Y-60459523D01*
X156499047Y-59840476D01*
X155832380Y-59554761D02*
X155832380Y-58888095D01*
X156832380Y-59316666D01*
X156832380Y-58507142D02*
X155832380Y-58507142D01*
X156832380Y-57935714D02*
X156260952Y-58364285D01*
X155832380Y-57935714D02*
X156403809Y-58507142D01*
X156832380Y-57364285D02*
X156784761Y-57459523D01*
X156737142Y-57507142D01*
X156641904Y-57554761D01*
X156356190Y-57554761D01*
X156260952Y-57507142D01*
X156213333Y-57459523D01*
X156165714Y-57364285D01*
X156165714Y-57221428D01*
X156213333Y-57126190D01*
X156260952Y-57078571D01*
X156356190Y-57030952D01*
X156641904Y-57030952D01*
X156737142Y-57078571D01*
X156784761Y-57126190D01*
X156832380Y-57221428D01*
X156832380Y-57364285D01*
X156832380Y-56602380D02*
X155832380Y-56602380D01*
X156832380Y-56173809D02*
X156308571Y-56173809D01*
X156213333Y-56221428D01*
X156165714Y-56316666D01*
X156165714Y-56459523D01*
X156213333Y-56554761D01*
X156260952Y-56602380D01*
X156832380Y-55697619D02*
X156165714Y-55697619D01*
X156260952Y-55697619D02*
X156213333Y-55650000D01*
X156165714Y-55554761D01*
X156165714Y-55411904D01*
X156213333Y-55316666D01*
X156308571Y-55269047D01*
X156832380Y-55269047D01*
X156308571Y-55269047D02*
X156213333Y-55221428D01*
X156165714Y-55126190D01*
X156165714Y-54983333D01*
X156213333Y-54888095D01*
X156308571Y-54840476D01*
X156832380Y-54840476D01*
X155832380Y-54459523D02*
X155832380Y-53840476D01*
X156213333Y-54173809D01*
X156213333Y-54030952D01*
X156260952Y-53935714D01*
X156308571Y-53888095D01*
X156403809Y-53840476D01*
X156641904Y-53840476D01*
X156737142Y-53888095D01*
X156784761Y-53935714D01*
X156832380Y-54030952D01*
X156832380Y-54316666D01*
X156784761Y-54411904D01*
X156737142Y-54459523D01*
X172675714Y-59983333D02*
X173342380Y-59983333D01*
X172294761Y-60221428D02*
X173009047Y-60459523D01*
X173009047Y-59840476D01*
X172342380Y-59554761D02*
X172342380Y-58888095D01*
X173342380Y-59316666D01*
X173342380Y-58507142D02*
X172342380Y-58507142D01*
X173342380Y-57935714D02*
X172770952Y-58364285D01*
X172342380Y-57935714D02*
X172913809Y-58507142D01*
X173342380Y-57364285D02*
X173294761Y-57459523D01*
X173247142Y-57507142D01*
X173151904Y-57554761D01*
X172866190Y-57554761D01*
X172770952Y-57507142D01*
X172723333Y-57459523D01*
X172675714Y-57364285D01*
X172675714Y-57221428D01*
X172723333Y-57126190D01*
X172770952Y-57078571D01*
X172866190Y-57030952D01*
X173151904Y-57030952D01*
X173247142Y-57078571D01*
X173294761Y-57126190D01*
X173342380Y-57221428D01*
X173342380Y-57364285D01*
X173342380Y-56602380D02*
X172342380Y-56602380D01*
X173342380Y-56173809D02*
X172818571Y-56173809D01*
X172723333Y-56221428D01*
X172675714Y-56316666D01*
X172675714Y-56459523D01*
X172723333Y-56554761D01*
X172770952Y-56602380D01*
X173342380Y-55697619D02*
X172675714Y-55697619D01*
X172770952Y-55697619D02*
X172723333Y-55650000D01*
X172675714Y-55554761D01*
X172675714Y-55411904D01*
X172723333Y-55316666D01*
X172818571Y-55269047D01*
X173342380Y-55269047D01*
X172818571Y-55269047D02*
X172723333Y-55221428D01*
X172675714Y-55126190D01*
X172675714Y-54983333D01*
X172723333Y-54888095D01*
X172818571Y-54840476D01*
X173342380Y-54840476D01*
X172675714Y-53935714D02*
X173342380Y-53935714D01*
X172294761Y-54173809D02*
X173009047Y-54411904D01*
X173009047Y-53792857D01*
X189185714Y-59983333D02*
X189852380Y-59983333D01*
X188804761Y-60221428D02*
X189519047Y-60459523D01*
X189519047Y-59840476D01*
X188852380Y-59554761D02*
X188852380Y-58888095D01*
X189852380Y-59316666D01*
X189852380Y-58507142D02*
X188852380Y-58507142D01*
X189852380Y-57935714D02*
X189280952Y-58364285D01*
X188852380Y-57935714D02*
X189423809Y-58507142D01*
X189852380Y-57364285D02*
X189804761Y-57459523D01*
X189757142Y-57507142D01*
X189661904Y-57554761D01*
X189376190Y-57554761D01*
X189280952Y-57507142D01*
X189233333Y-57459523D01*
X189185714Y-57364285D01*
X189185714Y-57221428D01*
X189233333Y-57126190D01*
X189280952Y-57078571D01*
X189376190Y-57030952D01*
X189661904Y-57030952D01*
X189757142Y-57078571D01*
X189804761Y-57126190D01*
X189852380Y-57221428D01*
X189852380Y-57364285D01*
X189852380Y-56602380D02*
X188852380Y-56602380D01*
X189852380Y-56173809D02*
X189328571Y-56173809D01*
X189233333Y-56221428D01*
X189185714Y-56316666D01*
X189185714Y-56459523D01*
X189233333Y-56554761D01*
X189280952Y-56602380D01*
X189852380Y-55697619D02*
X189185714Y-55697619D01*
X189280952Y-55697619D02*
X189233333Y-55650000D01*
X189185714Y-55554761D01*
X189185714Y-55411904D01*
X189233333Y-55316666D01*
X189328571Y-55269047D01*
X189852380Y-55269047D01*
X189328571Y-55269047D02*
X189233333Y-55221428D01*
X189185714Y-55126190D01*
X189185714Y-54983333D01*
X189233333Y-54888095D01*
X189328571Y-54840476D01*
X189852380Y-54840476D01*
X188852380Y-53888095D02*
X188852380Y-54364285D01*
X189328571Y-54411904D01*
X189280952Y-54364285D01*
X189233333Y-54269047D01*
X189233333Y-54030952D01*
X189280952Y-53935714D01*
X189328571Y-53888095D01*
X189423809Y-53840476D01*
X189661904Y-53840476D01*
X189757142Y-53888095D01*
X189804761Y-53935714D01*
X189852380Y-54030952D01*
X189852380Y-54269047D01*
X189804761Y-54364285D01*
X189757142Y-54411904D01*
X106635714Y-59983333D02*
X107302380Y-59983333D01*
X106254761Y-60221428D02*
X106969047Y-60459523D01*
X106969047Y-59840476D01*
X106302380Y-59554761D02*
X106302380Y-58888095D01*
X107302380Y-59316666D01*
X107302380Y-58507142D02*
X106302380Y-58507142D01*
X107302380Y-57935714D02*
X106730952Y-58364285D01*
X106302380Y-57935714D02*
X106873809Y-58507142D01*
X107302380Y-57364285D02*
X107254761Y-57459523D01*
X107207142Y-57507142D01*
X107111904Y-57554761D01*
X106826190Y-57554761D01*
X106730952Y-57507142D01*
X106683333Y-57459523D01*
X106635714Y-57364285D01*
X106635714Y-57221428D01*
X106683333Y-57126190D01*
X106730952Y-57078571D01*
X106826190Y-57030952D01*
X107111904Y-57030952D01*
X107207142Y-57078571D01*
X107254761Y-57126190D01*
X107302380Y-57221428D01*
X107302380Y-57364285D01*
X107302380Y-56602380D02*
X106302380Y-56602380D01*
X107302380Y-56173809D02*
X106778571Y-56173809D01*
X106683333Y-56221428D01*
X106635714Y-56316666D01*
X106635714Y-56459523D01*
X106683333Y-56554761D01*
X106730952Y-56602380D01*
X107302380Y-55697619D02*
X106635714Y-55697619D01*
X106730952Y-55697619D02*
X106683333Y-55650000D01*
X106635714Y-55554761D01*
X106635714Y-55411904D01*
X106683333Y-55316666D01*
X106778571Y-55269047D01*
X107302380Y-55269047D01*
X106778571Y-55269047D02*
X106683333Y-55221428D01*
X106635714Y-55126190D01*
X106635714Y-54983333D01*
X106683333Y-54888095D01*
X106778571Y-54840476D01*
X107302380Y-54840476D01*
X106302380Y-53935714D02*
X106302380Y-54126190D01*
X106350000Y-54221428D01*
X106397619Y-54269047D01*
X106540476Y-54364285D01*
X106730952Y-54411904D01*
X107111904Y-54411904D01*
X107207142Y-54364285D01*
X107254761Y-54316666D01*
X107302380Y-54221428D01*
X107302380Y-54030952D01*
X107254761Y-53935714D01*
X107207142Y-53888095D01*
X107111904Y-53840476D01*
X106873809Y-53840476D01*
X106778571Y-53888095D01*
X106730952Y-53935714D01*
X106683333Y-54030952D01*
X106683333Y-54221428D01*
X106730952Y-54316666D01*
X106778571Y-54364285D01*
X106873809Y-54411904D01*
X105465714Y-98092380D02*
X105465714Y-97092380D01*
X105703809Y-97092380D01*
X105846666Y-97140000D01*
X105941904Y-97235238D01*
X105989523Y-97330476D01*
X106037142Y-97520952D01*
X106037142Y-97663809D01*
X105989523Y-97854285D01*
X105941904Y-97949523D01*
X105846666Y-98044761D01*
X105703809Y-98092380D01*
X105465714Y-98092380D01*
X106418095Y-97187619D02*
X106465714Y-97140000D01*
X106560952Y-97092380D01*
X106799047Y-97092380D01*
X106894285Y-97140000D01*
X106941904Y-97187619D01*
X106989523Y-97282857D01*
X106989523Y-97378095D01*
X106941904Y-97520952D01*
X106370476Y-98092380D01*
X106989523Y-98092380D01*
X107941904Y-98092380D02*
X107370476Y-98092380D01*
X107656190Y-98092380D02*
X107656190Y-97092380D01*
X107560952Y-97235238D01*
X107465714Y-97330476D01*
X107370476Y-97378095D01*
X105465714Y-88567380D02*
X105465714Y-87567380D01*
X105703809Y-87567380D01*
X105846666Y-87615000D01*
X105941904Y-87710238D01*
X105989523Y-87805476D01*
X106037142Y-87995952D01*
X106037142Y-88138809D01*
X105989523Y-88329285D01*
X105941904Y-88424523D01*
X105846666Y-88519761D01*
X105703809Y-88567380D01*
X105465714Y-88567380D01*
X106418095Y-87662619D02*
X106465714Y-87615000D01*
X106560952Y-87567380D01*
X106799047Y-87567380D01*
X106894285Y-87615000D01*
X106941904Y-87662619D01*
X106989523Y-87757857D01*
X106989523Y-87853095D01*
X106941904Y-87995952D01*
X106370476Y-88567380D01*
X106989523Y-88567380D01*
X107370476Y-87662619D02*
X107418095Y-87615000D01*
X107513333Y-87567380D01*
X107751428Y-87567380D01*
X107846666Y-87615000D01*
X107894285Y-87662619D01*
X107941904Y-87757857D01*
X107941904Y-87853095D01*
X107894285Y-87995952D01*
X107322857Y-88567380D01*
X107941904Y-88567380D01*
X105465714Y-77772380D02*
X105465714Y-76772380D01*
X105703809Y-76772380D01*
X105846666Y-76820000D01*
X105941904Y-76915238D01*
X105989523Y-77010476D01*
X106037142Y-77200952D01*
X106037142Y-77343809D01*
X105989523Y-77534285D01*
X105941904Y-77629523D01*
X105846666Y-77724761D01*
X105703809Y-77772380D01*
X105465714Y-77772380D01*
X106418095Y-76867619D02*
X106465714Y-76820000D01*
X106560952Y-76772380D01*
X106799047Y-76772380D01*
X106894285Y-76820000D01*
X106941904Y-76867619D01*
X106989523Y-76962857D01*
X106989523Y-77058095D01*
X106941904Y-77200952D01*
X106370476Y-77772380D01*
X106989523Y-77772380D01*
X107322857Y-76772380D02*
X107941904Y-76772380D01*
X107608571Y-77153333D01*
X107751428Y-77153333D01*
X107846666Y-77200952D01*
X107894285Y-77248571D01*
X107941904Y-77343809D01*
X107941904Y-77581904D01*
X107894285Y-77677142D01*
X107846666Y-77724761D01*
X107751428Y-77772380D01*
X107465714Y-77772380D01*
X107370476Y-77724761D01*
X107322857Y-77677142D01*
X105465714Y-66977380D02*
X105465714Y-65977380D01*
X105703809Y-65977380D01*
X105846666Y-66025000D01*
X105941904Y-66120238D01*
X105989523Y-66215476D01*
X106037142Y-66405952D01*
X106037142Y-66548809D01*
X105989523Y-66739285D01*
X105941904Y-66834523D01*
X105846666Y-66929761D01*
X105703809Y-66977380D01*
X105465714Y-66977380D01*
X106418095Y-66072619D02*
X106465714Y-66025000D01*
X106560952Y-65977380D01*
X106799047Y-65977380D01*
X106894285Y-66025000D01*
X106941904Y-66072619D01*
X106989523Y-66167857D01*
X106989523Y-66263095D01*
X106941904Y-66405952D01*
X106370476Y-66977380D01*
X106989523Y-66977380D01*
X107846666Y-66310714D02*
X107846666Y-66977380D01*
X107608571Y-65929761D02*
X107370476Y-66644047D01*
X107989523Y-66644047D01*
X78266667Y-61497381D02*
X78266667Y-62211667D01*
X78219048Y-62354524D01*
X78123810Y-62449762D01*
X77980953Y-62497381D01*
X77885715Y-62497381D01*
X79266667Y-62497381D02*
X78695239Y-62497381D01*
X78980953Y-62497381D02*
X78980953Y-61497381D01*
X78885715Y-61640239D01*
X78790477Y-61735477D01*
X78695239Y-61783096D01*
M02*
